SplineFontDB: 3.2
FontName: ForDrawingTitles-Semi-Bold
FullName: For Drawing Titles
FamilyName: For Drawing Titles
Weight: Bold
Copyright: Karlis Kalviskis, 2025.\nThis Font Software is licensed under the SIL Open Font License.\nThis font was inspired by\n"Archistico",\n"Fredericka the Great" and\n"Gravitas One" fonts.
UComments: "This font was inspired by +IB4A-Archistico+IB0A, +IB4A-Fredericka the Great+IB0A and +IB4A-Gravitas One+IB0A fonts."
Version: 1.1
ItalicAngle: 0
UnderlinePosition: -120
UnderlineWidth: 112
Ascent: 1638
Descent: 410
InvalidEm: 0
LayerCount: 4
Layer: 0 1 "Back" 1
Layer: 1 1 "Fore" 0
Layer: 2 1 "TMP" 1
Layer: 3 1 "Thinner" 1
XUID: [1021 649 293428461 14757695]
FSType: 0
OS2Version: 3
OS2_WeightWidthSlopeOnly: 0
OS2_UseTypoMetrics: 0
CreationTime: 1305819720
ModificationTime: 1737790553
PfmFamily: 17
TTFWeight: 600
TTFWidth: 5
LineGap: 0
VLineGap: 0
OS2TypoAscent: 1938
OS2TypoAOffset: 0
OS2TypoDescent: -668
OS2TypoDOffset: 0
OS2TypoLinegap: 0
OS2WinAscent: 1938
OS2WinAOffset: 0
OS2WinDescent: 668
OS2WinDOffset: 0
HheadAscent: 1938
HheadAOffset: 0
HheadDescent: -668
HheadDOffset: 0
OS2SubXSize: 1434
OS2SubYSize: 1332
OS2SubXOff: 0
OS2SubYOff: 286
OS2SupXSize: 1434
OS2SupYSize: 1332
OS2SupXOff: 0
OS2SupYOff: 976
OS2StrikeYSize: 114
OS2StrikeYPos: 688
OS2CapHeight: 1418
OS2XHeight: 1112
OS2FamilyClass: 256
OS2Vendor: '    '
MarkAttachClasses: 1
DEI: 91125
TtTable: prep
PUSHW_1
 511
SCANCTRL
PUSHB_1
 4
SCANTYPE
EndTTInstrs
ShortTable: maxp 16
  1
  0
  238
  129
  5
  0
  0
  1
  0
  0
  0
  0
  0
  0
  0
  0
EndShort
LangName: 1033 "" "" "" "" "" "" "" "" "" "K+AQEA-rlis Kalvi+AWEA-kis" "" "" "" "This Font Software is licensed under+AAoA-the SIL Open Font License, Version 1.1. " "http://scripts.sil.org/OFL"
GaspTable: 1 65535 3 0
Encoding: UnicodeFull
Compacted: 1
UnicodeInterp: none
NameList: Adobe Glyph List
DisplaySize: -48
AntiAlias: 1
FitToEm: 0
WidthSeparation: 307
WinInfo: 0 22 9
BeginPrivate: 0
EndPrivate
Grid
-2048 1425.40039062 m 0

StartChar: numbersign
Encoding: 35 35 3
Width: 1542
GlyphClass: 2
Flags: W
LayerCount: 4
Back
SplineSet
410 422 m 5,0,-1
 150 422 l 5,1,-1
 150 544 l 5,2,-1
 442 544 l 5,3,-1
 528 860 l 5,4,-1
 150 860 l 5,5,-1
 150 986 l 5,6,-1
 562 986 l 5,7,-1
 678 1418 l 5,8,-1
 794 1418 l 5,9,-1
 680 986 l 5,10,-1
 1054 986 l 5,11,-1
 1172 1418 l 5,12,-1
 1288 1418 l 5,13,-1
 1174 986 l 5,14,-1
 1392 986 l 5,15,-1
 1392 860 l 5,16,-1
 1140 860 l 5,17,-1
 1054 544 l 5,18,-1
 1392 544 l 5,19,-1
 1392 422 l 5,20,-1
 1022 422 l 5,21,-1
 910 0 l 5,22,-1
 790 0 l 5,23,-1
 904 422 l 5,24,-1
 528 422 l 5,25,-1
 416 0 l 5,26,-1
 296 0 l 5,27,-1
 410 422 l 5,0,-1
938 544 m 5,28,-1
 1022 860 l 5,29,-1
 646 860 l 5,30,-1
 562 544 l 5,31,-1
 938 544 l 5,28,-1
EndSplineSet
Fore
SplineSet
410 422 m 1,0,-1
 150 422 l 1,1,-1
 150 544 l 1,2,-1
 442 544 l 1,3,-1
 528 860 l 1,4,-1
 150 860 l 1,5,-1
 150 986 l 1,6,-1
 562 986 l 1,7,-1
 678 1418 l 1,8,-1
 794 1418 l 1,9,-1
 680 986 l 1,10,-1
 1054 986 l 1,11,-1
 1172 1418 l 1,12,-1
 1288 1418 l 1,13,-1
 1174 986 l 1,14,-1
 1392 986 l 1,15,-1
 1392 860 l 1,16,-1
 1140 860 l 1,17,-1
 1054 544 l 1,18,-1
 1392 544 l 1,19,-1
 1392 422 l 1,20,-1
 1022 422 l 1,21,-1
 910 0 l 1,22,-1
 790 0 l 1,23,-1
 904 422 l 1,24,-1
 528 422 l 1,25,-1
 416 0 l 1,26,-1
 296 0 l 1,27,-1
 410 422 l 1,0,-1
938 544 m 1,28,-1
 1022 860 l 1,29,-1
 646 860 l 1,30,-1
 562 544 l 1,31,-1
 938 544 l 1,28,-1
EndSplineSet
Validated: 1
Layer: 3
SplineSet
554 538 m 5,0,-1
 943 538 l 5,1,-1
 1030 866 l 5,2,-1
 641 866 l 5,3,-1
 554 538 l 5,0,-1
905 6 m 5,4,-1
 798 6 l 5,5,-1
 912 428 l 5,6,-1
 523 428 l 5,7,-1
 411 6 l 5,8,-1
 304 6 l 5,9,-1
 418 428 l 5,10,-1
 156 428 l 5,11,-1
 156 538 l 5,12,-1
 447 538 l 5,13,-1
 536 866 l 5,14,-1
 156 866 l 5,15,-1
 156 980 l 5,16,-1
 567 980 l 5,17,-1
 683 1412 l 5,18,-1
 786 1412 l 5,19,-1
 672 980 l 5,20,-1
 1059 980 l 5,21,-1
 1177 1412 l 5,22,-1
 1280 1412 l 5,23,-1
 1166 980 l 5,24,-1
 1386 980 l 5,25,-1
 1386 866 l 5,26,-1
 1135 866 l 5,27,-1
 1046 538 l 5,28,-1
 1386 538 l 5,29,-1
 1386 428 l 5,30,-1
 1017 428 l 5,31,-1
 905 6 l 5,4,-1
EndSplineSet
EndChar

StartChar: percent
Encoding: 37 37 5
Width: 1282
GlyphClass: 2
Flags: W
LayerCount: 4
Back
SplineSet
348 718 m 260,0,1
 270 718 270 718 217 751 c 132,-1,2
 164 784 164 784 131 838 c 132,-1,3
 98 892 98 892 84 958 c 132,-1,4
 70 1024 70 1024 70 1088 c 260,5,6
 70 1152 70 1152 84 1217 c 132,-1,7
 98 1282 98 1282 131 1335 c 132,-1,8
 164 1388 164 1388 217 1421 c 132,-1,9
 270 1454 270 1454 348 1454 c 260,10,11
 426 1454 426 1454 480 1421 c 132,-1,12
 534 1388 534 1388 567 1335 c 132,-1,13
 600 1282 600 1282 614 1216 c 132,-1,14
 628 1150 628 1150 628 1088 c 260,15,16
 628 1024 628 1024 614 958 c 132,-1,17
 600 892 600 892 567 838 c 132,-1,18
 534 784 534 784 480 751 c 132,-1,19
 426 718 426 718 348 718 c 260,0,1
1084 1412 m 5,20,-1
 1138 1332 l 5,21,-1
 208 22 l 5,22,-1
 154 100 l 5,23,-1
 1084 1412 l 5,20,-1
348 786 m 132,-1,25
 378 786 378 786 395 812 c 132,-1,26
 412 838 412 838 419 880 c 132,-1,27
 426 922 426 922 427 975 c 132,-1,28
 428 1028 428 1028 428 1088 c 4,29,30
 428 1146 428 1146 427 1199 c 132,-1,31
 426 1252 426 1252 419 1294 c 132,-1,32
 412 1336 412 1336 395 1361 c 132,-1,33
 378 1386 378 1386 348 1386 c 132,-1,35
 318 1386 318 1386 302 1361 c 132,-1,36
 286 1336 286 1336 278 1294 c 132,-1,37
 270 1252 270 1252 269 1198 c 132,-1,38
 268 1144 268 1144 268 1088 c 4,39,40
 268 1030 268 1030 269 976 c 132,-1,41
 270 922 270 922 278 880 c 132,-1,42
 286 838 286 838 302 812 c 132,-1,43
 318 786 318 786 348 786 c 132,-1,25
654 332 m 260,44,45
 654 396 654 396 668 461 c 132,-1,46
 682 526 682 526 715 579 c 132,-1,47
 748 632 748 632 801 665 c 132,-1,48
 854 698 854 698 932 698 c 260,49,50
 1010 698 1010 698 1063 665 c 132,-1,51
 1116 632 1116 632 1150 579 c 132,-1,52
 1184 526 1184 526 1198 461 c 132,-1,53
 1212 396 1212 396 1212 332 c 260,54,55
 1212 268 1212 268 1198 202 c 132,-1,56
 1184 136 1184 136 1150 82 c 132,-1,57
 1116 28 1116 28 1063 -5 c 132,-1,58
 1010 -38 1010 -38 932 -38 c 260,59,60
 854 -38 854 -38 801 -5 c 132,-1,61
 748 28 748 28 715 82 c 132,-1,62
 682 136 682 136 668 202 c 132,-1,63
 654 268 654 268 654 332 c 260,44,45
852 332 m 132,-1,65
 852 274 852 274 853 220 c 132,-1,66
 854 166 854 166 861 124 c 132,-1,67
 868 82 868 82 885 56 c 132,-1,68
 902 30 902 30 932 30 c 132,-1,70
 962 30 962 30 979 56 c 132,-1,71
 996 82 996 82 1003 124 c 132,-1,72
 1010 166 1010 166 1012 219 c 132,-1,73
 1014 272 1014 272 1014 332 c 4,74,75
 1014 390 1014 390 1012 443 c 132,-1,76
 1010 496 1010 496 1003 538 c 132,-1,77
 996 580 996 580 979 605 c 132,-1,78
 962 630 962 630 932 630 c 132,-1,80
 902 630 902 630 885 605 c 132,-1,81
 868 580 868 580 861 538 c 132,-1,82
 854 496 854 496 853 443 c 132,-1,83
 852 390 852 390 852 332 c 132,-1,65
EndSplineSet
Fore
SplineSet
480 751 m 0,0,1
 426 718 426 718 348 718 c 128,-1,2
 270 718 270 718 217 751 c 128,-1,3
 164 784 164 784 131 838 c 128,-1,4
 98 892 98 892 84 958 c 128,-1,5
 70 1024 70 1024 70 1088 c 128,-1,6
 70 1152 70 1152 84 1217 c 128,-1,7
 98 1282 98 1282 131 1335 c 128,-1,8
 164 1388 164 1388 217 1421 c 128,-1,9
 270 1454 270 1454 348 1454 c 0,10,11
 503 1454 503 1454 578 1317 c 0,12,13
 628 1224 628 1224 628 1088 c 0,14,15
 628 841 628 841 480 751 c 0,0,1
154 100 m 1,16,-1
 1084 1412 l 1,17,-1
 1138 1332 l 1,18,-1
 208 22 l 1,19,-1
 154 100 l 1,16,-1
302 812 m 128,-1,21
 318 786 318 786 348 786 c 0,22,23
 403 786 403 786 419 880 c 0,24,25
 430 942 430 942 430 1051 c 0,26,27
 430 1231 430 1231 419 1294 c 0,28,29
 412 1336 412 1336 395 1361 c 128,-1,30
 378 1386 378 1386 348 1386 c 0,31,32
 276 1386 276 1386 269 1197 c 0,33,34
 267 1120 267 1120 267 1062 c 0,35,36
 267 934 267 934 275 894 c 0,37,20
 286 838 286 838 302 812 c 128,-1,21
668 202 m 128,-1,39
 654 268 654 268 654 332 c 128,-1,40
 654 396 654 396 668 461 c 128,-1,41
 682 526 682 526 715 579 c 128,-1,42
 748 632 748 632 801 665 c 128,-1,43
 854 698 854 698 932 698 c 128,-1,44
 1010 698 1010 698 1063 665 c 128,-1,45
 1116 632 1116 632 1150 579 c 128,-1,46
 1184 526 1184 526 1198 461 c 128,-1,47
 1212 396 1212 396 1212 332 c 128,-1,48
 1212 268 1212 268 1198 202 c 128,-1,49
 1184 136 1184 136 1150 82 c 128,-1,50
 1116 28 1116 28 1063 -5 c 128,-1,51
 1010 -38 1010 -38 932 -38 c 128,-1,52
 854 -38 854 -38 801 -5 c 128,-1,53
 748 28 748 28 715 82 c 128,-1,38
 682 136 682 136 668 202 c 128,-1,39
932 630 m 0,54,55
 857 630 857 630 853 443 c 0,56,57
 852 390 852 390 852 332 c 128,-1,58
 852 274 852 274 853 220 c 128,-1,59
 854 166 854 166 861 124 c 128,-1,60
 868 82 868 82 885 56 c 128,-1,61
 902 30 902 30 932 30 c 128,-1,62
 962 30 962 30 979 56 c 0,63,64
 1007 100 1007 100 1011 182 c 0,65,66
 1015 294 1015 294 1015 371 c 0,67,68
 1014 468 1014 468 1008 508 c 0,69,70
 996 580 996 580 979 605 c 128,-1,71
 962 630 962 630 932 630 c 0,54,55
788 251 m 1,72,-1
 733 210 l 1,73,74
 740 179 740 179 752 151 c 1,75,-1
 790 179 l 1,76,77
 789 202 789 202 788 251 c 1,72,-1
787 303 m 1,78,79
 754 279 754 279 724 258 c 1,80,81
 727 238 727 238 731 219 c 1,82,-1
 787 261 l 1,83,84
 787 282 787 282 787 303 c 1,78,79
787 312 m 1,85,86
 787 322 787 322 787 334 c 128,-1,87
 787 346 787 346 787 359 c 1,88,-1
 719 313 l 1,89,90
 720 290 720 290 723 266 c 1,91,92
 757 290 757 290 787 312 c 1,85,86
795 129 m 1,93,-1
 772 113 l 1,94,95
 783 95 783 95 797 81 c 1,96,-1
 803 85 l 1,97,98
 798 104 798 104 795 129 c 1,93,-1
790 171 m 1,99,-1
 755 145 l 1,100,101
 761 132 761 132 768 119 c 1,102,-1
 793 138 l 1,103,104
 791 154 791 154 790 171 c 1,99,-1
805 77 m 1,105,-1
 803 76 l 1,106,107
 805 74 805 74 807 72 c 1,108,109
 806 74 806 74 805 77 c 1,105,-1
719 321 m 1,110,-1
 787 368 l 1,111,112
 787 427 787 427 788 455 c 1,113,-1
 725 409 l 1,114,115
 719 371 719 371 719 348.5 c 128,-1,116
 719 326 719 326 719 321 c 1,110,-1
726 419 m 1,117,-1
 789 465 l 1,118,119
 790 493 790 493 793 518 c 1,120,-1
 790 516 l 1,121,-1
 738 473 l 1,122,123
 731 449 731 449 726 419 c 1,117,-1
743 488 m 1,124,-1
 784 522 l 1,125,-1
 794 530 l 1,126,127
 798 563 798 563 806 587 c 1,128,129
 768 559 768 559 743 488 c 1,124,-1
1070 577 m 1,130,131
 1064 583 1064 583 1058 588 c 1,132,133
 1060 580 1060 580 1063 572 c 1,134,-1
 1070 577 l 1,130,131
1075 571 m 1,135,-1
 1064 563 l 1,136,137
 1068 545 1068 545 1071 520 c 1,138,139
 1085 531 1085 531 1098 540 c 1,140,141
 1088 557 1088 557 1075 571 c 1,135,-1
1119 496 m 1,142,-1
 1076 465 l 1,143,144
 1077 438 1077 438 1078 393 c 1,145,-1
 1137 436 l 1,146,147
 1130 469 1130 469 1119 496 c 1,142,-1
1117 503 m 1,148,149
 1110 518 1110 518 1102 533 c 1,150,-1
 1072 511 l 1,151,152
 1074 493 1074 493 1076 473 c 1,153,-1
 1117 503 l 1,148,149
1143 394 m 1,154,155
 1141 412 1141 412 1138 429 c 1,156,-1
 1079 385 l 1,157,158
 1079 366 1079 366 1079 346 c 1,159,-1
 1143 394 l 1,154,155
1147 338 m 1,160,161
 1147 362 1147 362 1144 385 c 1,162,-1
 1079 337 l 1,163,164
 1079 334 1079 334 1079 321.5 c 128,-1,165
 1079 309 1079 309 1079 288 c 1,166,-1
 1147 338 l 1,160,161
1146 304 m 1,167,168
 1147 317 1147 317 1147 329 c 1,169,-1
 1079 279 l 1,170,171
 1079 266 1079 266 1078 253 c 1,172,-1
 1146 304 l 1,167,168
1143 269 m 1,173,174
 1144 282 1144 282 1146 294 c 1,175,-1
 1078 244 l 1,176,177
 1078 234 1078 234 1077 224 c 1,178,-1
 1143 269 l 1,173,174
1142 259 m 1,179,-1
 1077 215 l 1,180,181
 1076 181 1076 181 1072 151 c 1,182,-1
 1129 192 l 1,183,184
 1137 222 1137 222 1142 259 c 1,179,-1
1125 181 m 1,185,-1
 1071 141 l 1,186,187
 1066 99 1066 99 1057 72 c 1,188,189
 1103 113 1103 113 1125 181 c 1,185,-1
202 849 m 1,190,191
 212 836 212 836 225 826 c 1,192,193
 220 842 220 842 216 860 c 1,194,-1
 202 849 l 1,190,191
198 855 m 1,195,-1
 214 868 l 1,196,197
 208 901 208 901 206 936 c 1,198,-1
 168 909 l 1,199,200
 181 878 181 878 198 855 c 1,195,-1
165 916 m 1,201,202
 185 930 185 930 205 945 c 1,203,204
 204 970 204 970 203 1045 c 1,205,-1
 142 1000 l 1,206,207
 151 952 151 952 165 916 c 1,201,202
136 1063 m 1,208,209
 137 1036 137 1036 141 1008 c 1,210,-1
 203 1054 l 1,211,212
 203 1071 203 1071 203 1086.5 c 128,-1,213
 203 1102 203 1102 203 1117 c 1,214,-1
 136 1063 l 1,208,209
135 1072 m 1,215,-1
 203 1126 l 1,216,217
 203 1200 203 1200 205 1226 c 1,218,-1
 142 1176 l 1,219,220
 135 1133 135 1133 135 1091 c 0,221,222
 135 1081 135 1081 135 1072 c 1,215,-1
144 1187 m 1,223,-1
 205 1236 l 1,224,225
 206 1260 206 1260 210 1281 c 1,226,-1
 158 1239 l 1,227,228
 149 1216 149 1216 144 1187 c 1,223,-1
162 1253 m 1,229,-1
 212 1292 l 1,230,231
 217 1321 217 1321 224 1345 c 1,232,233
 184 1310 184 1310 162 1253 c 1,229,-1
476 1344 m 1,234,-1
 474 1343 l 1,235,236
 483 1312 483 1312 488 1265 c 1,237,-1
 491 1267 l 1,238,-1
 517 1293 l 1,239,240
 500 1323 500 1323 476 1344 c 1,234,-1
521 1285 m 1,241,242
 496 1261 496 1261 489 1256 c 1,243,244
 491 1228 491 1228 492 1183 c 1,245,-1
 544 1228 l 1,246,247
 535 1259 535 1259 521 1285 c 1,241,242
546 1219 m 1,248,-1
 492 1172 l 1,249,250
 492 1142 492 1142 493 1110 c 1,251,-1
 556 1170 l 1,252,253
 552 1197 552 1197 546 1219 c 1,248,-1
558 1158 m 1,254,255
 522 1123 522 1123 493 1096 c 0,256,257
 493 1092 493 1092 493 1075 c 128,-1,258
 493 1058 493 1058 493 1031 c 1,259,260
 515 1048 515 1048 544 1066 c 1,261,-1
 563 1083 l 1,262,263
 563 1122 563 1122 558 1158 c 1,254,255
563 1073 m 1,264,-1
 549 1060 l 1,265,-1
 493 1014 l 1,266,267
 492 947 492 947 489 915 c 1,268,269
 519 938 519 938 548 962 c 1,270,271
 561 1016 561 1016 563 1073 c 1,264,-1
545 950 m 1,272,-1
 488 906 l 1,273,274
 483 858 483 858 473 826 c 1,275,276
 523 870 523 870 545 950 c 1,272,-1
EndSplineSet
Validated: 3073
Layer: 3
SplineSet
846 332 m 132,-1,0
 846 274 846 274 847 219.5 c 132,-1,1
 848 165 848 165 855 122.5 c 132,-1,2
 862 80 862 80 880.5 52 c 132,-1,3
 899 24 899 24 932 24 c 132,-1,4
 965 24 965 24 984 53 c 4,5,6
 1002 80 1002 80 1009 123 c 132,-1,7
 1016 166 1016 166 1018 219 c 4,8,9
 1022 331 1022 331 1018 443 c 4,10,11
 1016 497 1016 497 1009 539.5 c 132,-1,12
 1002 582 1002 582 983.5 609 c 132,-1,13
 965 636 965 636 932 636 c 132,-1,14
 899 636 899 636 880 608 c 4,15,16
 862 582 862 582 855 539.5 c 132,-1,17
 848 497 848 497 847 443.5 c 132,-1,18
 846 390 846 390 846 332 c 132,-1,0
660 332 m 132,-1,18
 660 395 660 395 674 459.5 c 132,-1,19
 688 524 688 524 720 576 c 132,-1,20
 752 628 752 628 804 660 c 132,-1,21
 856 692 856 692 932 692 c 132,-1,22
 1008 692 1008 692 1060 660 c 132,-1,23
 1112 628 1112 628 1145 576 c 132,-1,24
 1178 524 1178 524 1192 459.5 c 132,-1,25
 1206 395 1206 395 1206 332 c 132,-1,26
 1206 269 1206 269 1192 203.5 c 132,-1,27
 1178 138 1178 138 1145 85 c 132,-1,28
 1112 32 1112 32 1060 0 c 132,-1,29
 1008 -32 1008 -32 932 -32 c 132,-1,30
 856 -32 856 -32 804 0 c 132,-1,31
 752 32 752 32 720 85 c 132,-1,32
 688 138 688 138 674 203.5 c 132,-1,33
 660 269 660 269 660 332 c 132,-1,18
433 1199 m 4,33,34
 432 1252 432 1252 425 1295 c 132,-1,35
 418 1338 418 1338 399.5 1365 c 132,-1,36
 381 1392 381 1392 348 1392 c 132,-1,37
 315 1392 315 1392 297 1364 c 4,38,39
 265 1314 265 1314 263 1198 c 4,40,41
 261 1087 261 1087 263 976 c 4,42,43
 265 861 265 861 297 808 c 4,44,45
 314 780 314 780 348 780 c 4,46,47
 381 780 381 780 399.5 808 c 132,-1,48
 418 836 418 836 425 879 c 132,-1,49
 432 922 432 922 433 975 c 4,50,51
 435 1087 435 1087 433 1199 c 4,33,34
348 724 m 132,-1,52
 272 724 272 724 220 756 c 132,-1,53
 168 788 168 788 136 841 c 132,-1,54
 104 894 104 894 90 959.5 c 132,-1,55
 76 1025 76 1025 76 1088 c 132,-1,56
 76 1151 76 1151 90 1215.5 c 132,-1,57
 104 1280 104 1280 136 1332 c 132,-1,58
 168 1384 168 1384 220 1416 c 132,-1,59
 272 1448 272 1448 348 1448 c 132,-1,60
 424 1448 424 1448 477 1416 c 132,-1,61
 530 1384 530 1384 562 1332 c 132,-1,62
 594 1280 594 1280 608 1214.5 c 132,-1,63
 622 1149 622 1149 622 1087 c 132,-1,64
 622 1025 622 1025 608 959.5 c 132,-1,65
 594 894 594 894 562 841 c 132,-1,66
 530 788 530 788 477 756 c 132,-1,67
 424 724 424 724 348 724 c 132,-1,52
208 32 m 5,67,-1
 161 100 l 5,68,-1
 1084 1401 l 5,69,-1
 1131 1332 l 5,70,-1
 208 32 l 5,67,-1
EndSplineSet
EndChar

StartChar: ampersand
Encoding: 38 38 6
Width: 1370
GlyphClass: 2
Flags: W
LayerCount: 4
Back
SplineSet
66 296 m 4,0,1
 66 372 66 372 86 434 c 132,-1,2
 106 496 106 496 144 546 c 132,-1,3
 182 596 182 596 233 634 c 132,-1,4
 284 672 284 672 346 702 c 5,5,6
 320 748 320 748 300 790 c 132,-1,7
 280 832 280 832 267 874 c 132,-1,8
 254 916 254 916 247 959 c 132,-1,9
 240 1002 240 1002 240 1048 c 4,10,11
 240 1128 240 1128 263 1201 c 132,-1,12
 286 1274 286 1274 331 1330 c 132,-1,13
 376 1386 376 1386 443 1420 c 132,-1,14
 510 1454 510 1454 596 1454 c 4,15,16
 634 1454 634 1454 673 1451 c 132,-1,17
 712 1448 712 1448 750 1436 c 132,-1,18
 788 1424 788 1424 821 1403 c 132,-1,19
 854 1382 854 1382 880 1349 c 132,-1,20
 906 1316 906 1316 920 1270 c 132,-1,21
 934 1224 934 1224 934 1162 c 4,22,23
 934 1104 934 1104 922 1055 c 132,-1,24
 910 1006 910 1006 887 966 c 132,-1,25
 864 926 864 926 833 893 c 132,-1,26
 802 860 802 860 766 834 c 5,27,28
 816 748 816 748 864 672 c 132,-1,29
 912 596 912 596 958 530 c 5,30,-1
 1034 694 l 6,31,32
 1036 700 1036 700 1036 710 c 4,33,34
 1036 722 1036 722 1027 732 c 132,-1,35
 1018 742 1018 742 1001 747 c 132,-1,36
 984 752 984 752 960 755 c 132,-1,37
 936 758 936 758 908 758 c 5,38,-1
 908 830 l 5,39,-1
 1246 830 l 5,40,-1
 1246 758 l 5,41,42
 1214 758 1214 758 1192 754 c 132,-1,43
 1170 750 1170 750 1155 741 c 132,-1,44
 1140 732 1140 732 1130 720 c 132,-1,45
 1120 708 1120 708 1114 694 c 4,46,47
 1086 636 1086 636 1059 580 c 132,-1,48
 1032 524 1032 524 1006 468 c 5,49,50
 1030 438 1030 438 1051 414 c 132,-1,51
 1072 390 1072 390 1091 373 c 132,-1,52
 1110 356 1110 356 1130 347 c 132,-1,53
 1150 338 1150 338 1172 338 c 4,54,55
 1210 338 1210 338 1234 372 c 132,-1,56
 1258 406 1258 406 1258 474 c 5,57,-1
 1304 474 l 5,58,59
 1310 402 1310 402 1310 344 c 4,60,61
 1310 242 1310 242 1289 169 c 132,-1,62
 1268 96 1268 96 1228 50 c 132,-1,63
 1188 4 1188 4 1131 -17 c 132,-1,64
 1074 -38 1074 -38 1000 -38 c 4,65,66
 936 -38 936 -38 882 -15 c 132,-1,67
 828 8 828 8 772 62 c 5,68,69
 748 40 748 40 717 21 c 132,-1,70
 686 2 686 2 648 -11 c 132,-1,71
 610 -24 610 -24 563 -31 c 132,-1,72
 516 -38 516 -38 458 -38 c 4,73,74
 368 -38 368 -38 296 -18 c 132,-1,75
 224 2 224 2 172 44 c 132,-1,76
 120 86 120 86 93 148 c 132,-1,77
 66 210 66 210 66 296 c 4,0,1
736 884 m 5,78,79
 760 914 760 914 779 953 c 132,-1,80
 798 992 798 992 812 1033 c 132,-1,81
 826 1074 826 1074 834 1117 c 132,-1,82
 842 1160 842 1160 842 1202 c 4,83,84
 842 1234 842 1234 835 1263 c 132,-1,85
 828 1292 828 1292 815 1315 c 132,-1,86
 802 1338 802 1338 784 1350 c 132,-1,87
 766 1362 766 1362 742 1362 c 4,88,89
 724 1362 724 1362 706 1349 c 132,-1,90
 688 1336 688 1336 676 1313 c 132,-1,91
 664 1290 664 1290 656 1259 c 132,-1,92
 648 1228 648 1228 648 1194 c 4,93,94
 648 1108 648 1108 672 1029 c 132,-1,95
 696 950 696 950 736 884 c 5,78,79
350 528 m 4,96,97
 350 484 350 484 363 437 c 132,-1,98
 376 390 376 390 398 340 c 132,-1,99
 420 290 420 290 448 245 c 132,-1,100
 476 200 476 200 506 166 c 132,-1,101
 536 132 536 132 567 110 c 132,-1,102
 598 88 598 88 626 88 c 260,103,104
 652 88 652 88 675 96 c 132,-1,105
 698 104 698 104 718 118 c 5,106,107
 686 158 686 158 650 209 c 132,-1,108
 614 260 614 260 573 324 c 132,-1,109
 532 388 532 388 486 465 c 132,-1,110
 440 542 440 542 388 632 c 5,111,112
 370 612 370 612 360 586 c 132,-1,113
 350 560 350 560 350 528 c 4,96,97
EndSplineSet
Fore
SplineSet
772 62 m 1,0,1
 663 -38 663 -38 458 -38 c 0,2,3
 174 -38 174 -38 93 148 c 0,4,5
 66 210 66 210 66 296 c 0,6,7
 66 567 66 567 346 702 c 1,8,9
 240 890 240 890 240 1053 c 0,10,11
 240 1222 240 1222 337.5 1338 c 128,-1,12
 435 1454 435 1454 596 1454 c 0,13,14
 934 1454 934 1454 934 1162 c 0,15,16
 934 955 934 955 766 834 c 1,17,18
 866 662 866 662 958 530 c 1,19,-1
 1034 694 l 2,20,21
 1036 700 1036 700 1036 710 c 0,22,23
 1036 758 1036 758 908 758 c 1,24,-1
 908 830 l 1,25,-1
 1246 830 l 1,26,-1
 1246 758 l 1,27,28
 1188 758 1188 758 1160 744 c 0,29,30
 1126 723 1126 723 1106 679.5 c 128,-1,31
 1086 636 1086 636 1059 580 c 128,-1,32
 1032 524 1032 524 1006 468 c 1,33,34
 1088 366 1088 366 1130 347 c 0,35,36
 1148 339 1148 339 1179.5 339 c 128,-1,37
 1211 339 1211 339 1234.5 372.5 c 128,-1,38
 1258 406 1258 406 1258 474 c 1,39,-1
 1304 474 l 1,40,41
 1310 402 1310 402 1310 371 c 128,-1,42
 1310 340 1310 340 1310 334 c 2,43,44
 1310 334 1310 334 1310 288 c 128,-1,45
 1310 242 1310 242 1289 169 c 128,-1,46
 1268 96 1268 96 1241.5 66 c 128,-1,47
 1215 36 1215 36 1201 24 c 0,48,49
 1128 -38 1128 -38 1000 -38 c 128,-1,50
 872 -38 872 -38 772 62 c 1,0,1
706 1349 m 0,51,52
 649 1308 649 1308 649 1167 c 0,53,54
 650 1026 650 1026 736 884 c 1,55,56
 807 973 807 973 834 1117 c 0,57,58
 842 1161 842 1161 842 1198 c 0,59,60
 842 1267 842 1267 815 1315 c 0,61,62
 788 1362 788 1362 742 1362 c 0,63,64
 724 1362 724 1362 706 1349 c 0,51,52
388 632 m 1,65,66
 350 591 350 591 350 523 c 0,67,68
 350 448 350 448 398 340 c 0,69,70
 473 169 473 169 574 105 c 0,71,72
 603 87 603 87 634 87 c 0,73,74
 675 87 675 87 718 118 c 1,75,76
 620 240 620 240 563.5 335 c 128,-1,77
 507 430 507 430 496.5 447.5 c 128,-1,78
 486 465 486 465 463 503.5 c 128,-1,79
 440 542 440 542 388 632 c 1,65,66
410 185 m 1,80,81
 399 200 399 200 389 217 c 1,82,-1
 300 157 l 1,83,-1
 213 95 l 1,84,85
 231 80 231 80 252 69 c 1,86,-1
 410 185 l 1,80,81
366 258 m 1,87,-1
 184 122 l 1,88,89
 194 110 194 110 207 100 c 1,90,91
 267 143 267 143 296 163 c 2,92,-1
 385 223 l 1,93,94
 375 240 375 240 366 258 c 1,87,-1
362 264 m 1,95,96
 353 281 353 281 345 298 c 1,97,-1
 160 159 l 1,98,99
 169 142 169 142 180 128 c 1,100,-1
 362 264 l 1,95,96
342 305 m 1,101,102
 335 321 335 321 328 338 c 1,103,-1
 143 201 l 1,104,105
 148 183 148 183 157 166 c 1,106,-1
 342 305 l 1,101,102
567 36 m 1,107,108
 547 44 547 44 527 58 c 1,109,-1
 485 27 l 1,110,111
 529 29 529 29 567 36 c 1,107,108
450 132 m 1,112,113
 432 154 432 154 414 179 c 1,114,-1
 259 65 l 1,115,116
 289 50 289 50 326 41 c 1,117,-1
 362 69 l 1,118,-1
 450 132 l 1,112,113
521 63 m 1,119,120
 505 75 505 75 490 89 c 1,121,122
 440 53 440 53 406 29 c 1,123,124
 437 27 437 27 472 27 c 1,125,-1
 521 63 l 1,119,120
455 126 m 1,126,-1
 366 63 l 1,127,-1
 336 39 l 1,128,129
 364 33 364 33 395 30 c 1,130,-1
 425 51 l 2,131,132
 456 73 456 73 485 94 c 1,133,134
 470 109 470 109 455 126 c 1,126,-1
141 208 m 1,135,-1
 325 346 l 1,136,137
 319 360 319 360 315 374 c 1,138,-1
 271 343 l 1,139,-1
 133 252 l 1,140,141
 135 229 135 229 141 208 c 1,135,-1
132 260 m 1,142,-1
 267 349 l 1,143,-1
 312 381 l 1,144,145
 303 409 303 409 297 432 c 1,146,-1
 171 338 l 1,147,-1
 131 308 l 1,148,149
 131 301 131 301 131 288.5 c 128,-1,150
 131 276 131 276 132 260 c 1,142,-1
132 317 m 1,151,-1
 167 344 l 1,152,-1
 295 440 l 1,153,154
 289 468 289 468 286 494 c 1,155,-1
 142 395 l 1,156,157
 134 360 134 360 132 317 c 1,151,-1
145 406 m 1,158,-1
 286 503 l 1,159,160
 285 514 285 514 285 530.5 c 128,-1,161
 285 547 285 547 288 568 c 1,162,163
 242 536 242 536 191 500 c 1,164,165
 160 457 160 457 145 406 c 1,158,-1
206 520 m 1,166,-1
 290 578 l 1,167,168
 292 589 292 589 296 599 c 1,169,170
 241 563 241 563 206 520 c 1,166,-1
590 1097 m 1,171,-1
 549 1060 l 1,172,-1
 442 973 l 1,173,-1
 341 859 l 1,174,175
 349 838 349 838 360 815 c 1,176,177
 468 899 468 899 576 984 c 1,178,-1
 608 1015 l 1,179,180
 596 1055 596 1055 590 1097 c 1,171,-1
583 1182 m 1,181,182
 408 1013 408 1013 376 988 c 2,183,-1
 317 940 l 1,184,185
 325 904 325 904 338 868 c 1,186,-1
 436 979 l 17,187,188
 436 979 436 979 544 1066 c 1,189,-1
 589 1107 l 1,190,191
 584 1144 584 1144 583 1182 c 1,181,182
677 856 m 1,192,193
 662 882 662 882 649 910 c 1,194,-1
 622 883 l 1,195,-1
 616 889 l 1,196,197
 635 908 635 908 645 918 c 1,198,199
 635 939 635 939 627 961 c 1,200,201
 553 854 553 854 551 853 c 1,202,-1
 396 745 l 1,203,204
 396 745 396 745 436 679 c 1,205,-1
 602 799 l 1,206,-1
 677 856 l 1,192,193
681 850 m 1,207,-1
 606 793 l 2,208,209
 520 728 520 728 439 673 c 1,210,211
 452 651 452 651 465 629 c 1,212,213
 584 720 584 720 704 812 c 1,214,215
 699 821 699 821 693 830.5 c 128,-1,216
 687 840 687 840 681 850 c 1,207,-1
611 1006 m 1,217,218
 584 980 584 980 581 978 c 2,219,-1
 363 809 l 1,220,221
 377 781 377 781 393 751 c 1,222,-1
 546 859 l 1,223,224
 602 939 602 939 623 970 c 1,225,226
 617 987 617 987 611 1006 c 1,217,218
708 805 m 1,227,-1
 468 623 l 1,228,229
 481 600 481 600 494 579 c 1,230,-1
 567 629 l 1,231,-1
 735 758 l 1,232,233
 722 781 722 781 708 805 c 1,227,-1
618 374 m 1,234,235
 626 362 626 362 633 350 c 1,236,-1
 878 532 l 1,237,238
 866 550 866 550 854 568 c 1,239,-1
 790 516 l 1,240,-1
 694 436 l 1,241,-1
 618 374 l 1,234,235
882 526 m 1,242,-1
 637 344 l 1,243,244
 655 316 655 316 673 290 c 1,245,-1
 832 399 l 1,246,-1
 923 467 l 1,247,248
 903 496 903 496 882 526 c 1,242,-1
830 605 m 1,249,-1
 587 423 l 1,250,251
 601 400 601 400 614 381 c 1,252,-1
 784 522 l 1,253,-1
 850 575 l 1,254,255
 840 590 840 590 830 605 c 1,249,-1
804 645 m 1,256,-1
 563 463 l 1,257,258
 573 446 573 446 583 430 c 1,259,-1
 826 611 l 1,260,261
 815 628 815 628 804 645 c 1,256,-1
783 679 m 1,262,-1
 542 498 l 1,263,264
 551 483 551 483 559 470 c 1,265,-1
 800 651 l 1,266,267
 792 665 792 665 783 679 c 1,262,-1
768 703 m 1,268,269
 699 651 699 651 596 573 c 1,270,-1
 527 524 l 1,271,272
 533 514 533 514 538 504 c 1,273,-1
 779 685 l 1,274,275
 773 694 773 694 768 703 c 1,268,269
739 752 m 1,276,-1
 571 623 l 1,277,-1
 498 573 l 1,278,279
 511 551 511 551 523 530 c 1,280,-1
 592 579 l 1,281,-1
 765 709 l 1,282,283
 752 730 752 730 739 752 c 1,276,-1
950 430 m 1,284,285
 939 445 939 445 927 461 c 1,286,287
 887 431 887 431 836 393 c 1,288,-1
 677 284 l 1,289,290
 689 267 689 267 701 250 c 1,291,292
 882 381 882 381 950 430 c 1,284,285
954 424 m 1,293,294
 813 322 813 322 705 244 c 1,295,296
 716 229 716 229 726 215 c 1,297,-1
 977 400 l 1,298,299
 975 403 975 403 972 406 c 1,300,-1
 970 402 l 1,301,302
 962 413 962 413 954 424 c 1,293,294
1021 351 m 1,303,304
 1007 365 1007 365 982 394 c 1,305,-1
 731 208 l 1,306,307
 749 183 749 183 767 162 c 1,308,-1
 1021 351 l 1,303,304
1048 324 m 1,309,310
 1036 334 1036 334 1025 346 c 1,311,-1
 773 158 l 1,312,313
 782 147 782 147 791 136 c 1,314,-1
 1048 324 l 1,309,310
1117 282 m 1,315,316
 1107 285 1107 285 1096 291 c 1,317,-1
 830 96 l 1,318,319
 838 88 838 88 847 82 c 1,320,-1
 1117 282 l 1,315,316
796 130 m 1,321,322
 810 115 810 115 825 101 c 1,323,-1
 1089 295 l 1,324,325
 1071 305 1071 305 1054 319 c 1,326,-1
 796 130 l 1,321,322
1126 279 m 1,327,-1
 853 78 l 1,328,329
 860 73 860 73 867 68 c 1,330,-1
 967 149 l 1,331,-1
 1152 274 l 1,332,333
 1139 275 1139 275 1126 279 c 1,327,-1
873 63 m 1,334,335
 900 45 900 45 930 37 c 1,336,-1
 1036 124 l 1,337,-1
 1222 262 l 1,338,-1
 1242 275 l 1,339,340
 1243 284 1243 284 1243 293 c 1,341,342
 1211 273 1211 273 1189.5 273 c 128,-1,343
 1168 273 1168 273 1163 273 c 1,344,-1
 971 143 l 1,345,-1
 873 63 l 1,334,335
1241 264 m 1,346,347
 1233 260 1233 260 1226 256 c 1,348,-1
 1040 118 l 1,349,-1
 938 34 l 1,350,351
 965 27 965 27 999 27 c 0,352,353
 1010 27 1010 27 1022 28 c 1,354,-1
 1037 39 l 1,355,-1
 1220 167 l 1,356,357
 1235 209 1235 209 1241 264 c 1,346,347
1216 155 m 1,358,359
 1048 38 1048 38 1035 28 c 1,360,361
 1170 40 1170 40 1216 155 c 1,358,359
306 1010 m 1,362,363
 308 979 308 979 315 948 c 1,364,365
 343 971 343 971 371 994 c 1,366,-1
 583 1196 l 1,367,368
 583 1227 583 1227 589 1256 c 1,369,-1
 306 1010 l 1,362,363
306 1019 m 1,370,-1
 592 1270 l 1,371,372
 611 1348 611 1348 651 1387 c 1,373,374
 636 1388 636 1388 621 1389 c 1,375,-1
 607 1371 l 1,376,377
 499 1263 499 1263 496 1261 c 2,378,-1
 341 1151 l 1,379,-1
 312 1128 l 1,380,381
 305 1089 305 1089 305 1061.5 c 128,-1,382
 305 1034 305 1034 306 1019 c 1,370,-1
314 1139 m 1,383,384
 337 1157 337 1157 491 1267 c 1,385,-1
 601 1377 l 1,386,-1
 611 1389 l 1,387,388
 607 1389 607 1389 603 1389 c 0,389,390
 545 1389 545 1389 503 1375 c 1,391,-1
 381 1236 l 1,392,-1
 333 1205 l 1,393,394
 321 1174 321 1174 314 1139 c 1,383,384
338 1217 m 1,395,-1
 376 1242 l 1,396,-1
 486 1369 l 1,397,398
 385 1326 385 1326 338 1217 c 1,395,-1
EndSplineSet
Validated: 3073
Layer: 3
SplineSet
344 528 m 4,0,1
 344 483 344 483 357 435.5 c 132,-1,2
 370 388 370 388 392.5 337.5 c 132,-1,3
 415 287 415 287 443 242 c 4,4,5
 500 150 500 150 564 105 c 4,6,7
 596 82 596 82 626 82 c 4,8,9
 677 82 677 82 721 113 c 6,10,-1
 727 117 l 5,11,12
 657 203 657 203 578 327 c 4,13,14
 506 439 506 439 389 642 c 5,15,-1
 384 636 l 6,16,17
 344 592 344 592 344 528 c 4,0,1
642 1194 m 4,18,19
 642 1107 642 1107 666.5 1027.5 c 132,-1,20
 691 948 691 948 731 881 c 6,21,-1
 735 874 l 5,22,-1
 741 880 l 6,23,24
 785 936 785 936 818 1031 c 4,25,26
 848 1120 848 1120 848 1202 c 4,27,28
 848 1269 848 1269 820 1318 c 4,29,30
 792 1368 792 1368 742 1368 c 4,31,32
 722 1368 722 1368 702 1354 c 4,33,34
 668 1329 668 1329 650 1261 c 4,35,36
 642 1229 642 1229 642 1194 c 4,18,19
72 296 m 4,37,38
 72 371 72 371 92 432 c 4,39,40
 120 519 120 519 188 587 c 4,41,42
 249 648 249 648 354 699 c 5,43,44
 325 751 325 751 305 793 c 4,45,46
 246 917 246 917 246 1048 c 4,47,48
 246 1127 246 1127 268.5 1199 c 132,-1,49
 291 1271 291 1271 335.5 1326 c 132,-1,50
 380 1381 380 1381 445.5 1414.5 c 132,-1,51
 511 1448 511 1448 596 1448 c 4,52,53
 634 1448 634 1448 672.5 1445 c 132,-1,54
 711 1442 711 1442 748 1430 c 4,55,56
 828 1405 828 1405 875 1345 c 4,57,58
 928 1278 928 1278 928 1162 c 4,59,60
 928 1049 928 1049 882 969 c 4,61,62
 859 930 859 930 828.5 897.5 c 132,-1,63
 798 865 798 865 758 836 c 5,64,65
 861 659 861 659 959 518 c 5,66,-1
 1039 691 l 6,67,68
 1042 697 1042 697 1042 712 c 4,69,70
 1042 724 1042 724 1032 736 c 132,-1,71
 1022 748 1022 748 1003 753 c 4,72,73
 967 763 967 763 914 764 c 5,74,-1
 914 824 l 5,75,-1
 1240 824 l 5,76,-1
 1240 764 l 5,77,78
 1211 764 1211 764 1189.5 760 c 132,-1,79
 1168 756 1168 756 1152 746 c 4,80,81
 1123 728 1123 728 1109 696 c 4,82,83
 1108 696 1108 696 999 467 c 5,84,85
 1055 398 1055 398 1087 369 c 4,86,87
 1128 332 1128 332 1172 332 c 4,88,89
 1205 332 1205 332 1228 355 c 4,90,91
 1263 390 1263 390 1264 468 c 5,92,-1
 1298 468 l 5,93,94
 1304 400 1304 400 1304 344 c 4,95,96
 1304 243 1304 243 1283 171 c 4,97,98
 1243 31 1243 31 1129 -11 c 4,99,100
 1073 -32 1073 -32 1000 -32 c 4,101,102
 937 -32 937 -32 884 -10 c 4,103,104
 828 14 828 14 776 66 c 6,105,-1
 772 70 l 5,106,107
 745 45 745 45 714 26 c 4,108,109
 619 -32 619 -32 458 -32 c 4,110,111
 276 -32 276 -32 176 49 c 4,112,113
 125 90 125 90 98.5 150.5 c 132,-1,114
 72 211 72 211 72 296 c 4,37,38
EndSplineSet
EndChar

StartChar: quotesingle
Encoding: 39 39 7
Width: 434
GlyphClass: 2
Flags: W
LayerCount: 4
Back
SplineSet
192 1122 m 5,0,1
 182 1238 182 1238 174 1262 c 4,2,3
 158 1334 158 1334 152 1360 c 4,4,5
 142 1396 142 1396 133 1431 c 132,-1,6
 124 1466 124 1466 116 1500 c 132,-1,7
 108 1534 108 1534 104 1564 c 132,-1,8
 100 1594 100 1594 100 1620 c 4,9,10
 100 1644 100 1644 110 1664 c 132,-1,11
 120 1684 120 1684 137 1697 c 132,-1,12
 154 1710 154 1710 175 1718 c 132,-1,13
 196 1726 196 1726 218 1726 c 260,14,15
 240 1726 240 1726 260 1718 c 132,-1,16
 280 1710 280 1710 297 1697 c 132,-1,17
 314 1684 314 1684 325 1664 c 132,-1,18
 336 1644 336 1644 336 1620 c 4,19,20
 336 1594 336 1594 331 1564 c 132,-1,21
 326 1534 326 1534 318 1500 c 4,22,23
 312 1468 312 1468 302 1430 c 4,24,25
 292 1396 292 1396 282 1360 c 4,26,27
 270 1312 270 1312 260 1237 c 132,-1,28
 250 1162 250 1162 244 1122 c 5,29,-1
 192 1122 l 5,0,1
EndSplineSet
Fore
SplineSet
244 1122 m 1,0,-1
 192 1122 l 1,1,2
 182 1238 182 1238 173 1272.5 c 128,-1,3
 164 1307 164 1307 159 1329 c 128,-1,4
 154 1351 154 1351 148 1374 c 0,5,6
 100 1559 100 1559 100 1584 c 128,-1,7
 100 1609 100 1609 100 1613 c 2,8,9
 100 1613 100 1613 100 1628.5 c 128,-1,10
 100 1644 100 1644 110 1664 c 128,-1,11
 120 1684 120 1684 137 1697 c 128,-1,12
 154 1710 154 1710 175 1718 c 128,-1,13
 196 1726 196 1726 218 1726 c 0,14,15
 260 1726 260 1726 298 1696 c 128,-1,16
 336 1666 336 1666 336 1631 c 0,17,18
 336 1560 336 1560 324.5 1516.5 c 128,-1,19
 313 1473 313 1473 310 1462 c 0,20,21
 306 1445 306 1445 296 1408 c 0,22,23
 271 1319 271 1319 260.5 1240.5 c 128,-1,24
 250 1162 250 1162 244 1122 c 1,0,-1
261 1567 m 1,25,26
 271 1579 271 1579 271 1606.5 c 128,-1,27
 271 1634 271 1634 260 1643 c 1,28,-1
 222 1611 l 1,29,-1
 171 1558 l 1,30,31
 175 1536 175 1536 182 1502 c 1,32,-1
 261 1567 l 1,25,26
264 1559 m 1,33,34
 219 1522 219 1522 185 1493 c 1,35,36
 191 1469 191 1469 197 1444 c 1,37,38
 206 1451 206 1451 248 1483 c 1,39,40
 248 1483 248 1483 264 1559 c 1,33,34
246 1471 m 1,41,-1
 199 1436 l 1,42,43
 199 1436 199 1436 218 1364 c 1,44,45
 218 1364 218 1364 246 1471 c 1,41,-1
169 1568 m 1,46,-1
 216 1617 l 1,47,-1
 253 1649 l 1,48,49
 235 1661 235 1661 216 1661 c 128,-1,50
 197 1661 197 1661 181 1649 c 128,-1,51
 165 1637 165 1637 165 1616.5 c 128,-1,52
 165 1596 165 1596 169 1568 c 1,46,-1
EndSplineSet
Validated: 1
Layer: 3
SplineSet
330 1618 m 4,0,1
 330 1577 330 1577 312 1501 c 6,2,3
 306 1470 306 1470 296 1432 c 4,4,5
 286 1398 286 1398 276 1362 c 4,6,7
 264 1313 264 1313 254.5 1240.5 c 132,-1,8
 245 1168 245 1168 239 1128 c 5,9,-1
 198 1128 l 5,10,11
 188 1240 188 1240 180 1264 c 4,12,13
 164 1335 164 1335 158 1361 c 4,14,15
 138 1433 138 1433 122 1501 c 4,16,17
 106 1568 106 1568 106 1618 c 4,18,19
 106 1642 106 1642 115 1661 c 4,20,21
 132 1695 132 1695 177 1712 c 4,22,23
 197 1720 197 1720 218 1720 c 132,-1,24
 239 1720 239 1720 258 1712 c 4,25,26
 286 1701 286 1701 303 1684 c 4,27,28
 330 1656 330 1656 330 1618 c 4,0,1
EndSplineSet
EndChar

StartChar: parenleft
Encoding: 40 40 8
Width: 582
GlyphClass: 2
Flags: W
LayerCount: 4
Back
SplineSet
102 708 m 260,0,1
 102 952 102 952 133 1132 c 132,-1,2
 164 1312 164 1312 219 1430 c 132,-1,3
 274 1548 274 1548 376 1605 c 132,-1,4
 478 1662 478 1662 576 1662 c 5,5,-1
 576 1596 l 5,6,7
 552 1596 552 1596 510 1584 c 132,-1,8
 468 1572 468 1572 456 1539 c 132,-1,9
 444 1506 444 1506 436 1445 c 132,-1,10
 428 1384 428 1384 424 1286 c 132,-1,11
 420 1188 420 1188 418 1047 c 132,-1,12
 416 906 416 906 416 708 c 260,13,14
 416 512 416 512 418 371 c 132,-1,15
 420 230 420 230 424 131 c 132,-1,16
 428 32 428 32 436 -28 c 132,-1,17
 444 -88 444 -88 456 -122 c 132,-1,18
 468 -156 468 -156 509 -167 c 132,-1,19
 550 -178 550 -178 576 -178 c 5,20,-1
 576 -248 l 5,21,22
 478 -248 478 -248 376 -190 c 132,-1,23
 274 -132 274 -132 219 -13 c 132,-1,24
 164 106 164 106 133 285 c 132,-1,25
 102 464 102 464 102 708 c 260,0,1
EndSplineSet
Fore
SplineSet
133 285 m 128,-1,1
 102 464 102 464 102 708 c 128,-1,2
 102 952 102 952 133 1132 c 128,-1,3
 164 1312 164 1312 219 1430 c 128,-1,4
 274 1548 274 1548 376 1605 c 128,-1,5
 478 1662 478 1662 576 1662 c 1,6,-1
 576 1596 l 1,7,8
 552 1596 552 1596 510 1584 c 128,-1,9
 468 1572 468 1572 456 1539 c 128,-1,10
 444 1506 444 1506 436 1445 c 0,11,12
 415 1281 415 1281 415 804 c 0,13,14
 415 613 415 613 418 371 c 0,15,16
 422 76 422 76 433 -6 c 128,-1,17
 444 -88 444 -88 456 -122 c 128,-1,18
 468 -156 468 -156 509 -167 c 128,-1,19
 550 -178 550 -178 576 -178 c 1,20,-1
 576 -248 l 1,21,22
 478 -248 478 -248 376 -190 c 128,-1,23
 274 -132 274 -132 219 -13 c 128,-1,0
 164 106 164 106 133 285 c 128,-1,1
173 913 m 1,24,25
 170 873 170 873 169 832 c 1,26,-1
 352 979 l 1,27,28
 352 1016 352 1016 353 1050 c 1,29,-1
 291 996 l 1,30,-1
 173 913 l 1,24,25
167 749 m 1,31,-1
 232 789 l 1,32,33
 277 819 277 819 321 849 c 1,34,-1
 351 884 l 1,35,36
 351 928 351 928 352 969 c 1,37,-1
 169 822 l 1,38,39
 167 786 167 786 167 749 c 1,31,-1
184 1030 m 1,40,41
 178 979 178 979 174 922 c 1,42,-1
 287 1002 l 1,43,-1
 353 1060 l 1,44,45
 354 1114 354 1114 355 1161 c 1,46,-1
 341 1151 l 1,47,-1
 246 1076 l 1,48,49
 215 1053 215 1053 184 1030 c 1,40,41
195 1110 m 1,50,51
 189 1076 189 1076 185 1040 c 1,52,-1
 242 1082 l 1,53,-1
 337 1157 l 1,54,-1
 355 1170 l 1,55,56
 356 1196 356 1196 357 1220 c 1,57,-1
 221 1131 l 1,58,-1
 195 1110 l 1,50,51
167 740 m 0,59,60
 167 715 167 715 167 690 c 1,61,-1
 351 808 l 1,62,63
 351 840 351 840 351 871 c 1,64,65
 328 845 328 845 326 843 c 2,66,-1
 236 783 l 1,67,-1
 171 743 l 2,68,69
 169 741 169 741 167 740 c 0,59,60
245 1319 m 1,70,-1
 311 1372 l 1,71,72
 365 1444 365 1444 371 1451 c 1,73,74
 376 1504 376 1504 387 1540 c 1,75,76
 269 1430 269 1430 245 1319 c 1,70,-1
240 1304 m 1,77,78
 232 1279 232 1279 225 1252 c 1,79,-1
 312 1322 l 1,80,-1
 363 1359 l 1,81,82
 366 1404 366 1404 369 1436 c 1,83,-1
 317 1366 l 1,84,-1
 240 1304 l 1,77,78
197 1121 m 1,85,-1
 217 1137 l 1,86,87
 287 1183 287 1183 357 1229 c 1,88,89
 359 1301 359 1301 362 1350 c 1,90,91
 339 1333 339 1333 316 1316 c 1,92,-1
 222 1240 l 1,93,94
 208 1185 208 1185 197 1121 c 1,85,-1
351 800 m 1,95,-1
 167 681 l 1,96,97
 167 628 167 628 169 579 c 1,98,99
 182 589 182 589 282 659 c 1,100,-1
 351 717 l 1,101,102
 351 760 351 760 351 800 c 1,95,-1
367 1 m 1,103,104
 355 -7 355 -7 348 -13 c 2,105,-1
 309 -41 l 1,106,107
 321 -59 321 -59 335 -74 c 1,108,-1
 373 -46 l 1,109,110
 369 -22 369 -22 367 1 c 1,103,104
367 9 m 1,111,112
 365 32 365 32 363 60 c 1,113,-1
 285 -0 l 1,114,115
 294 -18 294 -18 305 -35 c 1,116,-1
 367 9 l 1,111,112
359 138 m 1,117,-1
 257 64 l 1,118,119
 269 32 269 32 282 7 c 1,120,-1
 362 69 l 1,121,122
 361 100 361 100 359 138 c 1,117,-1
357 196 m 1,123,-1
 300 157 l 1,124,-1
 240 115 l 1,125,126
 247 92 247 92 255 71 c 1,127,-1
 359 148 l 1,128,129
 358 171 358 171 357 196 c 1,123,-1
355 250 m 1,130,-1
 228 155 l 1,131,132
 233 138 233 138 237 122 c 1,133,134
 274 148 274 148 296 163 c 2,135,-1
 357 204 l 1,136,137
 356 226 356 226 355 250 c 1,130,-1
354 305 m 1,138,-1
 216 201 l 1,139,140
 221 181 221 181 226 162 c 1,141,-1
 355 259 l 1,142,143
 354 281 354 281 354 305 c 1,138,-1
353 357 m 1,144,-1
 206 247 l 1,145,146
 210 227 210 227 215 209 c 1,147,-1
 354 314 l 1,148,149
 353 335 353 335 353 357 c 1,144,-1
353 401 m 1,150,-1
 271 343 l 1,151,-1
 197 295 l 1,152,153
 201 275 201 275 205 255 c 1,154,-1
 353 366 l 1,155,156
 353 383 353 383 353 401 c 1,150,-1
352 473 m 1,157,-1
 188 351 l 1,158,159
 191 326 191 326 196 302 c 1,160,-1
 267 349 l 1,161,-1
 353 410 l 1,162,163
 352 441 352 441 352 473 c 1,157,-1
351 540 m 1,164,-1
 180 421 l 1,165,166
 183 389 183 389 187 359 c 1,167,-1
 352 481 l 1,168,169
 351 510 351 510 351 540 c 1,164,-1
351 611 m 1,170,171
 274 558 274 558 174 489 c 1,172,173
 176 459 176 459 179 430 c 1,174,-1
 351 549 l 1,175,176
 351 579 351 579 351 611 c 1,170,171
351 707 m 1,177,-1
 286 653 l 1,178,-1
 186 583 l 1,179,-1
 170 570 l 1,180,181
 172 532 172 532 174 497 c 1,182,-1
 351 620 l 1,183,184
 351 662 351 662 351 707 c 1,177,-1
374 -54 m 1,185,-1
 340 -80 l 1,186,187
 361 -103 361 -103 387 -120 c 1,188,189
 380 -93 380 -93 374 -54 c 1,185,-1
EndSplineSet
Validated: 3073
Layer: 3
SplineSet
108 708 m 132,-1,0
 108 951 108 951 139 1130.5 c 132,-1,1
 170 1310 170 1310 224.5 1427 c 132,-1,2
 279 1544 279 1544 379 1600 c 4,3,4
 476 1654 476 1654 570 1656 c 5,5,-1
 570 1602 l 5,6,7
 546 1601 546 1601 508 1590 c 4,8,9
 463 1577 463 1577 450 1541 c 4,10,11
 426 1473 426 1473 418 1286 c 4,12,13
 410 1090 410 1090 410 708 c 4,14,15
 410 329 410 329 418 131 c 4,16,17
 422 31 422 31 430 -29 c 132,-1,18
 438 -89 438 -89 450 -124 c 4,19,20
 463 -161 463 -161 507 -173 c 4,21,22
 545 -183 545 -183 570 -184 c 5,23,-1
 570 -242 l 5,24,25
 476 -240 476 -240 377 -183.5 c 132,-1,26
 278 -127 278 -127 224 -10 c 4,27,28
 170 108 170 108 139 286.5 c 132,-1,29
 108 465 108 465 108 708 c 132,-1,0
EndSplineSet
EndChar

StartChar: parenright
Encoding: 41 41 9
Width: 582
GlyphClass: 2
Flags: W
LayerCount: 4
Back
SplineSet
474 708 m 260,0,1
 474 464 474 464 443 285 c 132,-1,2
 412 106 412 106 357 -13 c 132,-1,3
 302 -132 302 -132 200 -190 c 132,-1,4
 98 -248 98 -248 0 -248 c 5,5,6
 0 -248 0 -248 0 -178 c 5,7,8
 26 -178 26 -178 67 -167 c 132,-1,9
 108 -156 108 -156 120 -122 c 132,-1,10
 132 -88 132 -88 140 -28 c 132,-1,11
 148 32 148 32 152 131 c 132,-1,12
 156 230 156 230 158 371 c 132,-1,13
 160 512 160 512 160 708 c 260,14,15
 160 906 160 906 158 1047 c 132,-1,16
 156 1188 156 1188 152 1286 c 132,-1,17
 148 1384 148 1384 140 1445 c 132,-1,18
 132 1506 132 1506 120 1539 c 132,-1,19
 108 1572 108 1572 66 1584 c 132,-1,20
 24 1596 24 1596 0 1596 c 5,21,22
 0 1596 0 1596 0 1662 c 5,23,24
 98 1662 98 1662 200 1605 c 132,-1,25
 302 1548 302 1548 357 1430 c 132,-1,26
 412 1312 412 1312 443 1132 c 132,-1,27
 474 952 474 952 474 708 c 260,0,1
EndSplineSet
Fore
SplineSet
443 1132 m 128,-1,1
 474 952 474 952 474 708 c 128,-1,2
 474 464 474 464 443 285 c 128,-1,3
 412 106 412 106 357 -13 c 128,-1,4
 302 -132 302 -132 200 -190 c 128,-1,5
 98 -248 98 -248 0 -248 c 1,6,-1
 0 -178 l 1,7,8
 26 -178 26 -178 67 -167 c 128,-1,9
 108 -156 108 -156 120 -122 c 128,-1,10
 132 -88 132 -88 140 -28 c 0,11,12
 161 133 161 133 161 612 c 0,13,14
 161 804 161 804 158 1047 c 0,15,16
 154 1339 154 1339 143 1422.5 c 128,-1,17
 132 1506 132 1506 120 1539 c 128,-1,18
 108 1572 108 1572 66 1584 c 128,-1,19
 24 1596 24 1596 0 1596 c 1,20,-1
 0 1662 l 1,21,22
 98 1662 98 1662 200 1605 c 128,-1,23
 302 1548 302 1548 357 1430 c 128,-1,0
 412 1312 412 1312 443 1132 c 128,-1,1
384 328 m 1,24,-1
 220 204 l 1,25,26
 219 179 219 179 218 156 c 1,27,-1
 375 274 l 1,28,29
 380 302 380 302 384 328 c 1,24,-1
386 339 m 1,30,31
 389 363 389 363 392 387 c 1,32,-1
 221 258 l 1,33,34
 220 235 220 235 220 213 c 1,35,-1
 386 339 l 1,30,31
393 397 m 1,36,37
 395 414 395 414 397 433 c 1,38,-1
 271 343 l 1,39,-1
 222 311 l 1,40,41
 222 289 222 289 221 267 c 1,42,-1
 393 397 l 1,36,37
403 508 m 1,43,-1
 366 483 l 1,44,-1
 223 376 l 1,45,46
 223 347 223 347 222 320 c 1,47,-1
 267 349 l 1,48,-1
 398 442 l 1,49,50
 401 474 401 474 403 508 c 1,43,-1
407 578 m 1,51,-1
 224 452 l 1,52,53
 224 418 224 418 223 385 c 1,54,-1
 362 489 l 1,55,-1
 404 518 l 1,56,57
 406 547 406 547 407 578 c 1,51,-1
409 651 m 1,58,59
 331 597 331 597 224 523 c 1,60,61
 224 491 224 491 224 461 c 1,62,-1
 407 587 l 1,63,64
 408 618 408 618 409 651 c 1,58,59
409 660 m 1,65,66
 409 684 409 684 409 708 c 128,-1,67
 409 732 409 732 409 755 c 1,68,-1
 406 753 l 1,69,-1
 286 653 l 1,70,-1
 225 610 l 1,71,72
 225 570 225 570 225 532 c 1,73,-1
 409 660 l 1,65,66
339 124 m 1,74,-1
 211 29 l 1,75,76
 207 -17 207 -17 202 -56 c 1,77,-1
 301 22 l 1,78,79
 322 68 322 68 339 124 c 1,74,-1
342 135 m 1,80,81
 350 164 350 164 359 196 c 1,82,-1
 300 157 l 1,83,-1
 216 97 l 1,84,85
 214 65 214 65 212 39 c 1,86,-1
 342 135 l 1,80,81
373 263 m 1,87,-1
 218 148 l 1,88,89
 217 126 217 126 216 107 c 1,90,91
 269 144 269 144 296 163 c 2,92,-1
 361 206 l 1,93,94
 367 234 367 234 373 263 c 1,87,-1
295 8 m 1,95,-1
 200 -67 l 1,96,97
 195 -97 195 -97 189 -118 c 1,98,-1
 217 -99 l 1,99,100
 264 -57 264 -57 295 8 c 1,95,-1
225 619 m 1,101,-1
 282 659 l 1,102,-1
 402 759 l 1,103,-1
 409 764 l 1,104,105
 408 804 408 804 406 842 c 1,106,-1
 356 803 l 1,107,-1
 225 719 l 1,108,109
 225 714 225 714 225 688 c 128,-1,110
 225 662 225 662 225 619 c 1,101,-1
225 776 m 1,111,112
 225 752 225 752 225 728 c 1,113,-1
 352 809 l 1,114,115
 379 830 379 830 406 851 c 1,116,117
 404 891 404 891 402 928 c 1,118,-1
 356 876 l 2,119,120
 329 845 329 845 326 843 c 2,121,-1
 236 783 l 1,122,-1
 225 776 l 1,111,112
225 867 m 1,123,124
 225 827 225 827 225 785 c 1,125,126
 243 796 243 796 321 849 c 1,127,-1
 401 939 l 1,128,129
 398 973 398 973 395 1005 c 1,130,131
 383 994 383 994 376 988 c 2,132,-1
 225 867 l 1,123,124
224 949 m 1,133,134
 224 914 224 914 225 876 c 1,135,-1
 371 994 l 1,136,-1
 394 1016 l 1,137,138
 390 1048 390 1048 386 1079 c 1,139,-1
 291 996 l 1,140,-1
 224 949 l 1,133,134
223 1059 m 1,141,142
 224 1011 224 1011 224 958 c 1,143,144
 255 980 255 980 287 1002 c 1,145,-1
 384 1088 l 1,146,147
 378 1129 378 1129 370 1171 c 1,148,-1
 341 1151 l 1,149,-1
 246 1076 l 2,150,151
 235 1067 235 1067 223 1059 c 1,141,142
221 1131 m 1,152,153
 222 1101 222 1101 223 1068 c 1,154,-1
 242 1082 l 1,155,-1
 337 1157 l 1,156,-1
 368 1179 l 1,157,158
 364 1201 364 1201 359 1221 c 1,159,-1
 221 1131 l 1,152,153
219 1237 m 1,160,161
 220 1192 220 1192 221 1140 c 1,162,163
 289 1184 289 1184 357 1229 c 1,164,165
 344 1281 344 1281 329 1326 c 1,166,167
 323 1321 323 1321 316 1316 c 2,168,-1
 219 1237 l 1,160,161
217 1286 m 1,169,170
 218 1267 218 1267 218 1246 c 1,171,-1
 312 1322 l 1,172,-1
 326 1332 l 1,173,174
 320 1348 320 1348 315 1364 c 1,175,-1
 217 1286 l 1,169,170
212 1371 m 1,176,177
 214 1338 214 1338 216 1295 c 1,178,-1
 311 1372 l 1,179,180
 311 1373 311 1373 311 1374 c 0,181,182
 311 1383 311 1383 282 1434 c 1,183,-1
 212 1371 l 1,176,177
206 1442 m 1,184,185
 209 1417 209 1417 212 1381 c 1,186,-1
 278 1440 l 1,187,188
 266 1460 266 1460 253 1477 c 1,189,-1
 211 1446 l 2,190,191
 211 1446 211 1446 206 1442 c 1,184,185
196 1503 m 1,192,193
 200 1480 200 1480 205 1450 c 1,194,195
 206 1451 206 1451 207 1452 c 2,196,-1
 248 1482 l 1,197,198
 232 1501 232 1501 213 1517 c 1,199,200
 204 1510 204 1510 196 1503 c 1,192,193
195 1512 m 1,201,-1
 207 1522 l 1,202,203
 198 1529 198 1529 189 1535 c 1,204,205
 192 1525 192 1525 195 1512 c 1,201,-1
EndSplineSet
Validated: 3073
Layer: 3
SplineSet
6 1602 m 4,0,-1
 6 1656 l 5,1,2
 100 1654 100 1654 198.5 1599 c 132,-1,3
 297 1544 297 1544 352 1427 c 4,4,5
 406 1310 406 1310 437 1131 c 4,6,7
 468 951 468 951 468 708 c 132,-1,8
 468 465 468 465 437 286 c 4,9,10
 406 108 406 108 352 -10 c 4,11,12
 297 -128 297 -128 197 -185 c 4,13,14
 100 -240 100 -240 6 -242 c 5,15,-1
 6 -184 l 5,16,17
 31 -183 31 -183 69 -173 c 4,18,19
 113 -161 113 -161 126 -124 c 4,20,21
 138 -89 138 -89 146 -29 c 132,-1,22
 154 31 154 31 158 131 c 4,23,24
 166 329 166 329 166 708 c 4,25,26
 166 1090 166 1090 158 1286 c 4,27,28
 150 1473 150 1473 126 1541 c 4,29,30
 112 1580 112 1580 68 1590 c 4,31,32
 12 1602 12 1602 6 1602 c 4,0,-1
EndSplineSet
EndChar

StartChar: asterisk
Encoding: 42 42 10
Width: 728
VWidth: 1778
GlyphClass: 2
Flags: W
LayerCount: 4
Back
SplineSet
362 614 m 260,0,1
 328 614 328 614 307 635 c 132,-1,2
 286 656 286 656 286 682 c 260,3,4
 286 710 286 710 297 743 c 132,-1,5
 308 776 308 776 322 814 c 4,6,7
 328 830 328 830 335 847 c 132,-1,8
 342 864 342 864 344 882 c 5,9,10
 332 870 332 870 320 857 c 132,-1,11
 308 844 308 844 296 828 c 4,12,13
 286 814 286 814 271 795 c 132,-1,14
 256 776 256 776 240 761 c 132,-1,15
 224 746 224 746 204 734 c 132,-1,16
 184 722 184 722 166 722 c 4,17,18
 150 722 150 722 136 730 c 132,-1,19
 122 738 122 738 112 749 c 132,-1,20
 102 760 102 760 96 774 c 132,-1,21
 90 788 90 788 90 802 c 4,22,23
 90 830 90 830 108 847 c 132,-1,24
 126 864 126 864 153 874 c 132,-1,25
 180 884 180 884 209 888 c 132,-1,26
 238 892 238 892 258 894 c 4,27,28
 276 896 276 896 294 900 c 132,-1,29
 312 904 312 904 330 910 c 5,30,31
 298 920 298 920 258 926 c 4,32,33
 236 928 236 928 206 933 c 132,-1,34
 176 938 176 938 151 948 c 132,-1,35
 126 958 126 958 108 974 c 132,-1,37
 90 990 90 990 90 1018 c 4,38,39
 90 1032 90 1032 96 1047 c 132,-1,40
 102 1062 102 1062 113 1073 c 132,-1,41
 124 1084 124 1084 138 1091 c 132,-1,42
 152 1098 152 1098 166 1098 c 4,43,44
 182 1098 182 1098 202 1086 c 132,-1,45
 222 1074 222 1074 239 1057 c 132,-1,46
 256 1040 256 1040 271 1023 c 132,-1,47
 286 1006 286 1006 296 994 c 4,48,49
 308 980 308 980 320 965 c 132,-1,50
 332 950 332 950 344 938 c 5,51,52
 340 956 340 956 335 973 c 132,-1,53
 330 990 330 990 322 1008 c 4,54,55
 308 1044 308 1044 297 1077 c 132,-1,56
 286 1110 286 1110 286 1136 c 260,57,58
 286 1164 286 1164 307 1185 c 132,-1,59
 328 1206 328 1206 362 1206 c 260,60,61
 396 1206 396 1206 416 1186 c 132,-1,62
 436 1166 436 1166 436 1136 c 4,63,64
 436 1108 436 1108 426 1075 c 132,-1,65
 416 1042 416 1042 400 1008 c 4,66,67
 388 976 388 976 378 938 c 5,68,69
 390 950 390 950 404 963 c 132,-1,70
 418 976 418 976 428 992 c 4,71,72
 442 1010 442 1010 457 1029 c 132,-1,73
 472 1048 472 1048 488 1063 c 132,-1,74
 504 1078 504 1078 521 1088 c 132,-1,75
 538 1098 538 1098 558 1098 c 4,76,77
 574 1098 574 1098 587 1091 c 132,-1,78
 600 1084 600 1084 611 1072 c 132,-1,79
 622 1060 622 1060 627 1046 c 132,-1,80
 632 1032 632 1032 632 1018 c 4,81,82
 632 992 632 992 614 975 c 132,-1,83
 596 958 596 958 569 948 c 132,-1,84
 542 938 542 938 514 933 c 132,-1,85
 486 928 486 928 466 926 c 4,86,87
 448 924 448 924 430 920 c 132,-1,88
 412 916 412 916 396 910 c 5,89,90
 414 906 414 906 431 902 c 132,-1,91
 448 898 448 898 466 894 c 4,92,93
 488 890 488 890 517 885 c 132,-1,94
 546 880 546 880 572 870 c 132,-1,95
 598 860 598 860 616 844 c 132,-1,97
 634 828 634 828 632 802 c 4,98,99
 632 788 632 788 626 773 c 132,-1,100
 620 758 620 758 610 747 c 132,-1,101
 600 736 600 736 587 729 c 132,-1,102
 574 722 574 722 558 722 c 4,103,104
 538 722 538 722 519 734 c 132,-1,105
 500 746 500 746 482 763 c 132,-1,106
 464 780 464 780 450 798 c 132,-1,107
 436 816 436 816 428 830 c 4,108,109
 418 844 418 844 405 857 c 132,-1,110
 392 870 392 870 378 882 c 5,111,112
 386 846 386 846 400 814 c 4,113,114
 414 778 414 778 425 745 c 132,-1,115
 436 712 436 712 436 682 c 4,116,117
 436 654 436 654 416 634 c 132,-1,118
 396 614 396 614 362 614 c 260,0,1
EndSplineSet
Fore
SplineSet
351 683 m 0,0,1
 354 679 354 679 362 679 c 128,-1,2
 370 679 370 679 371 681 c 1,3,4
 371 701 371 701 361 730 c 1,5,6
 351 700 351 700 351 683 c 0,0,1
209 822 m 1,7,8
 171 815 171 815 155 802 c 1,9,10
 156 794 156 794 166 788 c 1,11,12
 189 799 189 799 209 822 c 1,7,8
204 1000 m 1,13,14
 179 1025 179 1025 165 1032 c 1,15,16
 157 1027 157 1027 155 1019 c 1,17,18
 172 1006 172 1006 204 1000 c 1,13,14
362 1088 m 1,19,20
 371 1116 371 1116 371 1127.5 c 128,-1,21
 371 1139 371 1139 370.5 1140 c 128,-1,22
 370 1141 370 1141 360.5 1141 c 128,-1,23
 351 1141 351 1141 351 1130.5 c 128,-1,24
 351 1120 351 1120 362 1088 c 1,19,20
567 1020 m 1,25,26
 566 1028 566 1028 560 1030 c 0,27,28
 549 1035 549 1035 518 1000 c 1,29,30
 553 1009 553 1009 567 1020 c 1,25,26
518 819 m 1,31,32
 543 794 543 794 558 787 c 1,33,34
 565 791 565 791 567 800 c 1,35,36
 551 811 551 811 518 819 c 1,31,32
362 614 m 128,-1,38
 328 614 328 614 307 635 c 128,-1,39
 286 656 286 656 286 683 c 0,40,41
 286 728 286 728 314 796 c 128,-1,42
 342 864 342 864 344 882 c 1,43,44
 314 852 314 852 300 833 c 128,-1,45
 286 814 286 814 271 795 c 128,-1,46
 256 776 256 776 240 761 c 0,47,48
 198 722 198 722 174 722 c 128,-1,49
 150 722 150 722 136 730 c 128,-1,50
 122 738 122 738 112 749 c 0,51,52
 90 773 90 773 90 801.5 c 128,-1,53
 90 830 90 830 108 847 c 128,-1,54
 126 864 126 864 153 874 c 0,55,56
 188 887 188 887 232 892 c 0,57,58
 293 898 293 898 330 910 c 1,59,60
 298 920 298 920 267 924 c 128,-1,61
 236 928 236 928 206 933 c 128,-1,62
 176 938 176 938 151 948 c 0,63,64
 90 972 90 972 90 1018 c 0,65,66
 90 1067 90 1067 138 1091 c 0,67,68
 152 1098 152 1098 167 1098 c 128,-1,69
 182 1098 182 1098 202 1086 c 128,-1,70
 222 1074 222 1074 239 1057 c 0,71,72
 276 1020 276 1020 304 985 c 128,-1,73
 332 950 332 950 344 938 c 1,74,75
 335 980 335 980 321 1012 c 0,76,77
 286 1098 286 1098 286 1131 c 128,-1,78
 286 1164 286 1164 307 1185 c 128,-1,79
 328 1206 328 1206 362 1206 c 128,-1,80
 396 1206 396 1206 416 1186 c 128,-1,81
 436 1166 436 1166 436 1137 c 0,82,83
 436 1085 436 1085 400 1008 c 0,84,85
 388 976 388 976 378 938 c 1,86,87
 390 950 390 950 404 963 c 128,-1,88
 418 976 418 976 430 993 c 128,-1,89
 442 1010 442 1010 457 1029 c 128,-1,90
 472 1048 472 1048 488 1063 c 0,91,92
 525 1098 525 1098 549.5 1098 c 128,-1,93
 574 1098 574 1098 587 1091 c 128,-1,94
 600 1084 600 1084 611 1072 c 0,95,96
 632 1049 632 1049 632 1020.5 c 128,-1,97
 632 992 632 992 614 975 c 128,-1,98
 596 958 596 958 569 948 c 0,99,100
 526 932 526 932 487 928 c 0,101,102
 428 922 428 922 396 910 c 1,103,104
 414 906 414 906 431 902 c 128,-1,105
 448 898 448 898 468 894 c 128,-1,106
 488 890 488 890 517 885 c 128,-1,107
 546 880 546 880 572 870 c 0,108,109
 632 847 632 847 632 806 c 0,110,111
 632 753 632 753 587 729 c 0,112,113
 574 722 574 722 556 722 c 128,-1,114
 538 722 538 722 519 734 c 128,-1,115
 500 746 500 746 482 763 c 0,116,117
 448 795 448 795 433 820 c 0,118,119
 413 852 413 852 378 882 c 1,120,121
 386 846 386 846 400 812 c 0,122,123
 436 725 436 725 436 689.5 c 128,-1,124
 436 654 436 654 416 634 c 128,-1,37
 396 614 396 614 362 614 c 128,-1,38
EndSplineSet
Validated: 2049
Layer: 3
SplineSet
362 620 m 132,-1,0
 330 620 330 620 311 639 c 132,-1,1
 292 658 292 658 292 683.5 c 132,-1,2
 292 709 292 709 303 741 c 4,3,4
 323 802 323 802 341 845 c 4,5,6
 348 862 348 862 350 881 c 6,7,-1
 352 898 l 5,8,-1
 340 886 l 6,9,10
 309 856 309 856 291 832 c 4,11,12
 264 793 264 793 239 768 c 4,13,14
 223 752 223 752 201 739 c 4,15,16
 182 728 182 728 167 728 c 132,-1,17
 152 728 152 728 139 735 c 4,18,19
 113 750 113 750 102 776 c 4,20,21
 96 789 96 789 96 802 c 4,22,23
 96 827 96 827 111.5 842.5 c 132,-1,24
 127 858 127 858 155 868 c 4,25,26
 181 878 181 878 210 882 c 132,-1,27
 239 886 239 886 258 888 c 132,-1,28
 277 890 277 890 295.5 894 c 132,-1,29
 314 898 314 898 350 910 c 5,30,-1
 332 916 l 6,31,32
 299 926 299 926 259 932 c 6,33,34
 237 934 237 934 207 939 c 4,35,36
 145 949 145 949 113 978 c 4,37,38
 96 993 96 993 96 1018 c 4,39,40
 96 1031 96 1031 101.5 1045 c 132,-1,41
 107 1059 107 1059 117.5 1069 c 132,-1,42
 128 1079 128 1079 140.5 1085.5 c 132,-1,43
 153 1092 153 1092 166.5 1092 c 132,-1,44
 180 1092 180 1092 199.5 1080.5 c 132,-1,45
 219 1069 219 1069 235 1053 c 4,46,47
 259 1028 259 1028 292 989 c 4,48,49
 303 976 303 976 315.5 961 c 132,-1,50
 328 946 328 946 340 934 c 6,51,-1
 354 919 l 5,52,-1
 350 939 l 6,53,54
 341 981 341 981 328 1010 c 4,55,56
 327 1010 327 1010 303 1078 c 4,57,58
 292 1110 292 1110 292 1136 c 132,-1,59
 292 1162 292 1162 311 1181 c 132,-1,60
 330 1200 330 1200 362 1200 c 132,-1,61
 394 1200 394 1200 412 1182 c 132,-1,62
 430 1164 430 1164 430 1136 c 4,63,64
 430 1086 430 1086 395 1011 c 5,65,66
 389 997 389 997 372 940 c 5,67,-1
 367 918 l 5,68,69
 394 946 394 946 408.5 959 c 132,-1,70
 423 972 423 972 433 989 c 4,71,72
 447 1006 447 1006 462 1025 c 4,73,74
 493 1065 493 1065 524 1083 c 4,75,76
 540 1092 540 1092 558 1092 c 4,77,78
 583 1092 583 1092 604 1071 c 4,79,80
 626 1049 626 1049 626 1018 c 4,81,82
 626 996 626 996 611 981 c 4,83,84
 573 943 573 943 465 932 c 4,85,86
 426 928 426 928 394 916 c 6,87,-1
 375 909 l 5,88,89
 413 900 413 900 430 896 c 132,-1,90
 447 892 447 892 459.5 889.5 c 132,-1,91
 472 887 472 887 516 879 c 4,92,93
 580 869 580 869 612 840 c 4,94,95
 626 827 626 827 626 807 c 4,96,97
 626 789 626 789 620 775 c 4,98,99
 610 748 610 748 584 734 c 4,100,101
 572 728 572 728 556 728 c 132,-1,102
 540 728 540 728 522 739 c 132,-1,103
 504 750 504 750 486 767 c 4,104,105
 452 799 452 799 433 833 c 4,106,107
 425 845 425 845 409 861 c 4,108,109
 396 874 396 874 368 898 c 5,110,-1
 372 881 l 6,111,112
 380 844 380 844 394 812 c 4,113,114
 395 812 395 812 419 744 c 4,115,116
 430 712 430 712 430 684 c 132,-1,117
 430 656 430 656 412 638 c 132,-1,118
 394 620 394 620 362 620 c 132,-1,0
EndSplineSet
EndChar

StartChar: plus
Encoding: 43 43 11
Width: 888
GlyphClass: 2
Flags: W
LayerCount: 4
Back
SplineSet
382 428 m 5,0,-1
 126 428 l 5,1,-1
 126 552 l 5,2,3
 126 552 126 552 382 552 c 5,4,5
 382 552 382 552 382 808 c 5,6,-1
 506 808 l 5,7,-1
 506 552 l 5,8,-1
 762 552 l 5,9,-1
 762 428 l 5,10,-1
 506 428 l 5,11,12
 506 428 506 428 506 174 c 5,13,-1
 382 174 l 5,14,-1
 382 428 l 5,0,-1
EndSplineSet
Fore
SplineSet
382 428 m 1,0,-1
 126 428 l 1,1,-1
 126 552 l 1,2,3
 126 552 126 552 382 552 c 1,4,5
 382 552 382 552 382 808 c 1,6,-1
 506 808 l 1,7,-1
 506 552 l 1,8,-1
 762 552 l 1,9,-1
 762 428 l 1,10,-1
 506 428 l 1,11,12
 506 428 506 428 506 174 c 1,13,-1
 382 174 l 1,14,-1
 382 428 l 1,0,-1
EndSplineSet
Validated: 1
Layer: 3
SplineSet
132 434 m 5,0,-1
 132 546 l 5,1,-1
 388 546 l 5,2,-1
 388 802 l 5,3,-1
 500 802 l 5,4,-1
 500 546 l 5,5,-1
 756 546 l 5,6,-1
 756 434 l 5,7,-1
 500 434 l 5,8,-1
 500 180 l 5,9,-1
 388 180 l 5,10,-1
 388 434 l 5,11,-1
 132 434 l 5,0,-1
EndSplineSet
EndChar

StartChar: comma
Encoding: 44 44 12
Width: 618
VWidth: 1454
GlyphClass: 2
Flags: W
LayerCount: 4
Back
SplineSet
118 160 m 4,0,1
 118 196 118 196 134 227 c 132,-1,2
 150 258 150 258 174 282 c 132,-1,3
 198 306 198 306 231 319 c 132,-1,4
 264 332 264 332 304 332 c 4,5,6
 350 332 350 332 386 318 c 132,-1,7
 422 304 422 304 449 277 c 132,-1,8
 476 250 476 250 491 210 c 132,-1,9
 506 170 506 170 506 118 c 4,10,11
 506 34 506 34 479 -30 c 132,-1,12
 452 -94 452 -94 407 -142 c 132,-1,13
 362 -190 362 -190 306 -222 c 132,-1,14
 250 -254 250 -254 188 -268 c 5,15,-1
 168 -242 l 5,16,17
 224 -222 224 -222 260 -192 c 132,-1,18
 296 -162 296 -162 319 -130 c 132,-1,19
 342 -98 342 -98 351 -71 c 132,-1,20
 360 -44 360 -44 360 -28 c 4,21,22
 360 -10 360 -10 342 -3 c 132,-1,23
 324 4 324 4 296 8 c 4,24,25
 270 12 270 12 238 19 c 132,-1,26
 206 26 206 26 180 41 c 132,-1,27
 154 56 154 56 136 84 c 132,-1,28
 118 112 118 112 118 160 c 4,0,1
EndSplineSet
Fore
SplineSet
134 226 m 0,0,1
 149 255 149 255 174 281 c 0,2,3
 223 331 223 331 307 331 c 128,-1,4
 391 331 391 331 448 278 c 0,5,6
 506 223 506 223 506 127 c 2,7,8
 506 127 506 127 506 93 c 0,9,10
 506 -39 506 -39 411 -138 c 0,11,12
 313 -240 313 -240 188 -268 c 1,13,-1
 168 -242 l 1,14,15
 263 -208 263 -208 319 -130 c 0,16,17
 356 -79 356 -79 360 -34 c 1,18,19
 358 -9 358 -9 341 -2.5 c 128,-1,20
 324 4 324 4 297 8 c 128,-1,21
 270 12 270 12 238 19 c 128,-1,22
 206 26 206 26 180 41 c 0,23,24
 118 77 118 77 118 154 c 0,25,26
 118 196 118 196 134 226 c 0,0,1
189 190 m 1,27,-1
 291 267 l 1,28,29
 216 260 216 260 189 190 c 1,27,-1
185 178 m 1,30,31
 180 155 180 155 186 132 c 1,32,-1
 355 260 l 1,33,34
 332 267 332 267 302 267 c 1,35,-1
 185 178 l 1,30,31
364 257 m 1,36,-1
 188 125 l 1,37,38
 193 111 193 111 207 101 c 1,39,40
 267 143 267 143 296 163 c 2,41,-1
 401 233 l 1,42,43
 385 249 385 249 364 257 c 1,36,-1
276 77 m 1,44,45
 347 64 347 64 353 62 c 1,46,-1
 362 69 l 1,47,-1
 441 125 l 1,48,49
 440 163 440 163 429 190 c 1,50,-1
 276 77 l 1,44,45
214 96 m 1,51,52
 232 86 232 86 266 79 c 1,53,-1
 426 197 l 1,54,55
 418 215 418 215 406 228 c 1,56,-1
 300 157 l 1,57,-1
 214 96 l 1,51,52
435 50 m 1,58,59
 419 38 419 38 406 29 c 1,60,61
 416 16 416 16 421 -0 c 1,62,63
 430 23 430 23 435 50 c 1,58,59
361 59 m 1,64,65
 386 49 386 49 401 34 c 1,66,-1
 425 51 l 2,67,68
 431 55 431 55 437 59 c 1,69,70
 441 86 441 86 441 116 c 1,71,-1
 366 63 l 1,72,-1
 361 59 l 1,64,65
EndSplineSet
Validated: 2049
Layer: 3
SplineSet
124 160 m 4,0,1
 124 195 124 195 139.5 224.5 c 132,-1,2
 155 254 155 254 178 277.5 c 132,-1,3
 201 301 201 301 233 313.5 c 132,-1,4
 265 326 265 326 304 326 c 4,5,6
 392 326 392 326 445 273 c 4,7,8
 471 247 471 247 485.5 208 c 132,-1,9
 500 169 500 169 500 118 c 4,10,11
 500 35 500 35 473.5 -28 c 132,-1,12
 447 -91 447 -91 402.5 -138 c 132,-1,13
 358 -185 358 -185 301 -218 c 4,14,15
 249 -247 249 -247 190 -261 c 5,16,-1
 178 -245 l 5,17,18
 230 -225 230 -225 265 -195.5 c 132,-1,19
 300 -166 300 -166 323.5 -133.5 c 132,-1,20
 347 -101 347 -101 356.5 -73 c 132,-1,21
 366 -45 366 -45 366 -30 c 132,-1,22
 366 -15 366 -15 357 -6 c 4,23,24
 344 7 344 7 298 14 c 4,25,26
 271 18 271 18 239.5 25 c 132,-1,27
 208 32 208 32 183 46 c 132,-1,28
 158 60 158 60 141 87 c 132,-1,29
 124 114 124 114 124 160 c 4,0,1
EndSplineSet
EndChar

StartChar: hyphen
Encoding: 45 45 13
Width: 888
GlyphClass: 2
Flags: W
LayerCount: 4
Back
SplineSet
126 550 m 5,0,-1
 762 550 l 5,1,-1
 762 426 l 5,2,-1
 126 426 l 5,3,-1
 126 550 l 5,0,-1
EndSplineSet
Fore
SplineSet
126 550 m 1,0,-1
 762 550 l 1,1,-1
 762 426 l 1,2,-1
 126 426 l 1,3,-1
 126 550 l 1,0,-1
EndSplineSet
Validated: 1
Layer: 3
SplineSet
756 432 m 5,0,-1
 132 432 l 5,1,-1
 132 544 l 5,2,-1
 756 544 l 5,3,-1
 756 432 l 5,0,-1
EndSplineSet
EndChar

StartChar: period
Encoding: 46 46 14
Width: 624
VWidth: 1500
GlyphClass: 2
Flags: W
LayerCount: 4
Back
SplineSet
124 152 m 260,0,1
 124 190 124 190 140 225 c 132,-1,2
 156 260 156 260 182 286 c 132,-1,3
 208 312 208 312 242 326 c 132,-1,4
 276 340 276 340 318 340 c 4,5,6
 356 340 356 340 391 326 c 132,-1,7
 426 312 426 312 452 286 c 132,-1,8
 478 260 478 260 493 225 c 132,-1,9
 508 190 508 190 508 152 c 260,10,11
 508 114 508 114 493 79 c 132,-1,12
 478 44 478 44 452 18 c 132,-1,13
 426 -8 426 -8 391 -22 c 132,-1,14
 356 -36 356 -36 318 -36 c 4,15,16
 278 -36 278 -36 243 -22 c 132,-1,17
 208 -8 208 -8 182 18 c 132,-1,18
 156 44 156 44 140 79 c 132,-1,19
 124 114 124 114 124 152 c 260,0,1
EndSplineSet
Fore
SplineSet
140 79 m 0,0,1
 124 114 124 114 124 152 c 128,-1,2
 124 190 124 190 140 225 c 128,-1,3
 156 260 156 260 182 286 c 0,4,5
 218 322 218 322 265 334 c 0,6,7
 290 340 290 340 318 340 c 0,8,9
 398 340 398 340 452 286 c 0,10,11
 508 230 508 230 508 152 c 128,-1,12
 508 74 508 74 452 18 c 0,13,14
 398 -36 398 -36 318 -36 c 0,15,16
 193 -36 193 -36 140 79 c 0,0,1
300 274 m 1,17,18
 258 269 258 269 228 240 c 0,19,20
 210 222 210 222 200 199 c 1,21,22
 200 199 200 199 300 274 c 1,17,18
194 185 m 1,23,24
 186 161 186 161 190 136 c 1,25,-1
 365 266 l 1,26,27
 341 275 341 275 314 275 c 1,28,-1
 194 185 l 1,23,24
373 263 m 1,29,-1
 192 128 l 1,30,31
 195 113 195 113 203 98 c 1,32,33
 266 143 266 143 296 163 c 2,34,-1
 408 238 l 1,35,36
 407 239 407 239 406 240 c 0,37,38
 392 254 392 254 373 263 c 1,29,-1
432 202 m 1,39,40
 424 219 424 219 413 233 c 1,41,-1
 300 157 l 1,42,-1
 207 91 l 1,43,44
 219 71 219 71 236 57 c 1,45,-1
 432 202 l 1,39,40
435 196 m 1,46,-1
 241 53 l 1,47,48
 270 31 270 31 311 29 c 1,49,-1
 362 69 l 1,50,-1
 440 124 l 1,51,52
 443 138 443 138 444 153 c 0,53,54
 444 174 444 174 435 196 c 1,46,-1
436 113 m 1,55,-1
 366 63 l 1,56,-1
 323 29 l 1,57,58
 346 30 346 30 366 38 c 0,59,60
 412 57 412 57 433 105 c 0,61,62
 435 109 435 109 436 113 c 1,55,-1
EndSplineSet
Validated: 2049
Layer: 3
SplineSet
130 152 m 132,-1,0
 130 189 130 189 145.5 223 c 132,-1,1
 161 257 161 257 186 282 c 132,-1,2
 211 307 211 307 244 320.5 c 132,-1,3
 277 334 277 334 316 334 c 132,-1,4
 355 334 355 334 389 320.5 c 132,-1,5
 423 307 423 307 448 282 c 132,-1,6
 473 257 473 257 487.5 223 c 132,-1,7
 502 189 502 189 502 152 c 132,-1,8
 502 115 502 115 487.5 81 c 132,-1,9
 473 47 473 47 448 22 c 132,-1,10
 423 -3 423 -3 389 -16.5 c 132,-1,11
 355 -30 355 -30 317 -30 c 132,-1,12
 279 -30 279 -30 245 -16.5 c 132,-1,13
 211 -3 211 -3 186 22 c 132,-1,14
 161 47 161 47 145.5 81 c 132,-1,15
 130 115 130 115 130 152 c 132,-1,0
EndSplineSet
EndChar

StartChar: slash
Encoding: 47 47 15
Width: 804
GlyphClass: 2
Flags: W
LayerCount: 4
Back
SplineSet
832 1536 m 5,0,-1
 932 1484 l 5,1,-1
 -22 -484 l 5,2,-1
 -126 -432 l 5,3,-1
 832 1536 l 5,0,-1
EndSplineSet
Fore
SplineSet
832 1536 m 1,0,-1
 932 1484 l 1,1,-1
 -22 -484 l 1,2,-1
 -126 -432 l 1,3,-1
 832 1536 l 1,0,-1
EndSplineSet
Validated: 1
Layer: 3
SplineSet
-25 -476 m 5,0,-1
 -118 -429 l 5,1,-1
 835 1528 l 5,2,-1
 924 1481 l 5,3,-1
 -25 -476 l 5,0,-1
EndSplineSet
EndChar

StartChar: zero
Encoding: 48 48 16
Width: 1308
GlyphClass: 2
Flags: W
LayerCount: 4
Back
SplineSet
594 711 m 132,-1,1
 594 758 594 758 611 791 c 132,-1,2
 628 824 628 824 654 824 c 132,-1,4
 680 824 680 824 697 791 c 132,-1,5
 714 758 714 758 714 711 c 132,-1,6
 714 664 714 664 697 631 c 132,-1,7
 680 598 680 598 654 598 c 132,-1,9
 628 598 628 598 611 631 c 132,-1,0
 594 664 594 664 594 711 c 132,-1,1
204 708 m 4,10,11
 204 806 204 806 213 901 c 132,-1,12
 222 996 222 996 243 1079 c 132,-1,13
 264 1162 264 1162 298 1231 c 132,-1,14
 332 1300 332 1300 381 1350 c 132,-1,15
 430 1400 430 1400 498 1427 c 132,-1,16
 566 1454 566 1454 656 1454 c 4,17,18
 744 1454 744 1454 811 1427 c 132,-1,19
 878 1400 878 1400 928 1350 c 132,-1,20
 978 1300 978 1300 1011 1231 c 132,-1,21
 1044 1162 1044 1162 1065 1079 c 132,-1,22
 1086 996 1086 996 1095 902 c 132,-1,23
 1104 808 1104 808 1104 708 c 260,24,25
 1104 610 1104 610 1095 516 c 132,-1,26
 1086 422 1086 422 1065 339 c 132,-1,27
 1044 256 1044 256 1011 186 c 132,-1,28
 978 116 978 116 928 66 c 132,-1,29
 878 16 878 16 811 -11 c 132,-1,30
 744 -38 744 -38 656 -38 c 260,31,32
 568 -38 568 -38 499 -11 c 132,-1,33
 430 16 430 16 381 66 c 132,-1,34
 332 116 332 116 298 186 c 132,-1,35
 264 256 264 256 243 339 c 132,-1,36
 222 422 222 422 213 515 c 132,-1,37
 204 608 204 608 204 708 c 4,10,11
656 30 m 132,-1,39
 686 30 686 30 703 61 c 132,-1,40
 720 92 720 92 730 170 c 132,-1,41
 740 248 740 248 743 379 c 132,-1,42
 746 510 746 510 746 708 c 132,-1,44
 746 906 746 906 743 1038 c 132,-1,45
 740 1170 740 1170 730 1247 c 132,-1,46
 720 1324 720 1324 702 1355 c 132,-1,47
 684 1386 684 1386 656 1386 c 4,48,49
 626 1386 626 1386 607 1355 c 132,-1,50
 588 1324 588 1324 579 1247 c 132,-1,51
 570 1170 570 1170 567 1039 c 132,-1,52
 564 908 564 908 564 708 c 132,-1,54
 564 508 564 508 567 378 c 132,-1,55
 570 248 570 248 579 170 c 132,-1,56
 588 92 588 92 607 61 c 132,-1,57
 626 30 626 30 656 30 c 132,-1,39
EndSplineSet
Fore
SplineSet
611 631 m 128,-1,1
 594 664 594 664 594 711 c 128,-1,2
 594 758 594 758 611 791 c 128,-1,3
 628 824 628 824 654 824 c 128,-1,4
 680 824 680 824 697 791 c 128,-1,5
 714 758 714 758 714 711 c 128,-1,6
 714 664 714 664 697 631 c 128,-1,7
 680 598 680 598 654 598 c 128,-1,0
 628 598 628 598 611 631 c 128,-1,1
656 -38 m 0,8,9
 204 -38 204 -38 204 708 c 0,10,11
 204 925 204 925 234 1043.5 c 128,-1,12
 264 1162 264 1162 298 1231 c 0,13,14
 408 1454 408 1454 656 1454 c 0,15,16
 1104 1454 1104 1454 1104 708 c 0,17,18
 1104 493 1104 493 1074 374.5 c 128,-1,19
 1044 256 1044 256 1011 186 c 0,20,21
 905 -38 905 -38 656 -38 c 0,8,9
607 61 m 128,-1,23
 626 30 626 30 656 30 c 128,-1,24
 686 30 686 30 703 61 c 128,-1,25
 720 92 720 92 730 170 c 128,-1,26
 740 248 740 248 743 379 c 128,-1,27
 746 510 746 510 746 708 c 0,28,29
 746 1124 746 1124 729 1255 c 128,-1,30
 712 1386 712 1386 655 1386 c 0,31,32
 587 1386 587 1386 573 1177 c 0,33,34
 564 1054 564 1054 564 697 c 0,35,36
 564 476 564 476 567 371 c 0,37,38
 570 248 570 248 579 170 c 128,-1,22
 588 92 588 92 607 61 c 128,-1,23
281 921 m 1,39,-1
 371 994 l 1,40,-1
 505 1122 l 1,41,42
 507 1157 507 1157 508 1187 c 1,43,-1
 292 997 l 1,44,45
 286 960 286 960 281 921 c 1,39,-1
331 1143 m 1,46,47
 309 1082 309 1082 294 1008 c 1,48,-1
 509 1197 l 1,49,50
 513 1248 513 1248 518 1282 c 1,51,52
 497 1262 497 1262 496 1261 c 2,53,-1
 341 1151 l 1,54,-1
 331 1143 l 1,46,47
336 1156 m 1,55,56
 337 1157 337 1157 491 1267 c 1,57,-1
 521 1297 l 1,58,59
 530 1344 530 1344 544 1374 c 1,60,61
 507 1363 507 1363 474 1342 c 1,62,-1
 381 1236 l 1,63,-1
 371 1229 l 1,64,65
 352 1196 352 1196 336 1156 c 1,55,56
269 747 m 1,66,67
 269 727 269 727 269 702.5 c 128,-1,68
 269 678 269 678 270 650 c 1,69,-1
 282 659 l 1,70,-1
 402 759 l 1,71,-1
 499 826 l 1,72,73
 499 872 499 872 500 915 c 1,74,-1
 356 803 l 1,75,-1
 269 747 l 1,66,67
271 807 m 1,76,77
 270 782 270 782 270 756 c 1,78,-1
 352 809 l 1,79,80
 426 867 426 867 500 925 c 1,81,82
 501 977 501 977 502 1022 c 1,83,-1
 442 973 l 1,84,-1
 356 876 l 2,85,86
 329 845 329 845 326 843 c 2,87,-1
 271 807 l 1,76,77
279 911 m 1,88,89
 274 865 274 865 272 816 c 1,90,91
 297 833 297 833 321 849 c 1,92,-1
 436 979 l 2,93,94
 458 1005 458 1005 502 1037 c 1,95,96
 503 1075 503 1075 504 1107 c 1,97,98
 400 1008 400 1008 376 988 c 2,99,-1
 279 911 l 1,88,89
386 1253 m 1,100,-1
 444 1320 l 1,101,102
 413 1293 413 1293 386 1253 c 1,100,-1
499 714 m 1,103,104
 480 700 480 700 274 559 c 1,105,106
 276 529 276 529 280 500 c 1,107,-1
 432 604 l 1,108,109
 465 629 465 629 499 655 c 1,110,111
 499 684 499 684 499 714 c 1,103,104
499 818 m 1,112,-1
 406 753 l 1,113,-1
 286 653 l 1,114,-1
 270 642 l 1,115,116
 271 603 271 603 274 566 c 1,117,-1
 472 704 l 1,118,-1
 499 724 l 1,119,120
 499 773 499 773 499 818 c 1,112,-1
501 416 m 1,121,-1
 327 285 l 1,122,123
 334 266 334 266 341 248 c 1,124,-1
 502 368 l 1,125,126
 501 389 501 389 501 416 c 1,121,-1
501 425 m 1,127,128
 501 446 501 446 500 467 c 1,129,-1
 313 327 l 1,130,131
 318 309 318 309 324 292 c 1,132,-1
 501 425 l 1,127,128
500 476 m 1,133,134
 500 490 500 490 500 505 c 1,135,-1
 303 366 l 1,136,137
 307 351 307 351 311 335 c 1,138,-1
 500 476 l 1,133,134
499 574 m 1,139,-1
 366 483 l 1,140,-1
 291 427 l 1,141,142
 296 399 296 399 302 373 c 1,143,-1
 500 514 l 1,144,145
 499 543 499 543 499 574 c 1,139,-1
499 646 m 1,146,-1
 436 598 l 1,147,-1
 281 491 l 1,148,149
 285 462 285 462 289 435 c 1,150,-1
 362 489 l 1,151,-1
 499 583 l 1,152,153
 499 614 499 614 499 646 c 1,146,-1
514 169 m 1,154,-1
 430 109 l 1,155,156
 446 93 446 93 465 80 c 1,157,158
 493 101 493 101 520 120 c 1,159,160
 517 141 517 141 514 169 c 1,154,-1
513 176 m 1,161,162
 510 209 510 209 507 248 c 1,163,-1
 388 160 l 1,164,165
 405 135 405 135 425 114 c 1,166,-1
 513 176 l 1,161,162
507 257 m 1,167,168
 506 275 506 275 505 295 c 1,169,-1
 364 200 l 1,170,171
 374 182 374 182 384 166 c 1,172,-1
 507 257 l 1,167,168
504 304 m 1,173,174
 503 331 503 331 502 360 c 1,175,-1
 344 241 l 1,176,177
 352 223 352 223 360 207 c 1,178,-1
 504 304 l 1,173,174
534 64 m 1,179,-1
 517 52 l 1,180,181
 530 47 530 47 543 42 c 1,182,183
 538 52 538 52 534 64 c 1,179,-1
532 71 m 1,184,185
 526 89 526 89 522 112 c 1,186,187
 495 92 495 92 471 76 c 1,188,189
 489 64 489 64 510 55 c 1,190,-1
 532 71 l 1,184,185
830 1345 m 1,191,192
 801 1363 801 1363 771 1372 c 1,193,-1
 768 1369 l 1,194,195
 780 1341 780 1341 788 1297 c 1,196,-1
 830 1345 l 1,191,192
889 1296 m 1,197,198
 865 1321 865 1321 838 1340 c 1,199,200
 809 1307 809 1307 790 1285 c 1,201,202
 796 1252 796 1252 800 1204 c 1,203,-1
 889 1296 l 1,197,198
895 1290 m 1,204,-1
 801 1193 l 1,205,206
 804 1156 804 1156 806 1113 c 1,207,-1
 847 1144 l 1,208,-1
 941 1225 l 1,209,210
 920 1262 920 1262 895 1290 c 1,204,-1
945 1217 m 1,211,212
 866 1149 866 1149 851 1138 c 2,213,-1
 806 1105 l 1,214,215
 807 1074 807 1074 808 1040 c 1,216,-1
 911 1124 l 1,217,-1
 965 1174 l 1,218,219
 955 1198 955 1198 945 1217 c 1,211,212
969 1166 m 1,220,-1
 917 1118 l 1,221,-1
 808 1030 l 1,222,223
 809 995 809 995 809 955 c 1,224,-1
 931 1039 l 1,225,-1
 992 1100 l 1,226,227
 982 1135 982 1135 969 1166 c 1,220,-1
995 1091 m 1,228,229
 939 1035 939 1035 936 1033 c 2,230,-1
 810 946 l 1,231,232
 810 920 810 920 810 893 c 1,233,234
 908 968 908 968 1007 1042 c 1,235,236
 1002 1067 1002 1067 995 1091 c 1,228,229
1038 760 m 1,237,-1
 811 591 l 1,238,239
 811 567 811 567 810 543 c 1,240,-1
 1039 727 l 1,241,242
 1038 743 1038 743 1038 760 c 1,237,-1
1039 717 m 1,243,-1
 810 532 l 1,244,245
 810 505 810 505 810 481 c 1,246,-1
 1038 649 l 1,247,248
 1039 679 1039 679 1039 696 c 128,-1,249
 1039 713 1039 713 1039 717 c 1,243,-1
1036 820 m 1,250,-1
 811 650 l 1,251,252
 811 624 811 624 811 600 c 1,253,-1
 1038 770 l 1,254,255
 1037 796 1037 796 1036 820 c 1,250,-1
1033 866 m 1,256,-1
 811 700 l 1,257,258
 811 679 811 679 811 659 c 1,259,-1
 1036 829 l 1,260,261
 1034 848 1034 848 1033 866 c 1,256,-1
1029 909 m 1,262,-1
 821 743 l 2,263,264
 816 739 816 739 811 735 c 1,265,266
 811 722 811 722 811 709 c 1,267,-1
 1032 875 l 1,268,269
 1031 892 1031 892 1029 909 c 1,262,-1
1017 993 m 1,270,-1
 982 958 l 1,271,-1
 936 903 l 1,272,-1
 811 807 l 1,273,274
 811 777 811 777 811 744 c 1,275,-1
 817 749 l 1,276,-1
 1028 917 l 1,277,278
 1024 956 1024 956 1017 993 c 1,270,-1
1009 1034 m 1,279,-1
 810 882 l 1,280,281
 810 850 810 850 811 817 c 1,282,-1
 931 909 l 1,283,-1
 976 964 l 1,284,285
 998 987 998 987 1015 1004 c 1,286,287
 1012 1019 1012 1019 1009 1034 c 1,279,-1
1038 640 m 1,288,-1
 810 472 l 1,289,290
 809 424 809 424 808 382 c 1,291,-1
 832 399 l 1,292,-1
 1007 529 l 1,293,-1
 1033 549 l 1,294,295
 1036 594 1036 594 1038 640 c 1,288,-1
1032 539 m 1,296,-1
 1011 523 l 2,297,298
 951 478 951 478 836 393 c 1,299,-1
 808 373 l 1,300,301
 807 349 807 349 806 327 c 1,302,303
 986 458 986 458 991 461 c 0,304,305
 999 466 999 466 1026 486 c 1,306,307
 1030 511 1030 511 1032 539 c 1,296,-1
1016 420 m 1,308,-1
 803 263 l 1,309,310
 800 220 800 220 797 185 c 1,311,-1
 996 332 l 1,312,313
 1008 374 1008 374 1016 420 c 1,308,-1
993 321 m 1,314,-1
 796 175 l 1,315,316
 794 153 794 153 791 135 c 1,317,-1
 976 271 l 1,318,319
 985 295 985 295 993 321 c 1,314,-1
1025 476 m 1,320,-1
 989 449 l 1,321,322
 890 378 890 378 806 317 c 1,323,324
 805 294 805 294 804 272 c 1,325,-1
 1018 431 l 1,326,327
 1022 453 1022 453 1025 476 c 1,320,-1
972 259 m 1,328,-1
 789 125 l 1,329,330
 783 89 783 89 774 64 c 1,331,-1
 936 183 l 1,332,333
 954 214 954 214 972 259 c 1,328,-1
766 42 m 1,334,335
 804 54 804 54 838 76 c 1,336,-1
 862 94 l 1,337,338
 898 124 898 124 926 166 c 1,339,-1
 770 52 l 1,340,341
 768 47 768 47 766 42 c 1,334,335
EndSplineSet
Validated: 3073
Layer: 3
SplineSet
752 708 m 132,-1,0
 752 906 752 906 749 1038 c 132,-1,1
 746 1170 746 1170 736 1248 c 132,-1,2
 726 1326 726 1326 706.5 1359 c 132,-1,3
 687 1392 687 1392 656 1392 c 4,4,5
 623 1392 623 1392 602 1358 c 4,6,7
 582 1326 582 1326 573 1248 c 132,-1,8
 564 1170 564 1170 561 1039 c 132,-1,9
 558 908 558 908 558 708 c 134,-1,10
 558 508 558 508 561 378 c 132,-1,11
 564 248 564 248 573 169 c 132,-1,12
 582 90 582 90 602.5 57 c 132,-1,13
 623 24 623 24 656 24 c 4,14,15
 690 24 690 24 708 57 c 132,-1,16
 726 90 726 90 736 169 c 132,-1,17
 746 248 746 248 749 379 c 132,-1,18
 752 510 752 510 752 708 c 132,-1,0
219 900.5 m 132,-1,18
 228 995 228 995 249 1077.5 c 132,-1,19
 270 1160 270 1160 303.5 1228 c 132,-1,20
 337 1296 337 1296 385 1345.5 c 132,-1,21
 433 1395 433 1395 501 1422 c 4,22,23
 567 1448 567 1448 655 1448 c 132,-1,24
 743 1448 743 1448 809 1421.5 c 132,-1,25
 875 1395 875 1395 924 1345.5 c 132,-1,26
 973 1296 973 1296 1005.5 1228 c 132,-1,27
 1038 1160 1038 1160 1059 1078 c 4,28,29
 1098 925 1098 925 1098 708 c 4,30,31
 1098 494 1098 494 1059 340 c 4,32,33
 1038 258 1038 258 1005.5 189 c 132,-1,34
 973 120 973 120 924 70.5 c 132,-1,35
 875 21 875 21 809 -5.5 c 132,-1,36
 743 -32 743 -32 656 -32 c 132,-1,37
 569 -32 569 -32 502 -5.5 c 132,-1,38
 435 21 435 21 386.5 69.5 c 132,-1,39
 338 118 338 118 303 189 c 4,40,41
 237 325 237 325 219 516 c 4,42,43
 210 609 210 609 210 707.5 c 132,-1,44
 210 806 210 806 219 900.5 c 132,-1,18
600 711 m 132,-1,44
 600 757 600 757 616 787.5 c 132,-1,45
 632 818 632 818 654 818 c 132,-1,46
 676 818 676 818 692 788 c 4,47,48
 708 756 708 756 708 710.5 c 132,-1,49
 708 665 708 665 692 634.5 c 132,-1,50
 676 604 676 604 654 604 c 132,-1,51
 632 604 632 604 616 634 c 4,52,53
 600 665 600 665 600 711 c 132,-1,44
EndSplineSet
EndChar

StartChar: one
Encoding: 49 49 17
Width: 812
GlyphClass: 2
Flags: W
LayerCount: 4
Back
SplineSet
140 80 m 5,0,-1
 240 80 l 5,1,-1
 240 1244 l 5,2,-1
 140 1244 l 5,3,-1
 140 1324 l 5,4,5
 214 1324 214 1324 271 1351 c 132,-1,6
 328 1378 328 1378 364 1418 c 5,7,-1
 604 1418 l 5,8,-1
 604 80 l 5,9,-1
 702 80 l 5,10,-1
 702 0 l 5,11,-1
 140 0 l 5,12,-1
 140 80 l 5,0,-1
EndSplineSet
Fore
SplineSet
140 1324 m 1,0,1
 279 1324 279 1324 364 1418 c 1,2,-1
 604 1418 l 1,3,-1
 604 80 l 1,4,-1
 702 80 l 1,5,-1
 702 0 l 1,6,-1
 140 0 l 1,7,-1
 140 80 l 1,8,-1
 240 80 l 1,9,-1
 240 1244 l 1,10,-1
 140 1244 l 1,11,-1
 140 1324 l 1,0,1
473 1353 m 1,12,-1
 391 1353 l 1,13,14
 354 1320 354 1320 305 1295 c 1,15,-1
 305 1195 l 1,16,17
 341 1219 341 1219 376 1242 c 1,18,-1
 473 1353 l 1,12,-1
484 1353 m 1,19,-1
 381 1236 l 1,20,-1
 305 1186 l 1,21,-1
 305 1132 l 1,22,23
 337 1157 337 1157 491 1267 c 1,24,-1
 539 1315 l 1,25,-1
 539 1353 l 1,26,-1
 484 1353 l 1,19,-1
539 195 m 1,27,-1
 539 271 l 1,28,-1
 305 99 l 1,29,-1
 305 65 l 1,30,-1
 357 65 l 1,31,-1
 362 69 l 1,32,-1
 539 195 l 1,27,-1
539 280 m 1,33,-1
 539 318 l 1,34,-1
 305 160 l 1,35,-1
 305 108 l 1,36,-1
 539 280 l 1,33,-1
539 67 m 1,37,-1
 536 65 l 1,38,-1
 539 65 l 1,39,-1
 539 67 l 1,37,-1
539 77 m 1,40,-1
 539 124 l 1,41,42
 492 91 492 91 457 65 c 1,43,-1
 523 65 l 1,44,-1
 539 77 l 1,40,-1
539 186 m 1,45,-1
 369 65 l 1,46,-1
 444 65 l 1,47,48
 494 101 494 101 539 133 c 1,49,-1
 539 186 l 1,45,-1
539 387 m 1,50,-1
 305 213 l 1,51,-1
 305 169 l 1,52,-1
 539 327 l 1,53,-1
 539 387 l 1,50,-1
539 396 m 1,54,-1
 539 445 l 1,55,-1
 305 268 l 1,56,-1
 305 222 l 1,57,-1
 539 396 l 1,54,-1
539 454 m 1,58,-1
 539 496 l 1,59,-1
 305 321 l 1,60,-1
 305 277 l 1,61,-1
 539 454 l 1,58,-1
539 505 m 1,62,-1
 539 533 l 1,63,-1
 305 367 l 1,64,-1
 305 331 l 1,65,-1
 539 505 l 1,62,-1
539 601 m 1,66,-1
 366 483 l 1,67,-1
 305 438 l 1,68,-1
 305 376 l 1,69,-1
 539 542 l 1,70,-1
 539 601 l 1,66,-1
539 677 m 1,71,-1
 436 598 l 1,72,-1
 305 508 l 1,73,-1
 305 447 l 1,74,-1
 362 489 l 1,75,-1
 539 610 l 1,76,-1
 539 677 l 1,71,-1
539 744 m 1,77,78
 482 702 482 702 305 580 c 1,79,-1
 305 517 l 1,80,-1
 432 604 l 1,81,82
 485 645 485 645 539 686 c 1,83,-1
 539 744 l 1,77,78
539 845 m 1,84,-1
 406 753 l 1,85,-1
 305 669 l 1,86,-1
 305 588 l 1,87,-1
 472 704 l 1,88,-1
 539 753 l 1,89,-1
 539 845 l 1,84,-1
539 945 m 1,90,-1
 356 803 l 1,91,-1
 305 770 l 1,92,-1
 305 678 l 1,93,-1
 402 759 l 1,94,-1
 539 854 l 1,95,-1
 539 945 l 1,90,-1
539 1052 m 1,96,-1
 442 973 l 1,97,-1
 356 876 l 2,98,99
 329 845 329 845 326 843 c 2,100,-1
 305 829 l 1,101,-1
 305 779 l 1,102,-1
 352 809 l 1,103,104
 446 882 446 882 539 955 c 1,105,-1
 539 1052 l 1,96,-1
539 1140 m 1,106,107
 404 1010 404 1010 376 988 c 2,108,-1
 305 931 l 1,109,-1
 305 838 l 1,110,-1
 321 849 l 1,111,-1
 436 979 l 2,112,113
 467 1015 467 1015 539 1063 c 1,114,-1
 539 1140 l 1,106,107
539 1213 m 1,115,-1
 305 1008 l 1,116,-1
 305 941 l 1,117,118
 338 968 338 968 371 994 c 1,119,-1
 539 1154 l 1,120,-1
 539 1213 l 1,115,-1
539 1303 m 1,121,122
 498 1262 498 1262 496 1261 c 2,123,-1
 341 1151 l 1,124,-1
 305 1123 l 1,125,-1
 305 1018 l 1,126,-1
 539 1224 l 1,127,-1
 539 1303 l 1,121,122
EndSplineSet
Validated: 2049
Layer: 3
SplineSet
246 1250 m 5,0,-1
 146 1250 l 5,1,-1
 146 1318 l 5,2,3
 218 1319 218 1319 274.5 1345.5 c 132,-1,4
 331 1372 331 1372 367 1412 c 5,5,-1
 598 1412 l 5,6,-1
 598 74 l 5,7,-1
 696 74 l 5,8,-1
 696 6 l 5,9,-1
 146 6 l 5,10,-1
 146 74 l 5,11,-1
 246 74 l 5,12,-1
 246 1250 l 5,0,-1
EndSplineSet
EndChar

StartChar: two
Encoding: 50 50 18
Width: 1166
GlyphClass: 2
Flags: W
LayerCount: 4
Back
SplineSet
186 98 m 5,0,1
 232 166 232 166 280 248 c 4,2,3
 330 330 330 330 376 418 c 4,4,5
 424 506 424 506 466 600 c 4,6,7
 510 694 510 694 542 787 c 132,-1,8
 574 880 574 880 593 971 c 132,-1,9
 612 1062 612 1062 612 1144 c 4,10,11
 612 1214 612 1214 602 1260 c 132,-1,12
 592 1306 592 1306 574 1334 c 132,-1,13
 556 1362 556 1362 532 1373 c 132,-1,14
 508 1384 508 1384 482 1384 c 4,15,16
 452 1384 452 1384 422 1374 c 5,17,18
 446 1360 446 1360 468 1338 c 132,-1,19
 490 1316 490 1316 504 1286 c 4,20,21
 520 1256 520 1256 528 1222 c 4,22,23
 536 1186 536 1186 536 1148 c 4,24,25
 536 1096 536 1096 522 1052 c 132,-1,27
 508 1008 508 1008 483 974 c 132,-1,28
 458 940 458 940 426 922 c 132,-1,30
 394 904 394 904 354 904 c 260,31,32
 316 904 316 904 283 922 c 132,-1,33
 250 940 250 940 224 974 c 132,-1,34
 198 1008 198 1008 184 1052 c 132,-1,36
 170 1096 170 1096 170 1148 c 4,37,38
 170 1222 170 1222 198 1280 c 132,-1,40
 226 1338 226 1338 279 1377 c 132,-1,41
 332 1416 332 1416 405 1435 c 132,-1,42
 478 1454 478 1454 566 1454 c 4,43,44
 616 1454 616 1454 664 1444 c 4,45,46
 714 1434 714 1434 758 1412 c 132,-1,48
 802 1390 802 1390 838 1357 c 132,-1,49
 874 1324 874 1324 902 1275 c 132,-1,50
 930 1226 930 1226 944 1164 c 4,51,52
 960 1102 960 1102 960 1024 c 4,53,54
 960 940 960 940 942 876 c 4,55,56
 926 810 926 810 894 758 c 4,57,58
 864 704 864 704 820 664 c 4,59,60
 764 612 764 612 724 592 c 4,61,62
 626 542 626 542 616 536 c 4,63,64
 570 518 570 518 524 498 c 4,65,66
 524 498 524 498 500 450 c 5,67,-1
 886 450 l 5,68,69
 906 486 906 486 920 524 c 4,70,71
 934 560 934 560 946 598 c 5,72,-1
 980 596 l 5,73,-1
 938 0 l 5,74,-1
 186 0 l 5,75,-1
 186 98 l 5,0,1
EndSplineSet
Fore
SplineSet
886 450 m 1,0,1
 917 505 917 505 946 598 c 1,2,-1
 980 596 l 1,3,-1
 938 0 l 1,4,-1
 186 0 l 1,5,-1
 186 98 l 1,6,7
 350 341 350 341 466 600 c 1,8,9
 611 911 611 911 611 1147.5 c 128,-1,10
 611 1384 611 1384 482 1384 c 0,11,12
 452 1384 452 1384 422 1374 c 1,13,14
 536 1307 536 1307 536 1148 c 0,15,16
 536 1046 536 1046 483 974 c 0,17,18
 432 904 432 904 362 904 c 0,19,20
 275 904 275 904 222.5 976 c 128,-1,21
 170 1048 170 1048 170 1134 c 0,22,23
 170 1138 170 1138 170 1141 c 2,24,25
 170 1141 170 1141 170 1148 c 0,26,27
 170 1332 170 1332 334 1409 c 0,28,29
 428 1454 428 1454 566 1454 c 0,30,31
 812 1454 812 1454 911 1259 c 0,32,33
 960 1162 960 1162 960 1024 c 0,34,35
 960 772 960 772 789 636 c 0,36,37
 753 606 753 606 735 597 c 128,-1,38
 717 588 717 588 709.5 584.5 c 128,-1,39
 702 581 702 581 685 572 c 0,40,41
 626 542 626 542 616 536 c 0,42,43
 570 518 570 518 524 498 c 1,44,-1
 500 450 l 1,45,-1
 886 450 l 1,0,1
341 1334 m 1,46,47
 328 1325 328 1325 316 1316 c 2,48,-1
 276 1284 l 1,49,50
 235 1230 235 1230 235 1149 c 1,51,52
 306 1195 306 1195 376 1242 c 1,53,-1
 421 1293 l 1,54,55
 385 1328 385 1328 341 1334 c 1,46,47
426 1288 m 1,56,-1
 381 1236 l 1,57,-1
 235 1140 l 1,58,59
 236 1109 236 1109 243 1083 c 1,60,-1
 337 1157 l 1,61,-1
 454 1240 l 1,62,63
 441 1271 441 1271 426 1288 c 1,56,-1
471 1153 m 1,64,-1
 291 996 l 1,65,66
 314 974 314 974 341 970 c 1,67,68
 356 982 356 982 371 994 c 1,69,-1
 463 1081 l 1,70,71
 471 1111 471 1111 471 1129.5 c 128,-1,72
 471 1148 471 1148 471 1153 c 1,64,-1
457 1233 m 1,73,-1
 341 1151 l 1,74,-1
 246 1076 l 2,75,76
 245 1076 245 1076 250 1058 c 0,77,78
 257 1032 257 1032 286 1001 c 1,79,-1
 470 1163 l 1,80,81
 469 1202 469 1202 457 1233 c 1,73,-1
456 1061 m 1,82,83
 394 1002 394 1002 376 988 c 2,84,-1
 352 969 l 1,85,86
 353 969 353 969 365 969 c 0,87,88
 399 969 399 969 432 1014 c 0,89,90
 446 1034 446 1034 456 1061 c 1,82,83
866 849 m 1,91,-1
 571 623 l 1,92,-1
 538 600 l 1,93,94
 532 586 532 586 528 578.5 c 128,-1,95
 524 571 524 571 523 568 c 1,96,97
 592 597 592 597 668 636 c 1,98,-1
 800 736 l 1,99,100
 842 785 842 785 866 849 c 1,91,-1
871 863 m 1,101,102
 884 904 884 904 890 943 c 1,103,-1
 584 711 l 1,104,105
 565 662 565 662 543 613 c 1,106,-1
 567 629 l 1,107,-1
 871 863 l 1,101,102
707 657 m 1,108,109
 728 670 728 670 755 694 c 1,110,111
 733 677 733 677 707 657 c 1,108,109
618 811 m 1,112,-1
 787 939 l 1,113,-1
 895 1014 l 1,114,115
 895 1017 895 1017 895 1039.5 c 128,-1,116
 895 1062 895 1062 891 1097 c 1,117,-1
 756 988 l 1,118,-1
 662 923 l 1,119,-1
 645 906 l 1,120,121
 633 858 633 858 618 811 c 1,112,-1
648 921 m 1,122,123
 655 928 655 928 657 929 c 2,124,-1
 752 994 l 1,125,-1
 889 1106 l 1,126,127
 886 1128 886 1128 883 1141 c 128,-1,128
 880 1154 880 1154 878 1160 c 1,129,130
 858 1143 858 1143 851 1138 c 2,131,-1
 665 1000 l 1,132,133
 658 964 658 964 648 921 c 1,122,123
588 723 m 1,134,-1
 891 954 l 1,135,136
 894 978 894 978 895 1004 c 1,137,-1
 791 933 l 1,138,-1
 615 800 l 1,139,140
 602 761 602 761 588 723 c 1,134,-1
675 1080 m 1,141,-1
 766 1169 l 1,142,-1
 843 1246 l 1,143,144
 824 1278 824 1278 803 1300 c 1,145,146
 763 1255 763 1255 756 1248 c 2,147,-1
 676 1176 l 1,148,149
 677 1158 677 1158 677 1134 c 128,-1,150
 677 1110 677 1110 675 1080 c 1,141,-1
666 1011 m 1,151,-1
 847 1144 l 1,152,-1
 876 1169 l 1,153,154
 865 1209 865 1209 848 1239 c 1,155,-1
 772 1163 l 2,156,157
 722 1113 722 1113 673 1067 c 1,158,159
 671 1040 671 1040 666 1011 c 1,151,-1
797 1307 m 1,160,161
 774 1329 774 1329 745 1345 c 1,162,-1
 679 1276 l 2,163,164
 673 1270 673 1270 667 1265 c 1,165,166
 673 1231 673 1231 676 1186 c 1,167,-1
 751 1254 l 1,168,-1
 797 1307 l 1,160,161
649 1330 m 1,169,-1
 685 1372 l 1,170,171
 642 1386 642 1386 617 1386 c 1,172,173
 635 1361 635 1361 649 1330 c 1,169,-1
652 1322 m 1,174,175
 660 1300 660 1300 665 1275 c 1,176,-1
 735 1350 l 1,177,178
 715 1361 715 1361 693 1369 c 1,179,-1
 652 1322 l 1,174,175
878 67 m 1,180,-1
 875 65 l 1,181,-1
 877 65 l 1,182,-1
 878 67 l 1,180,-1
878 77 m 1,183,-1
 880 98 l 1,184,-1
 835 65 l 1,185,-1
 864 65 l 1,186,-1
 878 77 l 1,183,-1
880 107 m 1,187,-1
 882 134 l 1,188,-1
 788 65 l 1,189,-1
 823 65 l 1,190,-1
 880 107 l 1,187,-1
883 144 m 1,191,-1
 887 197 l 1,192,-1
 707 65 l 1,193,-1
 776 65 l 1,194,-1
 883 144 l 1,191,-1
887 207 m 1,195,-1
 890 244 l 1,196,-1
 648 65 l 1,197,-1
 694 65 l 1,198,-1
 887 207 l 1,195,-1
891 255 m 1,199,-1
 896 331 l 1,200,-1
 536 65 l 1,201,-1
 636 65 l 1,202,-1
 891 255 l 1,199,-1
897 341 m 1,203,-1
 900 385 l 1,204,205
 597 166 597 166 457 65 c 1,206,-1
 523 65 l 1,207,-1
 897 341 l 1,203,-1
369 65 m 1,208,-1
 444 65 l 1,209,210
 753 288 753 288 888 385 c 1,211,-1
 824 385 l 1,212,-1
 626 248 l 1,213,-1
 369 65 l 1,208,-1
258 65 m 1,214,-1
 357 65 l 1,215,-1
 362 69 l 1,216,-1
 622 254 l 1,217,-1
 812 385 l 1,218,-1
 693 385 l 1,219,-1
 258 65 l 1,214,-1
251 68 m 1,220,-1
 681 385 l 1,221,-1
 631 385 l 1,222,-1
 597 357 l 1,223,-1
 302 158 l 1,224,225
 276 116 276 116 251 78 c 1,226,-1
 251 68 l 1,220,-1
311 173 m 1,227,-1
 593 363 l 1,228,-1
 619 385 l 1,229,-1
 536 385 l 1,230,-1
 358 252 l 1,231,232
 334 212 334 212 311 173 c 1,227,-1
368 269 m 1,233,-1
 524 385 l 1,234,-1
 460 385 l 1,235,-1
 414 350 l 1,236,237
 391 309 391 309 368 269 c 1,233,-1
422 366 m 1,238,-1
 447 385 l 1,239,-1
 432 385 l 1,240,241
 427 375 427 375 422 366 c 1,238,-1
EndSplineSet
Validated: 3073
Layer: 3
SplineSet
936 878 m 4,0,1
 920 813 920 813 889 761 c 6,2,3
 859 707 859 707 816 668 c 4,4,5
 759 615 759 615 721 597 c 4,6,-1
 613 541 l 4,7,-1
 520 503 l 5,8,-1
 490 444 l 5,9,-1
 890 444 l 5,10,11
 921 502 921 502 950 592 c 5,12,-1
 974 590 l 5,13,-1
 932 6 l 5,14,-1
 192 6 l 5,15,-1
 192 96 l 5,16,17
 237 164 237 164 285 245 c 4,18,19
 335 327 335 327 381 415 c 4,20,21
 429 503 429 503 471 597 c 4,22,23
 516 692 516 692 548 785 c 4,24,25
 618 989 618 989 618 1144 c 4,26,27
 618 1277 618 1277 579 1338 c 4,28,29
 561 1366 561 1366 535 1378 c 132,-1,30
 509 1390 509 1390 480 1390 c 132,-1,31
 451 1390 451 1390 420 1380 c 6,32,-1
 408 1375 l 5,33,-1
 419 1369 l 6,34,35
 442 1355 442 1355 463.5 1333.5 c 132,-1,36
 485 1312 485 1312 499 1283 c 6,37,38
 530 1224 530 1224 530 1148 c 4,39,40
 530 1097 530 1097 516 1054 c 132,-1,41
 502 1011 502 1011 478 978 c 4,42,43
 428 910 428 910 354 910 c 4,44,45
 294 910 294 910 247 957 c 4,46,47
 209 996 209 996 190 1054 c 4,48,49
 176 1097 176 1097 176 1148 c 4,50,51
 176 1270 176 1270 252 1346 c 4,52,53
 310 1404 310 1404 407 1429 c 4,54,55
 479 1448 479 1448 566 1448 c 4,56,57
 616 1448 616 1448 663 1438 c 4,58,59
 762 1419 762 1419 834 1353 c 4,60,61
 870 1320 870 1320 899 1269 c 4,62,63
 924 1224 924 1224 938 1163 c 4,64,65
 954 1101 954 1101 954 1021 c 132,-1,66
 954 941 954 941 936 878 c 4,0,1
EndSplineSet
EndChar

StartChar: three
Encoding: 51 51 19
Width: 1178
GlyphClass: 2
Flags: W
LayerCount: 4
Back
SplineSet
182 270 m 4,0,1
 182 322 182 322 197 366 c 132,-1,2
 212 410 212 410 237 443 c 132,-1,3
 262 476 262 476 294 496 c 4,4,5
 326 514 326 514 366 514 c 260,6,7
 404 514 404 514 438 495 c 132,-1,8
 472 476 472 476 496 443 c 132,-1,9
 520 410 520 410 535 366 c 132,-1,10
 550 322 550 322 550 270 c 4,11,12
 550 232 550 232 542 198 c 132,-1,13
 534 164 534 164 520 135 c 132,-1,14
 506 106 506 106 485 83 c 132,-1,15
 464 60 464 60 440 46 c 5,16,17
 458 40 458 40 477 37 c 132,-1,18
 496 34 496 34 512 34 c 4,19,20
 544 34 544 34 569 48 c 132,-1,21
 594 62 594 62 612 97 c 132,-1,22
 630 132 630 132 640 190 c 132,-1,23
 650 248 650 248 650 336 c 4,24,25
 650 414 650 414 636 472 c 132,-1,26
 622 530 622 530 596 571 c 132,-1,27
 570 612 570 612 534 636 c 132,-1,28
 498 660 498 660 452 664 c 5,29,-1
 452 772 l 5,30,31
 496 778 496 778 531 806 c 132,-1,32
 566 834 566 834 593 879 c 132,-1,33
 620 924 620 924 636 984 c 132,-1,34
 652 1044 652 1044 652 1118 c 4,35,36
 652 1190 652 1190 641 1240 c 132,-1,37
 630 1290 630 1290 612 1322 c 132,-1,38
 594 1354 594 1354 568 1367 c 132,-1,39
 542 1380 542 1380 514 1380 c 4,40,41
 492 1380 492 1380 467 1377 c 132,-1,42
 442 1374 442 1374 414 1360 c 5,43,44
 444 1352 444 1352 472 1329 c 132,-1,45
 500 1306 500 1306 519 1275 c 132,-1,46
 538 1244 538 1244 549 1204 c 132,-1,47
 560 1164 560 1164 560 1118 c 4,48,49
 560 1066 560 1066 545 1022 c 132,-1,50
 530 978 530 978 506 946 c 132,-1,51
 482 914 482 914 449 894 c 132,-1,52
 416 874 416 874 378 874 c 260,53,54
 340 874 340 874 306 894 c 132,-1,55
 272 914 272 914 248 946 c 132,-1,56
 224 978 224 978 209 1023 c 132,-1,57
 194 1068 194 1068 194 1118 c 4,58,59
 194 1194 194 1194 221 1255 c 132,-1,60
 248 1316 248 1316 298 1361 c 132,-1,61
 348 1406 348 1406 419 1430 c 132,-1,62
 490 1454 490 1454 578 1454 c 4,63,64
 626 1454 626 1454 674 1445 c 132,-1,65
 722 1436 722 1436 767 1416 c 132,-1,66
 812 1396 812 1396 849 1366 c 132,-1,67
 886 1336 886 1336 915 1294 c 132,-1,68
 944 1252 944 1252 960 1197 c 132,-1,69
 976 1142 976 1142 976 1074 c 4,70,71
 976 908 976 908 877 825 c 132,-1,72
 778 742 778 742 572 738 c 5,73,74
 668 736 668 736 748 716 c 132,-1,75
 828 696 828 696 884 653 c 132,-1,76
 940 610 940 610 971 541 c 132,-1,77
 1002 472 1002 472 1002 372 c 4,78,79
 1002 266 1002 266 974 188 c 132,-1,80
 946 110 946 110 894 60 c 132,-1,81
 842 10 842 10 766 -14 c 132,-1,82
 690 -38 690 -38 598 -38 c 132,-1,84
 506 -38 506 -38 429 -19 c 132,-1,85
 352 0 352 0 297 39 c 132,-1,86
 242 78 242 78 212 135 c 132,-1,87
 182 192 182 192 182 270 c 4,0,1
EndSplineSet
Fore
SplineSet
860 119 m 1,0,-1
 785 63 l 1,1,2
 834 87 834 87 860 119 c 1,0,-1
919 230 m 1,3,4
 925 251 925 251 930 274 c 1,5,-1
 680 89 l 1,6,7
 680 89 680 89 669.5 67 c 128,-1,8
 659 45 659 45 645 29 c 1,9,-1
 919 230 l 1,3,4
916 218 m 1,10,-1
 659 30 l 1,11,12
 714 36 714 36 757 52 c 1,13,-1
 876 139 l 1,14,15
 902 175 902 175 916 218 c 1,10,-1
937 362 m 1,16,-1
 706 191 l 1,17,18
 698 140 698 140 685 102 c 1,19,-1
 931 285 l 1,20,21
 937 321 937 321 937 362 c 1,16,-1
935 410 m 1,22,23
 811 320 811 320 712 249 c 1,24,25
 710 224 710 224 707 201 c 1,26,-1
 937 371 l 1,27,28
 936 391 936 391 935 410 c 1,22,23
789 634 m 1,29,-1
 679 551 l 1,30,31
 687 532 687 532 693 512 c 1,32,-1
 828 613 l 1,33,34
 810 625 810 625 789 634 c 1,29,-1
744 650 m 1,35,-1
 661 588 l 1,36,37
 669 573 669 573 676 558 c 1,38,-1
 782 637 l 1,39,40
 764 644 764 644 744 650 c 1,35,-1
708 658 m 1,41,42
 679 636 679 636 647 612 c 1,43,44
 653 603 653 603 658 594 c 1,45,-1
 735 652 l 1,46,47
 734 652 734 652 708 658 c 1,41,42
632 670 m 1,48,-1
 613 655 l 1,49,50
 629 638 629 638 643 618 c 1,51,-1
 699 660 l 1,52,53
 666 667 666 667 632 670 c 1,48,-1
621 671 m 1,54,55
 608 672 608 672 594 672 c 1,56,57
 601 666 601 666 607 660 c 1,58,-1
 621 671 l 1,54,55
885 940 m 1,59,-1
 733 824 l 1,60,61
 844 856 844 856 885 940 c 1,59,-1
696 1373 m 1,62,-1
 673 1346 l 1,63,64
 683 1326 683 1326 691 1302 c 1,65,66
 741 1356 741 1356 741 1357 c 0,67,68
 719 1366 719 1366 696 1373 c 1,62,-1
669 1354 m 1,69,-1
 687 1375 l 1,70,71
 668 1380 668 1380 649 1383 c 1,72,73
 660 1370 660 1370 669 1354 c 1,69,-1
482 229 m 1,74,-1
 316 107 l 1,75,76
 328 96 328 96 342 87 c 1,77,78
 342 87 342 87 350 87 c 0,79,80
 400 87 400 87 433 123 c 0,81,82
 475 169 475 169 482 229 c 1,74,-1
457 383 m 1,83,-1
 250 227 l 1,84,85
 253 206 253 206 260 188 c 1,86,-1
 473 347 l 1,87,88
 466 367 466 367 457 383 c 1,83,-1
247 278 m 1,89,90
 247 278 247 278 247 265 c 128,-1,91
 247 252 247 252 249 235 c 1,92,-1
 454 390 l 1,93,94
 445 406 445 406 433 417 c 1,95,-1
 247 278 l 1,89,90
1002 372 m 2,96,97
 1002 372 1002 372 1002 369 c 0,98,99
 1002 61 1002 61 766 -14 c 0,100,101
 690 -38 690 -38 598 -38 c 0,102,103
 319 -38 319 -38 219 122 c 0,104,105
 182 178 182 178 182 271.5 c 128,-1,106
 182 365 182 365 232 436 c 1,107,108
 247 467 247 467 286.5 490.5 c 128,-1,109
 326 514 326 514 366 514 c 0,110,111
 440 514 440 514 491 450 c 0,112,113
 494 447 494 447 496 443 c 0,114,115
 550 369 550 369 550 261.5 c 128,-1,116
 550 154 550 154 485 83 c 0,117,118
 464 60 464 60 440 46 c 1,119,120
 476 34 476 34 510 34 c 0,121,122
 580 34 580 34 612 97 c 0,123,124
 650 173 650 173 650 336 c 0,125,126
 650 559 650 559 534 636 c 0,127,128
 498 660 498 660 452 664 c 1,129,-1
 452 772 l 1,130,131
 536 783 536 783 593 879 c 0,132,133
 652 977 652 977 652 1118 c 0,134,135
 652 1380 652 1380 514 1380 c 0,136,137
 455 1380 455 1380 414 1360 c 1,138,139
 416 1359 416 1359 418 1359 c 0,140,141
 474 1342 474 1342 512 1285 c 0,142,143
 560 1210 560 1210 560 1137 c 2,144,145
 560 1137 560 1137 560 1101.5 c 128,-1,146
 560 1066 560 1066 545 1022 c 128,-1,147
 530 978 530 978 506 946 c 128,-1,148
 482 914 482 914 449 894 c 128,-1,149
 416 874 416 874 378 874 c 0,150,151
 302 874 302 874 248 946 c 128,-1,152
 194 1018 194 1018 194 1106 c 2,153,154
 194 1106 194 1106 194 1118 c 0,155,156
 194 1267 194 1267 297.5 1360.5 c 128,-1,157
 401 1454 401 1454 578 1454 c 0,158,159
 805 1454 805 1454 915 1294 c 0,160,161
 976 1209 976 1209 976 1074 c 2,162,163
 976 1074 976 1074 976 1057 c 0,164,165
 976 908 976 908 877 825 c 128,-1,166
 778 742 778 742 572 738 c 1,167,168
 885 731 885 731 971 541 c 0,169,170
 1002 472 1002 472 1002 372 c 2,96,97
756 988 m 1,171,-1
 692 944 l 1,172,173
 671 876 671 876 635 824 c 1,174,-1
 787 939 l 1,175,-1
 908 1023 l 1,176,177
 911 1047 911 1047 911 1070.5 c 128,-1,178
 911 1094 911 1094 909 1112 c 1,179,-1
 756 988 l 1,171,-1
267 349 m 1,180,-1
 398 442 l 1,181,182
 382 449 382 449 362 449 c 0,183,184
 342 450 342 450 324 438 c 0,185,186
 278 407 278 407 259 345 c 0,187,188
 259 344 259 344 258 343 c 1,189,-1
 267 349 l 1,180,-1
271 343 m 1,190,-1
 255 332 l 1,191,192
 249 311 249 311 248 287 c 1,193,-1
 428 423 l 1,194,195
 418 432 418 432 406 438 c 1,196,-1
 271 343 l 1,190,-1
442 973 m 1,197,-1
 432 961 l 1,198,199
 437 965 437 965 449 979 c 1,200,-1
 442 973 l 1,197,-1
333 954 m 1,201,202
 353 939 353 939 373 939 c 128,-1,203
 393 939 393 939 405 944 c 1,204,-1
 436 979 l 2,205,206
 450 995 450 995 471 1012 c 1,207,208
 491 1052 491 1052 494 1097 c 1,209,210
 398 1006 398 1006 376 988 c 2,211,-1
 333 954 l 1,201,202
371 994 m 1,212,-1
 495 1112 l 1,213,214
 495 1112 495 1112 495 1128.5 c 128,-1,215
 495 1145 495 1145 490 1170 c 1,216,-1
 292 997 l 1,217,218
 304 977 304 977 326 958 c 1,219,220
 349 976 349 976 371 994 c 1,212,-1
341 1151 m 1,221,-1
 261 1088 l 1,222,223
 266 1046 266 1046 288 1003 c 1,224,-1
 488 1179 l 1,225,226
 480 1212 480 1212 465 1239 c 1,227,-1
 341 1151 l 1,221,-1
381 1236 m 1,228,-1
 261 1157 l 1,229,230
 259 1138 259 1138 259 1122.5 c 128,-1,231
 259 1107 259 1107 260 1096 c 1,232,-1
 337 1157 l 1,233,-1
 461 1245 l 1,234,235
 447 1266 447 1266 424 1284 c 1,236,-1
 381 1236 l 1,228,-1
417 1289 m 1,237,238
 397 1301 397 1301 370 1301 c 128,-1,239
 343 1301 343 1301 322 1293 c 1,240,241
 275 1240 275 1240 263 1167 c 1,242,243
 320 1204 320 1204 376 1242 c 1,244,-1
 417 1289 l 1,237,238
766 1169 m 1,245,-1
 858 1261 l 1,246,247
 838 1289 838 1289 813 1311 c 1,248,249
 765 1255 765 1255 756 1248 c 2,250,-1
 712 1208 l 1,251,252
 717 1168 717 1168 717 1122 c 1,253,-1
 766 1169 l 1,245,-1
772 1163 m 2,254,255
 744 1136 744 1136 717 1109 c 1,256,257
 717 1076 717 1076 713 1045 c 1,258,-1
 847 1144 l 1,259,-1
 896 1186 l 1,260,261
 884 1224 884 1224 863 1254 c 1,262,-1
 772 1163 l 2,254,255
751 1254 m 1,263,-1
 806 1317 l 1,264,265
 781 1337 781 1337 751 1352 c 1,266,-1
 695 1292 l 1,267,268
 706 1258 706 1258 711 1217 c 1,269,-1
 751 1254 l 1,263,-1
752 994 m 1,270,-1
 909 1122 l 1,271,272
 906 1151 906 1151 898 1177 c 1,273,274
 861 1145 861 1145 851 1138 c 2,275,-1
 712 1035 l 1,276,277
 707 1000 707 1000 702 980.5 c 128,-1,278
 697 961 697 961 696 955 c 1,279,-1
 752 994 l 1,270,-1
791 933 m 1,280,-1
 622 805 l 1,281,282
 674 809 674 809 716 820 c 1,283,284
 803 887 803 887 891 953 c 1,285,286
 902 980 902 980 907 1013 c 1,287,-1
 791 933 l 1,280,-1
790 516 m 1,288,-1
 707 447 l 1,289,290
 710 428 710 428 712 408 c 1,291,-1
 896 544 l 1,292,293
 884 563 884 563 869 579 c 1,294,-1
 790 516 l 1,288,-1
832 399 m 1,295,-1
 927 469 l 1,296,297
 917 510 917 510 900 537 c 1,298,-1
 712 399 l 1,299,300
 715 367 715 367 715 346 c 2,301,302
 715 346 715 346 715 318 c 1,303,-1
 832 399 l 1,295,-1
863 585 m 1,304,305
 855 593 855 593 835 608 c 1,306,-1
 695 504 l 1,307,308
 702 478 702 478 705 457 c 1,309,-1
 784 522 l 1,310,-1
 863 585 l 1,304,305
928 462 m 1,311,312
 836 393 836 393 715 309 c 1,313,314
 715 283 715 283 713 259 c 1,315,316
 866 370 866 370 935 420 c 1,317,318
 933 442 933 442 928 462 c 1,311,312
300 157 m 1,319,-1
 282 144 l 1,320,321
 294 126 294 126 310 112 c 1,322,-1
 483 239 l 1,323,324
 485 256 485 256 485 267 c 2,325,326
 485 267 485 267 485 282 c 1,327,-1
 300 157 l 1,319,-1
296 163 m 2,328,-1
 484 290 l 1,329,330
 482 315 482 315 475 340 c 1,331,-1
 262 181 l 1,332,333
 265 173 265 173 269.5 165.5 c 128,-1,334
 274 158 274 158 278 151 c 1,335,336
 288 158 288 158 296 163 c 2,328,-1
EndSplineSet
Validated: 3073
Layer: 3
SplineSet
188 270 m 4,0,1
 188 321 188 321 202.5 364 c 132,-1,2
 217 407 217 407 241.5 439.5 c 132,-1,3
 266 472 266 472 297 491 c 4,4,5
 328 508 328 508 365 508 c 132,-1,6
 402 508 402 508 435 490 c 4,7,8
 498 454 498 454 529 364 c 4,9,10
 544 321 544 321 544 270 c 4,11,12
 544 199 544 199 515 138 c 4,13,14
 501 109 501 109 480.5 87 c 132,-1,15
 460 65 460 65 437 51 c 6,16,-1
 426 45 l 5,17,-1
 438 40 l 6,18,19
 475 28 475 28 512 28 c 4,20,21
 562 28 562 28 592 58 c 4,22,23
 656 122 656 122 656 336 c 4,24,25
 656 528 656 528 568 616 c 4,26,27
 522 662 522 662 458 669 c 5,28,-1
 458 767 l 5,29,30
 501 774 501 774 535 801 c 4,31,32
 545 810 545 810 554 819 c 4,33,34
 614 878 614 878 642 982 c 4,35,36
 658 1043 658 1043 658 1116.5 c 132,-1,37
 658 1190 658 1190 647 1241 c 4,38,39
 624 1345 624 1345 571 1372 c 4,40,41
 543 1386 543 1386 514 1386 c 4,42,43
 492 1386 492 1386 466 1382.5 c 132,-1,44
 440 1379 440 1379 411 1365 c 6,45,-1
 397 1358 l 5,46,-1
 412 1354 l 6,47,48
 441 1347 441 1347 468.5 1324.5 c 132,-1,49
 496 1302 496 1302 514 1272 c 4,50,51
 554 1206 554 1206 554 1115 c 4,52,53
 554 1067 554 1067 539 1024 c 4,54,55
 519 965 519 965 482 928 c 4,56,57
 435 880 435 880 378 880 c 4,58,59
 342 880 342 880 309 899 c 4,60,61
 244 938 244 938 215 1025 c 4,62,63
 200 1069 200 1069 200 1118 c 4,64,65
 200 1193 200 1193 226 1253 c 4,66,67
 250 1305 250 1305 290 1345 c 4,68,69
 343 1398 343 1398 421 1424 c 4,70,71
 491 1448 491 1448 578 1448 c 4,72,73
 681 1448 681 1448 765 1411 c 4,74,75
 855 1371 855 1371 910 1291 c 4,76,77
 970 1204 970 1204 970 1074 c 4,78,79
 970 925 970 925 889 844 c 4,80,81
 793 748 793 748 572 744 c 6,82,-1
 512 743 l 5,83,-1
 512 733 l 5,84,-1
 572 732 l 6,85,86
 667 730 667 730 746 710 c 132,-1,87
 825 690 825 690 880.5 648.5 c 132,-1,88
 936 607 936 607 966 539 c 132,-1,89
 996 471 996 471 996 372 c 4,90,91
 996 170 996 170 892 66 c 4,92,93
 842 17 842 17 764 -8 c 4,94,95
 689 -32 689 -32 598 -32 c 132,-1,96
 507 -32 507 -32 431 -13 c 132,-1,97
 355 6 355 6 301 44 c 132,-1,98
 247 82 247 82 217.5 137.5 c 132,-1,99
 188 193 188 193 188 270 c 4,0,1
EndSplineSet
EndChar

StartChar: four
Encoding: 52 52 20
Width: 1122
GlyphClass: 2
Flags: W
LayerCount: 4
Back
SplineSet
158 448 m 5,0,-1
 578 1434 l 5,1,-1
 852 1434 l 5,2,-1
 852 448 l 5,3,-1
 972 448 l 5,4,-1
 972 360 l 5,5,-1
 852 360 l 5,6,-1
 852 80 l 5,7,-1
 952 80 l 5,8,-1
 952 0 l 5,9,-1
 388 0 l 5,10,-1
 388 80 l 5,11,-1
 488 80 l 5,12,-1
 488 360 l 5,13,-1
 158 360 l 5,14,-1
 158 448 l 5,0,-1
488 448 m 5,15,-1
 488 1012 l 5,16,-1
 250 448 l 5,17,-1
 488 448 l 5,15,-1
EndSplineSet
Fore
SplineSet
158 360 m 1,0,-1
 158 448 l 1,1,-1
 578 1434 l 1,2,-1
 852 1434 l 1,3,-1
 852 448 l 1,4,-1
 972 448 l 1,5,-1
 972 360 l 1,6,-1
 852 360 l 1,7,-1
 852 80 l 1,8,-1
 952 80 l 1,9,-1
 952 0 l 1,10,-1
 388 0 l 1,11,-1
 388 80 l 1,12,-1
 488 80 l 1,13,-1
 488 360 l 1,14,-1
 158 360 l 1,0,-1
250 448 m 1,15,-1
 488 448 l 1,16,-1
 488 1012 l 1,17,-1
 250 448 l 1,15,-1
564 1234 m 1,18,-1
 553 1209 l 1,19,-1
 553 1168 l 1,20,-1
 673 1282 l 1,21,22
 718 1332 718 1332 753 1369 c 1,23,-1
 693 1369 l 1,24,-1
 617 1281 l 1,25,-1
 564 1234 l 1,18,-1
571 1252 m 1,26,-1
 611 1287 l 1,27,-1
 682 1369 l 1,28,-1
 621 1369 l 1,29,-1
 571 1252 l 1,26,-1
767 1369 m 1,30,-1
 679 1276 l 1,31,32
 608 1207 608 1207 553 1154 c 1,33,-1
 553 1074 l 1,34,-1
 751 1254 l 1,35,-1
 787 1295 l 1,36,-1
 787 1369 l 1,37,-1
 767 1369 l 1,30,-1
787 717 m 1,38,39
 714 662 714 662 596 573 c 1,40,-1
 553 542 l 1,41,-1
 553 516 l 1,42,-1
 787 691 l 1,43,-1
 787 717 l 1,38,39
787 682 m 1,44,-1
 553 507 l 1,45,-1
 553 465 l 1,46,-1
 787 641 l 1,47,-1
 787 682 l 1,44,-1
787 788 m 1,48,-1
 571 623 l 1,49,-1
 553 611 l 1,50,-1
 553 551 l 1,51,-1
 592 579 l 1,52,-1
 787 726 l 1,53,-1
 787 788 l 1,48,-1
787 865 m 1,54,-1
 553 687 l 1,55,-1
 553 619 l 1,56,-1
 567 629 l 1,57,-1
 787 798 l 1,58,-1
 787 865 l 1,54,-1
787 930 m 1,59,-1
 606 793 l 2,60,61
 581 774 581 774 553 754 c 1,62,-1
 553 696 l 1,63,64
 553 696 553 696 787 874 c 1,65,-1
 787 930 l 1,59,-1
787 1013 m 1,66,-1
 756 988 l 1,67,-1
 662 923 l 1,68,-1
 622 883 l 1,69,-1
 616 889 l 1,70,71
 654 927 654 927 657 929 c 2,72,-1
 752 994 l 1,73,-1
 787 1022 l 1,74,-1
 787 1090 l 1,75,-1
 642 983 l 1,76,77
 565 871 565 871 553 855 c 1,78,-1
 553 763 l 1,79,-1
 602 799 l 1,80,-1
 787 939 l 1,81,-1
 787 1013 l 1,66,-1
787 1178 m 1,82,-1
 772 1163 l 1,83,84
 598 991 598 991 581 978 c 2,85,-1
 553 956 l 1,86,-1
 553 869 l 1,87,88
 636 988 636 988 637 989 c 2,89,-1
 787 1100 l 1,90,-1
 787 1178 l 1,82,-1
787 1282 m 1,91,92
 762 1254 762 1254 756 1248 c 2,93,-1
 553 1064 l 1,94,-1
 553 966 l 1,95,96
 565 975 565 975 576 984 c 1,97,-1
 766 1169 l 1,98,-1
 787 1190 l 1,99,-1
 787 1282 l 1,91,92
787 359 m 1,100,-1
 626 248 l 1,101,-1
 553 196 l 1,102,-1
 553 143 l 1,103,104
 692 243 692 243 787 312 c 1,105,-1
 787 359 l 1,100,-1
787 74 m 1,106,-1
 787 124 l 1,107,-1
 707 65 l 1,108,-1
 775 65 l 1,109,-1
 787 74 l 1,106,-1
787 133 m 1,110,-1
 787 168 l 1,111,-1
 648 65 l 1,112,-1
 695 65 l 1,113,-1
 787 133 l 1,110,-1
787 177 m 1,114,-1
 787 250 l 1,115,-1
 553 77 l 1,116,-1
 553 65 l 1,117,-1
 636 65 l 1,118,-1
 787 177 l 1,114,-1
787 260 m 1,119,-1
 787 303 l 1,120,121
 649 204 649 204 553 135 c 1,122,-1
 553 87 l 1,123,-1
 787 260 l 1,119,-1
787 368 m 1,124,-1
 787 454 l 1,125,-1
 553 282 l 1,126,-1
 553 205 l 1,127,-1
 622 254 l 1,128,-1
 787 368 l 1,124,-1
787 463 m 1,129,-1
 787 514 l 1,130,-1
 694 436 l 1,131,-1
 597 357 l 1,132,-1
 553 327 l 1,133,-1
 553 291 l 1,134,-1
 787 463 l 1,129,-1
787 573 m 1,135,-1
 553 398 l 1,136,-1
 553 383 l 1,137,-1
 553 336 l 1,138,-1
 593 363 l 1,139,-1
 784 522 l 1,140,-1
 787 524 l 1,141,-1
 787 573 l 1,135,-1
787 582 m 1,142,-1
 787 632 l 1,143,-1
 553 455 l 1,144,-1
 553 425 l 1,145,-1
 553 407 l 1,146,-1
 787 582 l 1,142,-1
EndSplineSet
Validated: 3073
Layer: 3
SplineSet
494 442 m 5,0,-1
 494 1042 l 5,1,-1
 241 442 l 5,2,-1
 494 442 l 5,0,-1
164 366 m 13,3,-1
 164 447 l 29,4,-1
 582 1428 l 5,5,-1
 846 1428 l 5,6,-1
 846 442 l 5,7,-1
 966 442 l 5,8,-1
 966 366 l 5,9,-1
 846 366 l 5,10,-1
 846 74 l 5,11,-1
 946 74 l 5,12,-1
 946 6 l 5,13,-1
 394 6 l 5,14,-1
 394 74 l 5,15,-1
 494 74 l 5,16,-1
 494 366 l 5,17,-1
 164 366 l 13,3,-1
EndSplineSet
EndChar

StartChar: five
Encoding: 53 53 21
Width: 1182
GlyphClass: 2
Flags: W
LayerCount: 4
Back
SplineSet
948 1428 m 5,0,-1
 954 1272 l 6,1,2
 954 1208 954 1208 934 1141 c 132,-1,3
 914.0005 1073.995 914.0005 1073.995 879 1035 c 4,4,5
 817.0005 966 817.0005 966 698 966 c 4,6,7
 612.9995 966 612.9995 966 495 1026 c 4,8,9
 470.974255833 1038.01287208 470.974255833 1038.01287208 416.5 1055 c 132,-1,10
 362.1106 1071.96066667 362.1106 1071.96066667 357 1074 c 5,11,-1
 320 702 l 5,12,13
 398 754.0005 398 754.0005 471 778 c 132,-1,14
 544.0005 802 544.0005 802 629 802 c 132,-1,15
 714.0005 802 714.0005 802 778 780 c 132,-1,16
 842.0005 757.9995 842.0005 757.9995 889 709 c 4,17,18
 986.0005 608.0005 986.0005 608.0005 986 402 c 4,19,20
 986 52.9995 986 52.9995 730 -16 c 4,21,22
 647.9995 -38.00005 647.9995 -38.00005 555 -38 c 132,-1,23
 462 -38 462 -38 393 -24 c 132,-1,24
 324 -10.00005 324 -10.00005 274 25 c 4,25,26
 167.9995 98.99995 167.9995 98.99995 168 270 c 4,27,28
 168 421.0005 168 421.0005 281 479 c 4,29,30
 314 495.9995 314 495.9995 350 496 c 4,31,32
 426.9995 496 426.9995 496 481 433 c 4,33,34
 533.9995 371.9995 533.9995 371.9995 534 270 c 4,35,36
 534 195 534 195 508 144 c 4,37,38
 469 67.99995 469 67.99995 408 36 c 5,39,40
 457.9995 25.99995 457.9995 25.99995 488 26 c 132,-1,41
 518 26 518 26 546 45 c 132,-1,42
 574.0005 64.00005 574.0005 64.00005 594 102 c 4,43,44
 637.9995 186 637.9995 186 638 334 c 4,45,46
 638 644.0005 638 644.0005 444 644 c 4,47,48
 364.9995 644 364.9995 644 270 582 c 5,49,-1
 244 638 l 5,50,-1
 302 1418 l 5,51,52
 353 1416.005 353 1416.005 405.5 1404.5 c 132,-1,53
 457.904718693 1393.01588022 457.904718693 1393.01588022 476 1390 c 6,54,-1
 569 1374.5 l 6,55,56
 644 1362.005 644 1362.005 698 1362 c 4,57,58
 831.0005 1362 831.0005 1362 914 1428 c 5,59,-1
 948 1428 l 5,0,-1
EndSplineSet
Fore
SplineSet
322 71 m 1,0,1
 350 79 350 79 385.5 97.5 c 128,-1,2
 421 116 421 116 450 174 c 0,3,4
 460 193 460 193 464 217 c 1,5,-1
 295 91 l 1,6,7
 306 80 306 80 322 71 c 1,0,1
534 284 m 2,8,9
 534 284 534 284 534 241.5 c 128,-1,10
 534 199 534 199 511 150 c 0,11,12
 482 79 482 79 416 41 c 0,13,14
 412 39 412 39 408 36 c 1,15,16
 458 26 458 26 488 26 c 0,17,18
 555 26 555 26 596 106 c 0,19,20
 597 107 597 107 597 108 c 0,21,22
 638 191 638 191 638 334 c 0,23,24
 638 644 638 644 444 644 c 0,25,26
 365 644 365 644 270 582 c 1,27,-1
 244 638 l 1,28,-1
 302 1418 l 1,29,30
 353 1416 353 1416 405.5 1404.5 c 128,-1,31
 458 1393 458 1393 476 1390 c 2,32,-1
 569 1374 l 2,33,34
 644 1362 644 1362 698 1362 c 0,35,36
 831 1362 831 1362 914 1428 c 1,37,-1
 948 1428 l 1,38,-1
 954 1272 l 1,39,40
 954 1195 954 1195 933.5 1138 c 128,-1,41
 913 1081 913 1081 894 1054 c 0,42,43
 833 966 833 966 715 966 c 2,44,45
 715 966 715 966 698 966 c 0,46,47
 613 966 613 966 495 1026 c 0,48,49
 471 1038 471 1038 416.5 1055 c 128,-1,50
 362 1072 362 1072 357 1074 c 1,51,-1
 320 702 l 1,52,53
 470 802 470 802 629 802 c 0,54,55
 986 802 986 802 986 402 c 0,56,57
 986 53 986 53 730 -16 c 0,58,59
 649 -38 649 -38 555 -38 c 0,60,61
 364 -38 364 -38 274 25 c 1,62,63
 274 25 274 25 266 30 c 0,64,65
 168 98 168 98 168 260 c 2,66,67
 168 260 168 260 168 270 c 0,68,69
 168 421 168 421 281 479 c 0,70,71
 314 496 314 496 350 496 c 0,72,73
 427 496 427 496 480.5 434 c 128,-1,74
 534 372 534 372 534 284 c 2,8,9
863 638 m 1,75,76
 852 654 852 654 836 670 c 1,77,-1
 672 545 l 1,78,79
 679 526 679 526 684 505 c 1,80,-1
 863 638 l 1,75,76
831 675 m 1,81,82
 819 686 819 686 805 695 c 1,83,-1
 655 583 l 1,84,85
 663 568 663 568 669 552 c 1,86,-1
 831 675 l 1,81,82
798 700 m 1,87,88
 788 706 788 706 777 710 c 1,89,90
 721 668 721 668 641 607 c 1,91,92
 647 599 647 599 651 589 c 1,93,-1
 798 700 l 1,87,88
605 649 m 1,94,95
 627 627 627 627 637 613 c 1,96,-1
 770 713 l 1,97,98
 742 725 742 725 710 730 c 1,99,-1
 605 649 l 1,94,95
921 410 m 1,100,101
 921 433 921 433 919 455 c 1,102,103
 882 427 882 427 836 393 c 1,104,-1
 702 301 l 1,105,106
 701 274 701 274 699 249 c 1,107,108
 848 357 848 357 921 410 c 1,100,101
906 542 m 1,109,-1
 701 392 l 1,110,111
 703 364 703 364 703 343 c 2,112,113
 703 343 703 343 703 310 c 1,114,-1
 832 399 l 1,115,-1
 918 463 l 1,116,117
 915 506 915 506 906 542 c 1,109,-1
904 550 m 1,118,119
 897 574 897 574 887 595 c 1,120,-1
 790 516 l 1,121,-1
 697 438 l 1,122,123
 697 438 697 438 701 400 c 1,124,-1
 904 550 l 1,118,119
867 632 m 1,125,-1
 686 497 l 1,126,127
 692 474 692 474 695 448 c 1,128,-1
 784 522 l 1,129,-1
 884 602 l 1,130,131
 876 618 876 618 867 632 c 1,125,-1
887 197 m 1,132,-1
 668 37 l 1,133,134
 774 55 774 55 820 101 c 128,-1,135
 866 147 866 147 887 197 c 1,132,-1
892 209 m 1,136,137
 900 231 900 231 906 256 c 1,138,-1
 648 65 l 1,139,140
 638 46 638 46 625 31 c 1,141,142
 639 33 639 33 653 34 c 1,143,-1
 892 209 l 1,136,137
908 267 m 1,144,145
 916 304 916 304 919 348 c 1,146,-1
 688 178 l 1,147,148
 676 123 676 123 655 79 c 1,149,-1
 908 267 l 1,144,145
920 358 m 1,150,151
 921 378 921 378 921 400 c 1,152,153
 796 310 796 310 698 239 c 1,154,155
 695 213 695 213 691 189 c 1,156,-1
 920 358 l 1,150,151
600 654 m 1,157,-1
 701 732 l 1,158,159
 668 737 668 737 646 737 c 2,160,161
 646 737 646 737 619 737 c 1,162,-1
 552 686 l 1,163,164
 578 673 578 673 600 654 c 1,157,-1
544 689 m 1,165,-1
 606 736 l 1,166,167
 554 734 554 734 507 721 c 1,168,169
 497 714 497 714 487 706 c 1,170,171
 517 701 517 701 544 689 c 1,165,-1
476 707 m 1,172,-1
 486 715 l 1,173,174
 477 712 477 712 468 708 c 1,175,176
 472 707 472 707 476 707 c 1,172,-1
290 96 m 1,177,-1
 466 227 l 1,178,179
 469 247 469 247 469 270 c 1,180,-1
 300 157 l 1,181,-1
 263 131 l 1,182,183
 274 112 274 112 282 104 c 2,184,185
 282 104 282 104 290 96 c 1,177,-1
440 380 m 1,186,187
 430 396 430 396 417 405 c 1,188,-1
 233 267 l 1,189,190
 233 245 233 245 235 225 c 1,191,-1
 440 380 l 1,186,187
247 169 m 1,192,193
 253 152 253 152 260 137 c 1,194,195
 282 153 282 153 296 163 c 2,196,-1
 469 280 l 1,197,198
 468 308 468 308 462 330 c 1,199,-1
 247 169 l 1,192,193
236 217 m 1,200,201
 239 196 239 196 244 177 c 1,202,-1
 460 337 l 1,203,204
 454 357 454 357 444 373 c 1,205,-1
 236 217 l 1,200,201
411 410 m 1,206,207
 411 410 411 410 386 425 c 1,208,-1
 271 343 l 1,209,-1
 238 321 l 1,210,211
 234 301 234 301 233 276 c 1,212,-1
 411 410 l 1,206,207
240 331 m 1,213,-1
 267 349 l 1,214,-1
 378 427 l 1,215,216
 366 431 366 431 348 431 c 0,217,218
 312 431 312 431 281 401 c 128,-1,219
 250 371 250 371 240 331 c 1,213,-1
694 1031 m 1,220,-1
 847 1144 l 1,221,-1
 874 1167 l 1,222,223
 889 1219 889 1219 889 1271 c 2,224,-1
 889 1280 l 1,225,-1
 887 1278 l 1,226,-1
 772 1163 l 2,227,228
 706 1098 706 1098 644 1038 c 1,229,230
 671 1032 671 1032 694 1031 c 1,220,-1
558 1068 m 1,231,232
 599 1050 599 1050 633 1040 c 1,233,-1
 766 1169 l 1,234,-1
 881 1284 l 1,235,-1
 888 1292 l 1,236,-1
 887 1335 l 1,237,238
 852 1319 852 1319 812 1309 c 1,239,240
 765 1255 765 1255 756 1248 c 2,241,-1
 558 1068 l 1,231,232
494 1097 m 1,242,243
 494 1097 494 1097 550 1071 c 1,244,-1
 751 1254 l 1,245,-1
 796 1306 l 1,246,247
 750 1297 750 1297 699 1297 c 1,248,-1
 679 1276 l 1,249,250
 566 1165 566 1165 494 1097 c 1,242,243
431 1119 m 1,251,252
 431 1119 431 1119 484 1101 c 1,253,-1
 673 1282 l 2,254,255
 680 1290 680 1290 687 1297 c 1,256,257
 662 1298 662 1298 634 1300 c 1,258,-1
 617 1281 l 1,259,-1
 431 1119 l 1,251,252
347 1148 m 1,260,261
 382 1134 382 1134 422 1121 c 1,262,-1
 611 1287 l 1,263,-1
 623 1301 l 1,264,265
 584 1305 584 1305 548 1312 c 1,266,267
 498 1262 498 1262 496 1261 c 2,268,-1
 348 1156 l 1,269,-1
 347 1148 l 1,260,261
353 1226 m 1,270,271
 365 1234 365 1234 376 1242 c 1,272,-1
 452 1328 l 1,273,274
 435 1331 435 1331 406 1338 c 128,-1,275
 377 1345 377 1345 362 1347 c 1,276,-1
 353 1226 l 1,270,271
348 1165 m 1,277,-1
 491 1267 l 1,278,-1
 538 1314 l 1,279,-1
 465 1326 l 2,280,281
 463 1326 463 1326 460 1327 c 1,282,-1
 381 1236 l 1,283,-1
 352 1217 l 1,284,-1
 348 1165 l 1,277,-1
869 1152 m 1,285,286
 856 1141 856 1141 851 1138 c 2,287,-1
 708 1031 l 1,288,289
 791 1033 791 1033 831 1078 c 0,290,291
 853 1104 853 1104 869 1152 c 1,285,286
EndSplineSet
Validated: 3073
Layer: 3
SplineSet
250 639 m 13,0,-1
 308 1412 l 5,1,2
 355 1409 355 1409 357 1409 c 4,3,-1
 475 1384 l 6,4,-1
 568 1369 l 6,5,6
 649 1356 649 1356 698 1356 c 4,7,8
 832 1356 832 1356 916 1422 c 5,9,-1
 942 1422 l 5,10,-1
 948 1272 l 4,11,12
 948 1213 948 1213 928 1143 c 4,13,14
 908 1077 908 1077 875 1039 c 4,15,16
 814 972 814 972 698 972 c 4,17,18
 615 972 615 972 498 1031 c 4,19,20
 472 1044 472 1044 418 1061 c 4,21,22
 364 1077 364 1077 359 1080 c 6,23,-1
 352 1083 l 5,24,-1
 313 690 l 5,25,-1
 323 697 l 6,26,27
 395 746 395 746 473 772 c 4,28,29
 545 796 545 796 629 796 c 132,-1,30
 713 796 713 796 774 775 c 132,-1,31
 835 754 835 754 880 709 c 4,32,33
 980 610 980 610 980 402 c 4,34,35
 980 177 980 177 873 70 c 4,36,37
 816 13 816 13 731.5 -9.5 c 132,-1,38
 647 -32 647 -32 555 -32 c 132,-1,39
 463 -32 463 -32 394.5 -18 c 132,-1,40
 326 -4 326 -4 277 30 c 4,41,42
 174 102 174 102 174 270 c 4,43,44
 174 378 174 378 233 437 c 4,45,46
 254 459 254 459 284.5 474.5 c 132,-1,47
 315 490 315 490 350 490 c 4,48,49
 424 490 424 490 476 429 c 4,50,51
 528 370 528 370 528 270 c 4,52,53
 528 197 528 197 503 147 c 4,54,55
 466 73 466 73 405 41 c 6,56,-1
 390 33 l 5,57,-1
 407 30 l 6,58,59
 464 20 464 20 488 20 c 4,60,61
 520 20 520 20 549 40 c 132,-1,62
 578 60 578 60 599 99 c 4,63,64
 644 183 644 183 644 334 c 4,65,66
 644 650 644 650 443 650 c 4,67,68
 376 650 376 650 285 598 c 4,0,0
 279 595 279 595 273 591 c 5,1,-1
 250 639 l 13,0,-1
EndSplineSet
EndChar

StartChar: six
Encoding: 54 54 22
Width: 1224
GlyphClass: 2
Flags: W
LayerCount: 4
Back
SplineSet
198 670 m 132,-1,1
 198 776 198 776 207 876 c 132,-1,2
 216 976 216 976 235 1063 c 132,-1,3
 254 1150 254 1150 287 1222 c 132,-1,4
 320 1294 320 1294 370 1346 c 132,-1,5
 420 1398 420 1398 488 1426 c 132,-1,6
 556 1454 556 1454 646 1454 c 4,7,8
 732 1454 732 1454 796 1434 c 132,-1,9
 860 1414 860 1414 904 1377 c 132,-1,10
 948 1340 948 1340 972 1288 c 132,-1,11
 996 1236 996 1236 996 1176 c 4,12,13
 996 1126 996 1126 983 1088 c 132,-1,14
 970 1050 970 1050 949 1024 c 132,-1,15
 928 998 928 998 897 984 c 132,-1,16
 866 970 866 970 832 970 c 260,17,18
 796 970 796 970 765 984 c 132,-1,19
 734 998 734 998 710 1024 c 132,-1,20
 686 1050 686 1050 674 1088 c 132,-1,21
 662 1126 662 1126 662 1176 c 4,22,23
 662 1256 662 1256 693 1303 c 132,-1,24
 724 1350 724 1350 784 1366 c 5,25,26
 770 1370 770 1370 753 1372 c 132,-1,27
 736 1374 736 1374 722 1374 c 4,28,29
 670 1374 670 1374 638 1349 c 132,-1,30
 606 1324 606 1324 589 1260 c 132,-1,31
 572 1196 572 1196 566 1092 c 132,-1,32
 560 988 560 988 558 832 c 5,33,34
 578 846 578 846 602 860 c 132,-1,35
 626 874 626 874 653 886 c 132,-1,36
 680 898 680 898 708 905 c 132,-1,37
 736 912 736 912 762 912 c 4,38,39
 824 912 824 912 875 880 c 132,-1,40
 926 848 926 848 961 792 c 132,-1,41
 996 736 996 736 1015 658 c 132,-1,42
 1034 580 1034 580 1034 486 c 4,43,44
 1034 424 1034 424 1027 362 c 132,-1,45
 1020 300 1020 300 1002 241 c 132,-1,46
 984 182 984 182 955 132 c 132,-1,47
 926 82 926 82 883 44 c 132,-1,48
 840 6 840 6 781 -16 c 132,-1,49
 722 -38 722 -38 648 -38 c 4,50,51
 562 -38 562 -38 495 -15 c 132,-1,52
 428 8 428 8 379 51 c 132,-1,53
 330 94 330 94 295 156 c 132,-1,54
 260 218 260 218 239 296 c 132,-1,55
 218 374 218 374 208 469 c 132,-1,56
 198 564 198 564 198 670 c 132,-1,1
636 40 m 4,57,58
 652 40 652 40 669 53 c 132,-1,59
 686 66 686 66 699 102 c 132,-1,60
 712 138 712 138 720 199 c 132,-1,61
 728 260 728 260 728 358 c 4,62,63
 728 452 728 452 722 523 c 132,-1,64
 716 594 716 594 702 640 c 132,-1,65
 688 686 688 686 666 709 c 132,-1,66
 644 732 644 732 612 732 c 4,67,68
 586 732 586 732 558 718 c 5,69,-1
 558 698 l 6,70,71
 558 536 558 536 559 413 c 132,-1,72
 560 290 560 290 568 207 c 132,-1,73
 576 124 576 124 592 82 c 132,-1,74
 608 40 608 40 636 40 c 4,57,58
EndSplineSet
Fore
SplineSet
492 710 m 1,0,1
 474 697 474 697 266 553 c 1,2,3
 268 522 268 522 271 492 c 1,4,-1
 432 604 l 1,5,6
 462 628 462 628 493 651 c 1,7,8
 493 651 493 651 492 710 c 1,0,1
623 797 m 1,9,10
 661 794 661 794 670 785 c 1,11,-1
 751 847 l 1,12,13
 691 842 691 842 623 797 c 1,9,10
648 -38 m 2,14,15
 648 -38 648 -38 605 -38 c 128,-1,16
 562 -38 562 -38 495 -15 c 128,-1,17
 428 8 428 8 379 51 c 128,-1,18
 330 94 330 94 295 156 c 128,-1,19
 260 218 260 218 239 296 c 128,-1,20
 218 374 218 374 208 469 c 128,-1,21
 198 564 198 564 198 670 c 128,-1,22
 198 776 198 776 207 876 c 128,-1,23
 216 976 216 976 235 1063 c 0,24,25
 293 1327 293 1327 462 1414 c 1,26,27
 462 1414 462 1414 509 1434 c 128,-1,28
 556 1454 556 1454 646 1454 c 0,29,30
 887 1454 887 1454 967 1298 c 0,31,32
 996 1250 996 1250 996 1181 c 2,33,34
 996 1181 996 1181 996 1153.5 c 128,-1,35
 996 1126 996 1126 983 1088 c 128,-1,36
 970 1050 970 1050 958 1035.5 c 128,-1,37
 946 1021 946 1021 943 1017 c 0,38,39
 900 970 900 970 832 970 c 128,-1,40
 764 970 764 970 710 1024 c 0,41,42
 662 1076 662 1076 662 1176 c 0,43,44
 662 1333 662 1333 784 1366 c 1,45,46
 758 1373 758 1373 713.5 1373 c 128,-1,47
 669 1373 669 1373 637.5 1348.5 c 128,-1,48
 606 1324 606 1324 585 1245 c 128,-1,49
 564 1166 564 1166 559 878 c 0,50,51
 559 856 559 856 558 832 c 1,52,53
 672 912 672 912 748 912 c 2,54,55
 748 912 748 912 762 912 c 0,56,57
 886 912 886 912 961 792 c 0,58,59
 1034 682 1034 682 1034 486 c 0,60,61
 1034 78 1034 78 781 -16 c 0,62,63
 722 -38 722 -38 648 -38 c 2,14,15
568 207 m 0,64,65
 585 40 585 40 636 40 c 0,66,67
 699 40 699 40 720 199 c 0,68,69
 728 248 728 248 728 350 c 0,70,71
 728 644 728 644 666 709 c 0,72,73
 644 732 644 732 614.5 732 c 128,-1,74
 585 732 585 732 558 718 c 1,75,76
 558 287 558 287 568 207 c 0,64,65
731 1226 m 1,77,78
 727 1204 727 1204 727 1178.5 c 128,-1,79
 727 1153 727 1153 730 1134 c 1,80,-1
 766 1169 l 1,81,-1
 881 1284 l 1,82,-1
 892 1296 l 1,83,84
 891 1298 891 1298 869.5 1306 c 128,-1,85
 848 1314 848 1314 807 1305 c 1,86,87
 764 1255 764 1255 756 1248 c 2,88,-1
 731 1226 l 1,77,78
735 1239 m 1,89,-1
 751 1254 l 1,90,-1
 792 1300 l 1,91,92
 749 1285 749 1285 735 1239 c 1,89,-1
897 1289 m 1,93,-1
 887 1278 l 1,94,-1
 732 1123 l 1,95,96
 738 1093 738 1093 753 1074 c 1,97,-1
 847 1144 l 1,98,-1
 928 1214 l 1,99,100
 921 1254 921 1254 897 1289 c 1,93,-1
758 1068 m 1,101,102
 781 1045 781 1045 806 1038 c 1,103,-1
 911 1124 l 1,104,-1
 929 1140 l 1,105,106
 931 1158 931 1158 931 1175 c 128,-1,107
 931 1192 931 1192 929 1204 c 1,108,109
 929 1204 929 1204 851 1138 c 1,110,-1
 758 1068 l 1,101,102
926 1127 m 1,111,-1
 917 1118 l 1,112,-1
 816 1036 l 1,113,114
 824 1035 824 1035 838 1035 c 128,-1,115
 852 1035 852 1035 870 1043 c 0,116,117
 912 1062 912 1062 926 1127 c 1,111,-1
494 472 m 1,118,119
 494 486 494 486 493 500 c 1,120,-1
 291 357 l 1,121,122
 291 357 291 357 299 325 c 1,123,-1
 494 472 l 1,118,119
493 570 m 1,124,-1
 366 483 l 1,125,-1
 280 419 l 1,126,127
 284 391 284 391 289 365 c 1,128,-1
 493 509 l 1,129,130
 493 509 493 509 493 570 c 1,124,-1
493 642 m 1,131,-1
 436 598 l 1,132,-1
 272 484 l 1,133,134
 275 454 275 454 279 427 c 1,135,-1
 362 489 l 1,136,-1
 493 579 l 1,137,138
 493 579 493 579 493 642 c 1,131,-1
494 463 m 1,139,-1
 300 318 l 1,140,141
 301 315 301 315 303.5 306 c 128,-1,142
 306 297 306 297 311 282 c 1,143,-1
 494 420 l 1,144,145
 494 420 494 420 494 463 c 1,139,-1
500 242 m 1,146,-1
 376 150 l 1,147,148
 394 126 394 126 414 107 c 1,149,-1
 506 172 l 1,150,151
 504 184 504 184 503 201.5 c 128,-1,152
 502 219 502 219 500 242 c 1,146,-1
497 290 m 1,153,-1
 350 191 l 1,154,155
 360 173 360 173 371 157 c 1,156,-1
 499 252 l 1,157,158
 498 270 498 270 497 290 c 1,153,-1
495 354 m 1,159,-1
 330 231 l 1,160,161
 338 213 338 213 347 197 c 1,162,-1
 497 298 l 1,163,164
 496 325 496 325 495 354 c 1,159,-1
494 411 m 1,165,-1
 313 274 l 1,166,167
 319 255 319 255 327 238 c 1,168,-1
 495 363 l 1,169,170
 494 386 494 386 494 411 c 1,165,-1
530 61 m 1,171,-1
 512 48 l 1,172,173
 526 43 526 43 540 39 c 1,174,175
 530 57 530 57 530 61 c 1,171,-1
517 109 m 1,176,177
 488 88 488 88 463 70 c 1,178,179
 482 59 482 59 504 51 c 1,180,-1
 528 68 l 1,181,182
 522 86 522 86 517 109 c 1,176,177
420 102 m 1,183,184
 433 89 433 89 457 74 c 1,185,186
 487 96 487 96 515 116 c 1,187,188
 510 138 510 138 507 164 c 1,189,-1
 420 102 l 1,183,184
263 646 m 1,190,-1
 282 659 l 1,191,-1
 402 759 l 1,192,-1
 493 822 l 1,193,194
 494 868 494 868 494 910 c 1,195,-1
 356 803 l 1,196,-1
 264 744 l 1,197,198
 263 708 263 708 263 683 c 2,199,200
 263 683 263 683 263 646 c 1,190,-1
266 561 m 1,201,-1
 472 704 l 1,202,-1
 492 719 l 1,203,204
 492 768 492 768 493 813 c 1,205,-1
 406 753 l 1,206,-1
 286 653 l 1,207,-1
 263 637 l 1,208,209
 264 598 264 598 266 561 c 1,201,-1
290 1004 m 1,210,-1
 511 1199 l 1,211,212
 518 1249 518 1249 532 1296 c 1,213,214
 498 1262 498 1262 496 1261 c 2,215,-1
 341 1151 l 1,216,-1
 323 1137 l 1,217,218
 303 1078 303 1078 290 1004 c 1,210,-1
288 994 m 1,219,220
 282 958 282 958 277 918 c 1,221,222
 277 918 277 918 371 994 c 1,223,-1
 503 1119 l 1,224,225
 506 1155 506 1155 509 1187 c 1,226,-1
 291 996 l 1,227,-1
 288 994 l 1,219,220
267 813 m 1,228,229
 267 813 267 813 321 849 c 1,230,-1
 436 979 l 2,231,232
 457 1004 457 1004 498 1034 c 1,233,234
 500 1095 500 1095 502 1104 c 1,235,236
 400 1006 400 1006 376 988 c 2,237,-1
 275 908 l 1,238,239
 270 862 270 862 267 813 c 1,228,229
267 803 m 1,240,241
 266 778 266 778 264 753 c 1,242,-1
 352 809 l 1,243,244
 423 864 423 864 494 920 c 1,245,246
 495 972 495 972 497 1018 c 1,247,-1
 442 973 l 1,248,-1
 356 876 l 2,249,250
 329 845 329 845 326 843 c 2,251,-1
 267 803 l 1,240,241
369 1237 m 1,252,253
 373 1239 373 1239 376 1242 c 2,254,-1
 458 1337 l 1,255,256
 408 1300 408 1300 369 1237 c 1,252,253
327 1149 m 1,257,258
 337 1157 337 1157 491 1267 c 1,259,-1
 538 1314 l 1,260,261
 555 1357 555 1357 581 1384 c 1,262,263
 527 1376 527 1376 483 1352 c 1,264,-1
 381 1236 l 1,265,-1
 360 1222 l 1,266,267
 342 1189 342 1189 327 1149 c 1,257,258
677 781 m 1,268,269
 695 771 695 771 720 746 c 1,270,-1
 829 831 l 1,271,272
 799 846 799 846 764 847 c 1,273,-1
 677 781 l 1,268,269
876 796 m 1,274,275
 856 818 856 818 837 827 c 1,276,-1
 725 740 l 1,277,278
 739 722 739 722 750 698 c 1,279,-1
 817 749 l 1,280,-1
 876 796 l 1,274,275
939 687 m 1,281,-1
 782 569 l 1,282,283
 784 550 784 550 785.5 539 c 128,-1,284
 787 528 787 528 787 524 c 1,285,-1
 949 654 l 1,286,287
 944 672 944 672 939 687 c 1,281,-1
951 646 m 1,288,-1
 790 516 l 1,289,-1
 788 514 l 1,290,291
 790 491 790 491 791 466 c 1,292,-1
 962 593 l 1,293,294
 956 631 956 631 951 646 c 1,288,-1
937 693 m 1,295,296
 929 714 929 714 920 732 c 1,297,-1
 774 622 l 1,298,299
 778 601 778 601 781 577 c 1,300,-1
 937 693 l 1,295,296
917 739 m 1,301,302
 909 754 909 754 900 766 c 1,303,-1
 763 663 l 1,304,305
 764 661 764 661 766 653 c 2,306,307
 766 653 766 653 772 629 c 1,308,-1
 917 739 l 1,301,302
896 772 m 1,309,310
 889 782 889 782 881 791 c 1,311,-1
 821 743 l 2,312,313
 792 721 792 721 753 691 c 1,314,315
 757 681 757 681 760 671 c 1,316,-1
 896 772 l 1,309,310
969 501 m 1,317,318
 968 545 968 545 963 584 c 1,319,-1
 791 458 l 1,320,321
 793 418 793 418 793 373 c 1,322,-1
 969 501 l 1,317,318
969 492 m 1,323,-1
 793 365 l 1,324,325
 793 365 793 365 793 317 c 1,326,327
 925 413 925 413 968 445 c 1,328,329
 969 465 969 465 969 477 c 2,330,331
 969 477 969 477 969 492 c 1,323,-1
950 298 m 1,332,333
 959 337 959 337 964 382 c 1,334,-1
 790 253 l 1,335,336
 787 210 787 210 782 174 c 1,337,-1
 950 298 l 1,332,333
947 287 m 1,338,-1
 781 164 l 1,339,340
 777 142 777 142 772 122 c 1,341,-1
 933 240 l 1,342,343
 940 259 940 259 947 287 c 1,338,-1
965 391 m 1,344,345
 967 412 967 412 968 434 c 1,346,347
 873 365 873 365 792 307 c 1,348,349
 791 284 791 284 791 262 c 1,350,-1
 965 391 l 1,344,345
929 228 m 1,351,-1
 770 111 l 1,352,353
 761 74 761 74 742 41 c 1,354,-1
 888 148 l 1,355,356
 915 191 915 191 929 228 c 1,351,-1
765 47 m 1,357,358
 830 73 830 73 873 127 c 1,359,-1
 765 47 l 1,357,358
EndSplineSet
Validated: 3073
Layer: 3
SplineSet
637 34 m 4,0,1
 655 34 655 34 673 48 c 132,-1,2
 691 62 691 62 705 100 c 4,3,4
 734 181 734 181 734 356 c 4,5,6
 734 453 734 453 728 524 c 4,7,8
 716 666 716 666 670 714 c 4,9,10
 647 738 647 738 612 738 c 4,11,12
 585 738 585 738 552 722 c 5,13,-1
 552 718 l 5,14,-1
 552 698 l 6,15,16
 552 536 552 536 553 413 c 4,17,18
 555 162 555 162 586 80 c 4,19,20
 604 34 604 34 637 34 c 4,0,1
245 298 m 4,21,22
 204 450 204 450 204 671.5 c 132,-1,23
 204 893 204 893 241 1062 c 4,24,25
 280 1245 280 1245 374 1342 c 4,26,27
 424 1393 424 1393 492 1421 c 4,28,29
 557 1448 557 1448 646 1448 c 4,30,31
 810 1448 810 1448 900 1372 c 4,32,33
 943 1336 943 1336 966.5 1285.5 c 132,-1,34
 990 1235 990 1235 990 1176 c 4,35,36
 990 1127 990 1127 977.5 1090 c 132,-1,37
 965 1053 965 1053 944.5 1028 c 132,-1,38
 924 1003 924 1003 894.5 989.5 c 132,-1,39
 865 976 865 976 831 976 c 132,-1,40
 797 976 797 976 768.5 989 c 132,-1,41
 740 1002 740 1002 719 1023 c 4,42,43
 668 1074 668 1074 668 1176 c 4,44,45
 668 1329 668 1329 786 1360 c 6,46,-1
 807 1366 l 5,47,-1
 786 1372 l 6,48,49
 757 1380 757 1380 722 1380 c 4,50,51
 668 1380 668 1380 634 1354 c 132,-1,52
 600 1328 600 1328 582 1258 c 4,53,54
 566 1197 566 1197 560 1092.5 c 132,-1,55
 554 988 554 988 552 820 c 5,56,57
 581 841 581 841 605 855 c 4,58,59
 693 906 693 906 762 906 c 4,60,61
 822 906 822 906 872 875 c 4,62,63
 971 812 971 812 1009 656 c 4,64,65
 1028 579 1028 579 1028 486 c 4,66,67
 1028 347 1028 347 996 243 c 4,68,69
 962 130 962 130 895 63 c 4,70,71
 846 15 846 15 779 -10 c 4,72,73
 721 -32 721 -32 648 -32 c 4,74,75
 483 -32 483 -32 383 56 c 4,76,77
 288 140 288 140 245 298 c 4,21,22
EndSplineSet
EndChar

StartChar: seven
Encoding: 55 55 23
Width: 1134
GlyphClass: 2
Flags: W
LayerCount: 4
Back
SplineSet
822 1152 m 4,0,1
 784 1118 784 1118 729 1088 c 132,-1,2
 673.9995 1058 673.9995 1058 617 1050 c 4,3,4
 564 1043 564 1043 551 1043 c 4,5,6
 550 1044 550 1044 549 1044 c 4,7,8
 538 1044 538 1044 521 1045 c 132,-1,9
 504 1046 504 1046 458 1046 c 132,-1,10
 412 1046 412 1046 412 1050 c 4,11,12
 412 1052 412 1052 368 1055 c 132,-1,13
 324.0005 1058 324.0005 1058 294 1058 c 4,14,15
 280.0005 1058 280.0005 1058 270 1026 c 4,16,17
 259.798010712 993.360367253 259.798010712 993.360367253 251 965.5 c 4,18,19
 242 937 242 937 242 838 c 5,20,-1
 200 838 l 5,21,-1
 200 1442 l 5,22,-1
 246 1442 l 5,23,-1
 246 1360 l 5,24,25
 319.9995 1448.005 319.9995 1448.005 433 1448 c 4,26,27
 479.9995 1448 479.9995 1448 589.5 1411 c 132,-1,28
 699 1373.995 699 1373.995 754 1374 c 4,29,30
 842.9995 1374 842.9995 1374 912 1454 c 5,31,-1
 964 1454 l 5,32,-1
 964 1178 l 6,33,34
 964 1164.005 964 1164.005 924 1056 c 4,35,36
 883.9995 949.9995 883.9995 949.9995 862 886 c 132,-1,37
 839.9995 821.9995 839.9995 821.9995 816 753 c 4,38,39
 694.0005 400.9995 694.0005 400.9995 694 244 c 4,40,41
 694 -38 694 -38 530 -38 c 4,42,43
 450.0005 -38 450.0005 -38 402 39 c 132,-1,44
 354 115.99995 354 115.99995 354 212 c 132,-1,45
 354 308 354 308 370 371 c 132,-1,46
 386.0005 434 386.0005 434 420 507 c 132,-1,47
 454.0005 580.0005 454.0005 580.0005 517 662 c 132,-1,48
 580 744.0005 580 744.0005 702.5 874 c 132,-1,49
 825.0005 1004.0005 825.0005 1004.0005 858 1089 c 4,50,51
 880.0005 1146 880.0005 1146 880 1167 c 4,52,53
 880 1178 880 1178 875 1180 c 4,54,55
 873.0005 1181.005 873.0005 1181.005 870 1180 c 4,56,57
 853.9995 1181.005 853.9995 1181.005 822 1152 c 4,0,1
EndSplineSet
Fore
SplineSet
481 1044 m 128,-1,1
 412 1044 412 1044 412 1048 c 0,2,3
 412 1058 412 1058 294 1058 c 0,4,5
 280 1058 280 1058 270 1026 c 128,-1,6
 260 994 260 994 251 966 c 128,-1,7
 242 938 242 938 242 838 c 1,8,-1
 200 838 l 1,9,-1
 200 1442 l 1,10,-1
 246 1442 l 1,11,-1
 246 1360 l 1,12,13
 320 1448 320 1448 433 1448 c 0,14,15
 480 1448 480 1448 589.5 1411 c 128,-1,16
 699 1374 699 1374 754 1374 c 0,17,18
 843 1374 843 1374 912 1454 c 1,19,-1
 964 1454 l 1,20,-1
 964 1178 l 2,21,22
 964 1164 964 1164 924 1057 c 128,-1,23
 884 950 884 950 862 886 c 128,-1,24
 840 822 840 822 816 753 c 0,25,26
 694 401 694 401 694 244 c 0,27,28
 694 -38 694 -38 530 -38 c 0,29,30
 450 -38 450 -38 402 39 c 128,-1,31
 354 116 354 116 354 212 c 128,-1,32
 354 308 354 308 370 371 c 128,-1,33
 386 434 386 434 420 507 c 128,-1,34
 454 580 454 580 517 662 c 128,-1,35
 580 744 580 744 700 871.5 c 128,-1,36
 820 999 820 999 855 1083 c 0,37,38
 880 1147 880 1147 880 1165 c 128,-1,39
 880 1183 880 1183 870 1180 c 0,40,41
 854 1182 854 1182 832 1162 c 0,42,43
 703 1045 703 1045 551 1043 c 0,44,0
 550 1044 550 1044 481 1044 c 128,-1,1
419 237 m 1,45,46
 419 237 419 237 419 219.5 c 128,-1,47
 419 202 419 202 420 193 c 1,48,-1
 639 354 l 1,49,50
 642 375 642 375 647 398 c 1,51,-1
 597 357 l 1,52,-1
 419 237 l 1,45,46
423 301 m 1,53,54
 420 276 420 276 420 246 c 1,55,-1
 593 363 l 1,56,-1
 649 409 l 1,57,58
 655 435 655 435 665 481 c 1,59,-1
 423 301 l 1,53,54
425 312 m 1,60,-1
 668 493 l 1,61,62
 676 523 676 523 685 555 c 1,63,-1
 436 367 l 1,64,65
 429 347 429 347 425 312 c 1,60,-1
460 437 m 1,66,67
 448 407 448 407 440 379 c 1,68,-1
 688 566 l 1,69,70
 695 592 695 592 704 619 c 1,71,-1
 460 437 l 1,66,67
466 451 m 1,72,-1
 708 632 l 1,73,74
 713 648 713 648 718 665 c 1,75,76
 665 625 665 625 596 573 c 1,77,-1
 487 495 l 1,78,79
 487 500 487 500 466 451 c 1,72,-1
567 620 m 1,80,81
 523 562 523 562 494 510 c 1,82,-1
 592 579 l 1,83,-1
 722 677 l 1,84,85
 735 717 735 717 750 760 c 1,86,-1
 571 623 l 1,87,-1
 567 620 l 1,80,81
584 642 m 1,88,-1
 754 773 l 2,89,90
 754 774 754 774 764.5 802.5 c 128,-1,91
 775 831 775 831 785 863 c 1,92,-1
 772 853 l 1,93,94
 772 853 772 853 707.5 784.5 c 128,-1,95
 643 716 643 716 584 642 c 1,88,-1
629 250 m 1,96,-1
 626 248 l 1,97,-1
 437 114 l 1,98,99
 445 93 445 93 457 74 c 1,100,101
 551 141 551 141 628 197 c 1,102,103
 629 216 629 216 629 230 c 2,104,105
 629 230 629 230 629 250 c 1,96,-1
637 344 m 1,106,-1
 420 184 l 1,107,108
 423 151 423 151 434 120 c 1,109,-1
 622 254 l 1,110,-1
 629 259 l 1,111,112
 630 298 630 298 637 344 c 1,106,-1
618 126 m 1,113,-1
 495 35 l 1,114,115
 503 27 503 27 524.5 27 c 128,-1,116
 546 27 546 27 559 31 c 0,117,118
 601 45 601 45 618 126 c 1,113,-1
627 188 m 1,119,120
 527 116 527 116 461 68 c 1,121,122
 474 49 474 49 488 39 c 1,123,-1
 621 137 l 1,124,125
 625 161 625 161 627 188 c 1,119,120
852 1243 m 1,126,127
 867 1246 867 1246 876.5 1246 c 128,-1,128
 886 1246 886 1246 899 1240 c 1,129,-1
 899 1291 l 1,130,-1
 887 1278 l 1,131,-1
 852 1243 l 1,126,127
899 1304 m 1,132,-1
 899 1355 l 1,133,134
 861 1328 861 1328 818 1317 c 1,135,136
 765 1256 765 1256 756 1248 c 2,137,-1
 609 1115 l 1,138,139
 653 1121 653 1121 700 1146 c 0,140,141
 746 1170 746 1170 774 1196 c 0,142,143
 806 1225 806 1225 836 1239 c 1,144,-1
 881 1284 l 1,145,-1
 899 1304 l 1,132,-1
509 1111 m 1,146,147
 509 1111 509 1111 531 1110 c 0,148,149
 537 1110 537 1110 544 1110 c 0,150,151
 570 1110 570 1110 596 1113 c 1,152,-1
 751 1254 l 1,153,-1
 803 1314 l 1,154,155
 779 1309 779 1309 757.5 1309 c 128,-1,156
 736 1309 736 1309 713 1312 c 1,157,-1
 679 1276 l 1,158,159
 577 1176 577 1176 509 1111 c 1,146,147
494 1111 m 1,160,-1
 673 1282 l 1,161,162
 688 1299 688 1299 702 1314 c 1,163,164
 680 1318 680 1318 654 1324 c 1,165,-1
 617 1281 l 1,166,-1
 426 1114 l 1,167,168
 441 1111 441 1111 463 1111 c 2,169,170
 463 1111 463 1111 494 1111 c 1,160,-1
305 1123 m 1,171,172
 388 1123 388 1123 416 1116 c 1,173,-1
 611 1287 l 1,174,-1
 645 1326 l 1,175,176
 615 1334 615 1334 581 1345 c 1,177,178
 498 1263 498 1263 496 1261 c 2,179,-1
 341 1151 l 1,180,-1
 305 1123 l 1,171,172
294 1123 m 1,181,182
 337 1157 337 1157 491 1267 c 1,183,-1
 572 1348 l 1,184,185
 559 1354 559 1354 499 1371 c 1,186,-1
 381 1236 l 1,187,-1
 265 1160 l 1,188,-1
 265 1118 l 1,189,190
 279 1123 279 1123 294 1123 c 1,181,182
491 1373 m 1,191,192
 461 1383 461 1383 440 1383 c 128,-1,193
 419 1383 419 1383 406 1381 c 1,194,195
 361 1349 361 1349 316 1316 c 1,196,-1
 265 1275 l 1,197,-1
 265 1168 l 1,198,199
 321 1204 321 1204 376 1242 c 1,200,-1
 491 1373 l 1,191,192
276 1293 m 1,201,-1
 312 1322 l 1,202,-1
 390 1378 l 1,203,204
 330 1364 330 1364 276 1293 c 1,201,-1
EndSplineSet
Validated: 3073
Layer: 3
SplineSet
958 1448 m 5,0,-1
 958 1178 l 6,1,2
 958 1165 958 1165 918 1058 c 4,3,4
 878 952 878 952 856 888 c 6,5,-1
 810 755 l 6,6,7
 688 402 688 402 688 244 c 4,8,9
 688 68 688 68 624 4 c 4,10,11
 588 -32 588 -32 530 -32 c 4,12,13
 453 -32 453 -32 407 42 c 4,14,15
 360 118 360 118 360 212.5 c 132,-1,16
 360 307 360 307 376 369.5 c 132,-1,17
 392 432 392 432 425.5 504.5 c 132,-1,18
 459 577 459 577 522 658.5 c 132,-1,19
 585 740 585 740 708 870.5 c 132,-1,20
 831 1001 831 1001 864 1087 c 4,21,22
 886 1145 886 1145 886 1167 c 4,23,24
 886 1178 886 1178 882 1182 c 132,-1,25
 878 1186 878 1186 873 1187 c 4,26,27
 849 1186 849 1186 816 1154 c 4,28,29
 785 1126 785 1126 726 1094 c 4,30,31
 672 1064 672 1064 620 1056 c 4,32,33
 560 1048 560 1048 521 1051 c 4,34,35
 409 1059 409 1059 358 1062 c 4,36,37
 319 1064 319 1064 294 1064 c 4,38,39
 286 1064 286 1064 278.5 1056.5 c 132,-1,40
 271 1049 271 1049 264 1028 c 4,41,42
 264 1027 264 1027 245 967 c 4,43,44
 236 939 236 939 236 844 c 5,45,-1
 206 844 l 5,46,-1
 206 1436 l 5,47,-1
 240 1436 l 5,48,-1
 240 1344 l 5,49,-1
 251 1356 l 6,50,51
 323 1442 323 1442 433 1442 c 4,52,53
 479 1442 479 1442 588.5 1405 c 132,-1,54
 698 1368 698 1368 754 1368 c 4,55,56
 845 1368 845 1368 915 1448 c 5,57,-1
 958 1448 l 5,0,-1
EndSplineSet
EndChar

StartChar: eight
Encoding: 56 56 24
Width: 1196
GlyphClass: 2
Flags: W
LayerCount: 4
Back
SplineSet
178 313 m 4,0,1
 178 425.0005 178 425.0005 231 499 c 4,2,3
 256.0005 533.9995 256.0005 533.9995 318.5 585 c 132,-1,4
 381.0005 636 381.0005 636 419 654 c 5,5,6
 249.9995 856.0005 249.9995 856.0005 230 1033 c 4,7,8
 222.9995 1093 222.9995 1093 228 1125 c 4,9,10
 241.0005 1198.995 241.0005 1198.995 241.75 1202.75 c 4,11,12
 248.998731245 1262.99861041 248.998731245 1262.99861041 312 1332 c 4,13,14
 423 1453.995 423 1453.995 602 1454 c 4,15,16
 852.0005 1454 852.0005 1454 928 1284 c 4,17,18
 953.9995 1225.995 953.9995 1225.995 954 1138 c 4,19,20
 954 985 954 985 793 810 c 5,21,22
 806.0005 810 806.0005 810 847 757.5 c 4,23,24
 884.9995 709.0005 884.9995 709.0005 905.943 684.057 c 4,25,26
 963 613.9995 963 613.9995 982 563 c 4,27,28
 1025.995 441.9995 1025.995 441.9995 1020 387 c 4,29,30
 997.005 154.9995 997.005 154.9995 901 68.5 c 4,31,32
 782.9995 -38 782.9995 -38 560 -38 c 4,33,34
 405.9995 -38 405.9995 -38 302 41 c 4,35,36
 177.9995 135.9995 177.9995 135.9995 178 313 c 4,0,1
668 912 m 5,37,38
 698 958 698 958 728 1034 c 132,-1,39
 758 1110 758 1110 758 1168 c 4,40,41
 758 1368.73 758 1368.73 638 1382 c 4,42,43
 569 1389.995 569 1389.995 516 1322 c 4,44,45
 482 1278 482 1278 477 1249 c 132,-1,46
 472 1220 472 1220 472 1179 c 4,47,48
 472 1113 472 1113 530 1043 c 132,-1,49
 588.0005 972.9995 588.0005 972.9995 668 912 c 5,37,38
440 440 m 5,50,51
 393.9995 378.9995 393.9995 378.9995 394 296 c 6,52,-1
 395 258 l 6,53,54
 396.0005 220.0005 396.0005 220.0005 410 171 c 4,55,56
 438.9995 72 438.9995 72 493 43 c 4,57,58
 521.9995 28 521.9995 28 552 28 c 6,59,-1
 592 28 l 6,60,61
 629.9995 29.99995 629.9995 29.99995 674 61 c 4,62,63
 716 92.00005 716 92.00005 731 124 c 132,-1,64
 746 155.9995 746 155.9995 745 169 c 5,65,66
 739 182.0005 739 182.0005 735 218 c 4,67,68
 720 350 720 350 522 535 c 5,69,-1
 440 440 l 5,50,51
EndSplineSet
Fore
SplineSet
516 636 m 1,0,1
 516 636 516 636 456 600 c 0,2,3
 292 503 292 503 258 412 c 1,4,-1
 362 489 l 1,5,-1
 486 573 l 1,6,-1
 532 618 l 1,7,-1
 539 610 l 1,8,-1
 567 629 l 1,9,-1
 749 769 l 1,10,11
 729 789 729 789 710 806 c 1,12,-1
 505 650 l 1,13,14
 510 643 510 643 516 636 c 1,0,1
302 41 m 0,15,16
 178 136 178 136 178 313 c 0,17,18
 178 425 178 425 231 499 c 0,19,20
 256 534 256 534 318.5 585 c 128,-1,21
 381 636 381 636 419 654 c 1,22,23
 252 854 252 854 230 1033 c 0,24,25
 227 1059 227 1059 227 1086 c 0,26,27
 227 1142 227 1142 241 1200 c 1,28,29
 241 1254 241 1254 312 1332 c 0,30,31
 423 1454 423 1454 602 1454 c 0,32,33
 852 1454 852 1454 928 1284 c 0,34,35
 954 1226 954 1226 954 1138 c 0,36,37
 954 985 954 985 796 813 c 1,38,39
 824 789 824 789 892 702 c 0,40,41
 961 616 961 616 975 580 c 0,42,43
 1021 457 1021 457 1021 425 c 0,44,45
 1021 395 1021 395 1020 387 c 0,46,47
 997 154 997 154 901 68 c 0,48,49
 783 -38 783 -38 560 -38 c 0,50,51
 406 -38 406 -38 302 41 c 0,15,16
638 1382 m 0,52,53
 631 1383 631 1383 624 1383 c 0,54,55
 564 1383 564 1383 516 1321 c 0,56,57
 482 1278 482 1278 477 1250 c 0,58,59
 472 1225 472 1225 472 1177 c 0,60,61
 472 1172 472 1172 472 1168 c 0,62,63
 472 1112 472 1112 530 1042.5 c 128,-1,64
 588 973 588 973 668 912 c 1,65,66
 698 958 698 958 728 1034 c 128,-1,67
 758 1110 758 1110 758 1168 c 0,68,69
 758 1369 758 1369 638 1382 c 0,52,53
522 535 m 1,70,-1
 440 440 l 1,71,72
 394 379 394 379 394 296 c 1,73,-1
 395 258 l 2,74,75
 396 220 396 220 410 171 c 0,76,77
 451 28 451 28 552 28 c 2,78,-1
 592 28 l 1,79,80
 630 30 630 30 674 61 c 0,81,82
 716 92 716 92 730.5 123 c 128,-1,83
 745 154 745 154 745 161 c 2,84,85
 745 161 745 161 745 169 c 1,86,87
 739 182 739 182 735 218 c 0,88,89
 720 350 720 350 522 535 c 1,70,-1
470 694 m 1,90,91
 470 694 470 694 500 656 c 1,92,93
 500 656 500 656 704 810 c 1,94,95
 704 810 704 810 738 848 c 128,-1,96
 772 886 772 886 816 950 c 1,97,-1
 791 933 l 1,98,-1
 728 885 l 1,99,100
 709 854 709 854 681 823 c 1,101,102
 671 829 671 829 662 836 c 1,103,-1
 606 793 l 1,104,105
 511 721 511 721 470 694 c 1,90,91
420 762 m 1,106,107
 441 731 441 731 466 700 c 1,108,-1
 472 704 l 1,109,-1
 602 799 l 1,110,-1
 656 840 l 1,111,112
 617 868 617 868 583 897 c 1,113,114
 552 853 552 853 551 853 c 2,115,-1
 420 762 l 1,106,107
381 822 m 1,116,117
 397 796 397 796 415 768 c 1,118,-1
 546 859 l 1,119,120
 563 883 563 883 576 903 c 1,121,122
 554 922 554 922 535 942 c 1,123,-1
 381 822 l 1,116,117
529 948 m 1,124,125
 479 998 479 998 479 1003 c 1,126,-1
 442 973 l 1,127,-1
 356 876 l 1,128,129
 356 876 356 876 352 872 c 1,130,131
 363 851 363 851 377 828 c 1,132,133
 453 887 453 887 529 948 c 1,124,125
320 943 m 1,134,135
 332 912 332 912 348 880 c 1,136,-1
 436 979 l 2,137,138
 449 995 449 995 471 1013 c 1,139,140
 456 1032 456 1032 445 1051 c 1,141,142
 392 1001 392 1001 376 988 c 2,143,-1
 320 943 l 1,134,135
301 1005 m 1,144,145
 307 979 307 979 317 950 c 1,146,147
 317 950 317 950 371 994 c 1,148,-1
 440 1060 l 1,149,150
 427 1084 427 1084 419 1108 c 1,151,-1
 301 1005 l 1,144,145
299 1013 m 1,152,-1
 416 1116 l 1,153,154
 407 1147 407 1147 407 1168 c 2,155,156
 407 1168 407 1168 407 1198 c 1,157,-1
 341 1151 l 1,158,-1
 292 1112 l 1,159,160
 291 1104 291 1104 291 1088 c 0,161,162
 291 1050 291 1050 299 1013 c 1,152,-1
304 1185 m 1,163,164
 298 1159 298 1159 293 1122 c 1,165,-1
 337 1157 l 1,166,-1
 407 1207 l 1,167,168
 408 1252 408 1252 416.5 1266 c 128,-1,169
 425 1280 425 1280 434 1297 c 1,170,-1
 381 1236 l 1,171,-1
 304 1185 l 1,163,164
306 1196 m 1,172,-1
 376 1242 l 1,173,-1
 450 1327 l 1,174,175
 462 1350 462 1350 463.5 1356.5 c 128,-1,176
 465 1363 465 1363 466 1364 c 1,177,178
 406 1339 406 1339 362 1291 c 128,-1,179
 318 1243 318 1243 306 1196 c 1,172,-1
738 902 m 1,180,-1
 787 939 l 1,181,-1
 826 966 l 1,182,183
 870 1034 870 1034 883 1091 c 1,184,-1
 791 1016 l 2,185,186
 790 1014 790 1014 777 981 c 128,-1,187
 764 948 764 948 738 902 c 1,180,-1
820 1124 m 1,188,-1
 847 1144 l 1,189,-1
 887 1179 l 1,190,191
 881 1246 881 1246 868 1259 c 1,192,-1
 822 1213 l 1,193,194
 823 1192 823 1192 823 1169.5 c 128,-1,195
 823 1147 823 1147 820 1124 c 1,188,-1
818 1114 m 1,196,197
 811 1074 811 1074 796 1030 c 1,198,-1
 886 1103 l 1,199,200
 889 1121 889 1121 889 1137.5 c 128,-1,201
 889 1154 889 1154 888 1169 c 1,202,203
 859 1145 859 1145 851 1138 c 2,204,-1
 818 1114 l 1,196,197
806 1303 m 1,205,206
 817 1268 817 1268 821 1224 c 1,207,-1
 864 1267 l 1,208,209
 848 1298 848 1298 823 1323 c 1,210,211
 814 1312 814 1312 806 1303 c 1,205,206
803 1313 m 1,212,-1
 816 1329 l 1,213,214
 803 1340 803 1340 787 1349 c 1,215,216
 796 1332 796 1332 803 1313 c 1,212,-1
544 605 m 1,217,-1
 579 570 l 1,218,-1
 592 579 l 1,219,-1
 788 727 l 1,220,221
 771 747 771 747 754 764 c 1,222,-1
 571 623 l 1,223,-1
 544 605 l 1,217,-1
806 705 m 1,224,225
 799 714 799 714 792 721 c 1,226,227
 607 581 607 581 585 565 c 1,228,229
 593 558 593 558 600 550 c 1,230,-1
 806 705 l 1,224,225
810 699 m 1,231,-1
 605 546 l 1,232,233
 608 543 608 543 628 521 c 1,234,-1
 830 673 l 1,235,236
 820 685 820 685 810 699 c 1,231,-1
861 637 m 1,237,238
 861 637 861 637 834 668 c 1,239,-1
 633 516 l 1,240,241
 647 501 647 501 660 487 c 1,242,-1
 861 637 l 1,237,238
891 598 m 1,243,-1
 790 516 l 1,244,-1
 699 440 l 1,245,246
 710 426 710 426 719 413 c 1,247,-1
 914 557 l 1,248,249
 905 577 905 577 891 598 c 1,243,-1
723 408 m 1,250,251
 747 372 747 372 759 349 c 1,252,-1
 832 399 l 1,253,-1
 941 480 l 1,254,255
 930 519 930 519 917 550 c 1,256,-1
 723 408 l 1,250,251
865 631 m 1,257,-1
 665 481 l 1,258,259
 680 464 680 464 694 447 c 1,260,-1
 784 522 l 1,261,-1
 886 604 l 1,262,263
 876 617 876 617 865 631 c 1,257,-1
943 473 m 1,264,265
 897 439 897 439 836 393 c 1,266,-1
 762 342 l 1,267,268
 771 324 771 324 778 306 c 1,269,270
 901 395 901 395 953 432 c 0,271,272
 953 434 953 434 950.5 443.5 c 128,-1,273
 948 453 948 453 943 473 c 1,264,265
954 424 m 1,274,275
 860 356 860 356 781 299 c 1,276,277
 787 282 787 282 791 263 c 1,278,-1
 953 382 l 1,279,280
 953 382 953 382 954 424 c 1,274,275
951 372 m 1,281,-1
 793 256 l 1,282,283
 797 241 797 241 800 225 c 2,284,-1
 805 195 l 1,285,286
 805 195 805 195 806 192 c 1,287,-1
 934 286 l 1,288,289
 941 321 941 321 951 372 c 1,281,-1
931 275 m 1,290,-1
 809 184 l 1,291,292
 810 177 810 177 810 167.5 c 128,-1,293
 810 158 810 158 808 149 c 1,294,-1
 922 232 l 1,295,296
 925 249 925 249 931 275 c 1,290,-1
919 221 m 1,297,-1
 805 137 l 1,298,299
 792 92 792 92 768 62 c 1,300,301
 771 63 771 63 775 65 c 2,302,-1
 880 142 l 1,303,304
 908 180 908 180 919 221 c 1,297,-1
818 87 m 1,305,306
 836 98 836 98 852 112 c 1,307,-1
 818 87 l 1,305,306
454 543 m 1,308,-1
 366 483 l 1,309,-1
 255 400 l 1,310,311
 246 370 246 370 244 334 c 1,312,-1
 267 349 l 1,313,-1
 348 406 l 1,314,315
 363 446 363 446 389 481 c 1,316,-1
 454 543 l 1,308,-1
332 341 m 1,317,-1
 245 276 l 1,318,319
 247 256 247 256 251 237 c 1,320,-1
 329 296 l 1,321,322
 329 319 329 319 332 341 c 1,317,-1
333 352 m 1,323,324
 337 374 337 374 344 395 c 1,325,-1
 271 343 l 1,326,-1
 243 325 l 1,327,328
 243 325 243 325 243 312 c 128,-1,329
 243 299 243 299 244 285 c 1,330,-1
 333 352 l 1,323,324
253 229 m 1,331,332
 258 209 258 209 265 191 c 1,333,-1
 331 241 l 1,334,335
 330 249 330 249 330 256 c 2,336,-1
 329 285 l 1,337,-1
 253 229 l 1,331,332
339 184 m 1,338,-1
 300 157 l 1,339,-1
 288 149 l 1,340,341
 300 131 300 131 315 116 c 1,342,-1
 351 142 l 1,343,344
 347 152 347 152 339 184 c 1,338,-1
331 232 m 1,345,-1
 268 185 l 1,346,347
 275 169 275 169 284 155 c 1,348,349
 291 160 291 160 296 163 c 2,350,-1
 337 191 l 1,351,352
 333 211 333 211 331 232 c 1,345,-1
380 73 m 1,353,-1
 376 70 l 1,354,355
 380 68 380 68 383 66 c 1,356,357
 382 70 382 70 380 73 c 1,353,-1
320 111 m 1,358,359
 345 88 345 88 369 74 c 1,360,-1
 376 79 l 1,361,362
 366 101 366 101 354 135 c 1,363,-1
 320 111 l 1,358,359
EndSplineSet
Validated: 3073
Layer: 3
SplineSet
751 167 m 4,0,1
 752 168 752 168 751 171 c 4,2,3
 744 192 744 192 741 219 c 4,4,5
 727 340 727 340 564 503 c 4,6,7
 546 521 546 521 522 544 c 5,8,-1
 435 444 l 5,9,10
 388 381 388 381 388 286 c 30,11,-1
 389 258 l 6,12,13
 391 215 391 215 404 169 c 4,14,15
 433 68 433 68 490 38 c 4,16,17
 523 21 523 21 566 21 c 5,18,19
 633 23 633 23 678 56 c 4,20,21
 720 88 720 88 736 121 c 4,22,23
 751 152 751 152 751 167 c 4,0,1
466 1179 m 4,24,25
 466 1111 466 1111 524.5 1039.5 c 132,-1,26
 583 968 583 968 669 903 c 5,27,-1
 673 909 l 6,28,29
 703 955 703 955 733.5 1032 c 132,-1,30
 764 1109 764 1109 764 1168 c 4,31,32
 764 1374 764 1374 639 1388 c 4,33,34
 631 1389 631 1389 624 1389 c 4,35,36
 560 1389 560 1389 511 1326 c 4,37,38
 476 1280 476 1280 471 1250.5 c 132,-1,39
 466 1221 466 1221 466 1179 c 4,24,25
184 313 m 4,40,41
 184 423 184 423 236 496 c 4,42,43
 260 530 260 530 322.5 580.5 c 132,-1,44
 385 631 385 631 422 649 c 6,45,-1
 429 652 l 5,46,-1
 424 658 l 6,47,48
 256 859 256 859 236 1034 c 4,49,50
 232 1068 232 1068 232 1089.5 c 132,-1,51
 232 1111 232 1111 234 1124 c 4,52,53
 259 1266 259 1266 316 1328 c 4,54,55
 426 1448 426 1448 602 1448 c 4,56,57
 849 1448 849 1448 923 1282 c 4,58,59
 948 1225 948 1225 948 1138 c 4,60,61
 948 987 948 987 789 814 c 6,62,-1
 779 804 l 5,63,-1
 793 804 l 6,64,65
 803 804 803 804 852 742 c 4,66,67
 880 705 880 705 901 680 c 4,68,69
 957 611 957 611 976 561 c 4,70,71
 1015 455 1015 455 1015 401 c 4,72,73
 1015 394 1015 394 1014 388 c 4,74,75
 991 158 991 158 897 73 c 4,76,77
 781 -32 781 -32 560 -32 c 4,78,79
 408 -32 408 -32 306 46 c 4,80,81
 184 139 184 139 184 313 c 4,40,41
EndSplineSet
EndChar

StartChar: nine
Encoding: 57 57 25
Width: 1222
GlyphClass: 2
Flags: W
LayerCount: 4
Back
SplineSet
226 242 m 4,0,1
 226 292 226 292 238 329 c 132,-1,2
 250 366 250 366 272 393 c 132,-1,3
 294 420 294 420 324 433 c 132,-1,4
 354 446 354 446 390 446 c 260,5,6
 426 446 426 446 457 433 c 132,-1,7
 488 420 488 420 511 393 c 132,-1,8
 534 366 534 366 547 328 c 132,-1,9
 560 290 560 290 560 242 c 4,10,11
 560 162 560 162 528 115 c 132,-1,12
 496 68 496 68 436 52 c 5,13,14
 450 48 450 48 468 46 c 132,-1,15
 486 44 486 44 500 44 c 4,16,17
 552 44 552 44 583 69 c 132,-1,18
 614 94 614 94 632 157 c 132,-1,19
 650 220 650 220 656 324 c 132,-1,20
 662 428 662 428 664 586 c 5,21,22
 644 572 644 572 620 557 c 132,-1,23
 596 542 596 542 569 530 c 132,-1,24
 542 518 542 518 514 512 c 132,-1,25
 486 506 486 506 458 506 c 4,26,27
 396 506 396 506 345 538 c 132,-1,28
 294 570 294 570 259 626 c 132,-1,29
 224 682 224 682 205 760 c 132,-1,30
 186 838 186 838 186 932 c 4,31,32
 186 994 186 994 194 1056 c 132,-1,33
 202 1118 202 1118 220 1176 c 132,-1,34
 238 1234 238 1234 267 1285 c 132,-1,35
 296 1336 296 1336 339 1374 c 132,-1,36
 382 1412 382 1412 440 1433 c 132,-1,37
 498 1454 498 1454 574 1454 c 4,38,39
 700 1454 700 1454 787 1404 c 132,-1,40
 874 1354 874 1354 926 1261 c 132,-1,41
 978 1168 978 1168 1000 1038 c 132,-1,42
 1022 908 1022 908 1022 748 c 4,43,44
 1022 642 1022 642 1014 541 c 132,-1,45
 1006 440 1006 440 986 353 c 132,-1,46
 966 266 966 266 934 194 c 132,-1,47
 902 122 902 122 852 70 c 132,-1,48
 802 18 802 18 734 -10 c 132,-1,49
 666 -38 666 -38 576 -38 c 4,50,51
 490 -38 490 -38 425 -18 c 132,-1,52
 360 2 360 2 316 40 c 132,-1,53
 272 78 272 78 249 129 c 132,-1,54
 226 180 226 180 226 242 c 4,0,1
608 684 m 4,55,56
 634 684 634 684 664 698 c 5,57,-1
 664 718 l 6,58,59
 664 880 664 880 663 1003 c 132,-1,60
 662 1126 662 1126 654 1209 c 132,-1,61
 646 1292 646 1292 629 1334 c 132,-1,62
 612 1376 612 1376 584 1376 c 4,63,64
 568 1376 568 1376 551 1364 c 132,-1,65
 534 1352 534 1352 522 1316 c 132,-1,66
 510 1280 510 1280 502 1218 c 132,-1,67
 494 1156 494 1156 494 1058 c 4,68,69
 494 964 494 964 500 894 c 132,-1,70
 506 824 506 824 519 778 c 132,-1,71
 532 732 532 732 554 708 c 132,-1,72
 576 684 576 684 608 684 c 4,55,56
EndSplineSet
Fore
SplineSet
730 726 m 1,0,-1
 730 683 l 1,1,-1
 817 749 l 1,2,-1
 954 858 l 1,3,4
 952 890 952 890 950 919 c 1,5,-1
 936 903 l 1,6,-1
 729 745 l 1,7,8
 729 745 729 745 730 726 c 1,0,-1
706 191 m 1,9,10
 698 146 698 146 680 97 c 1,11,-1
 887 251 l 1,12,13
 905 296 905 296 918 347 c 1,14,-1
 706 191 l 1,9,10
502 576 m 1,15,16
 548 588 548 588 597 619 c 1,17,18
 597 619 597 619 571 623 c 1,19,-1
 502 576 l 1,15,16
550 1363 m 0,20,21
 497 1316 497 1316 494 1074 c 1,22,23
 496 860 496 860 514 796 c 128,-1,24
 532 732 532 732 554 708 c 0,25,26
 577 683 577 683 609 683 c 0,27,28
 634 683 634 683 664 698 c 1,29,-1
 664 718 l 2,30,31
 664 1133 664 1133 654 1208 c 0,32,33
 636 1376 636 1376 584 1376 c 0,34,35
 568 1376 568 1376 559 1370 c 128,-1,36
 550 1364 550 1364 550 1363 c 0,20,21
436 52 m 1,37,38
 462 44 462 44 503 44 c 0,39,40
 506 44 506 44 508 44 c 0,41,42
 568 56 568 56 584 70 c 0,43,44
 614 96 614 96 632 157 c 0,45,46
 633 158 633 158 633 160 c 0,47,48
 658 253 658 253 663 544 c 0,49,50
 663 564 663 564 664 586 c 1,51,52
 557 506 557 506 473 506 c 2,53,54
 473 506 473 506 458 506 c 0,55,56
 339 506 339 506 259 626 c 0,57,58
 186 736 186 736 186 940 c 0,59,60
 186 1142 186 1142 260 1272 c 0,61,62
 364 1454 364 1454 574 1454 c 0,63,64
 931 1454 931 1454 1000 1038 c 0,65,66
 1022 908 1022 908 1022 842 c 2,67,68
 1022 842 1022 842 1022 742 c 128,-1,69
 1022 642 1022 642 1014 541 c 128,-1,70
 1006 440 1006 440 986 353 c 0,71,72
 925 86 925 86 760 2 c 1,73,74
 760 2 760 2 713 -18 c 128,-1,75
 666 -38 666 -38 576 -38 c 0,76,77
 324 -38 324 -38 249 129 c 0,78,79
 226 180 226 180 226 236 c 2,80,81
 226 236 226 236 226 264 c 128,-1,82
 226 292 226 292 238 329 c 128,-1,83
 250 366 250 366 272 393 c 128,-1,84
 294 420 294 420 324 433 c 128,-1,85
 354 446 354 446 390 446 c 0,86,87
 477 446 477 446 520 381 c 0,88,89
 560 326 560 326 560 242 c 0,90,91
 560 85 560 85 436 52 c 1,37,38
311 335 m 1,92,-1
 370 379 l 1,93,94
 331 372 331 372 311 335 c 1,92,-1
292 268 m 1,95,-1
 431 373 l 1,96,97
 412 381 412 381 400 381 c 2,98,99
 400 381 400 381 384 381 c 1,100,-1
 305 322 l 1,101,102
 295 302 295 302 292 268 c 1,95,-1
563 626 m 1,103,104
 531 639 531 639 513 657 c 1,105,-1
 436 598 l 1,106,-1
 409 579 l 1,107,108
 432 571 432 571 452 571 c 128,-1,109
 472 571 472 571 485 573 c 1,110,-1
 563 626 l 1,103,104
353 613 m 1,111,112
 373 595 373 595 401 582 c 1,113,-1
 432 604 l 1,114,-1
 508 662 l 1,115,116
 492 678 492 678 480 701 c 1,117,118
 478 700 478 700 451 681 c 128,-1,119
 424 662 424 662 353 613 c 1,111,112
477 707 m 1,120,121
 457 745 457 745 451 784 c 1,122,-1
 406 753 l 1,123,-1
 308 671 l 1,124,125
 326 640 326 640 348 618 c 1,126,-1
 472 704 l 1,127,-1
 477 707 l 1,120,121
449 792 m 1,128,129
 442 825 442 825 438 867 c 1,130,-1
 356 803 l 1,131,-1
 275 751 l 1,132,133
 287 710 287 710 304 678 c 1,134,-1
 402 759 l 1,135,-1
 449 792 l 1,128,129
437 875 m 1,136,137
 433 914 433 914 431 960 c 1,138,-1
 356 876 l 2,139,140
 329 845 329 845 326 843 c 2,141,-1
 263 801 l 1,142,143
 267 775 267 775 273 758 c 1,144,-1
 352 809 l 1,145,146
 395 842 395 842 437 875 c 1,136,137
430 973 m 1,147,148
 429 1003 429 1003 429 1035 c 1,149,150
 390 998 390 998 376 988 c 2,151,-1
 252 889 l 1,152,153
 254 847 254 847 261 808 c 1,154,155
 291 828 291 828 321 849 c 1,156,-1
 430 973 l 1,147,148
429 1050 m 1,157,158
 429 1050 429 1050 429 1069.5 c 128,-1,159
 429 1089 429 1089 430 1117 c 1,160,-1
 291 996 l 1,161,-1
 252 968 l 1,162,163
 251 950 251 950 251 932.5 c 128,-1,164
 251 915 251 915 252 898 c 1,165,166
 312 946 312 946 371 994 c 1,167,-1
 429 1050 l 1,157,158
430 1128 m 1,168,169
 432 1177 432 1177 437 1219 c 1,170,-1
 341 1151 l 1,171,-1
 265 1091 l 1,172,173
 254 1038 254 1038 252 978 c 1,174,175
 269 990 269 990 287 1002 c 1,176,-1
 430 1128 l 1,168,169
438 1229 m 1,177,178
 444 1281 444 1281 455 1321 c 1,179,-1
 381 1236 l 1,180,-1
 288 1175 l 1,181,182
 276 1140 276 1140 268 1102 c 1,183,-1
 337 1157 l 1,184,-1
 438 1229 l 1,177,178
462 1340 m 1,185,186
 469 1361 469 1361 478 1377 c 1,187,188
 354 1346 354 1346 292 1186 c 1,189,190
 292 1186 292 1186 376 1242 c 1,191,-1
 462 1340 l 1,185,186
688 1375 m 1,192,193
 684 1376 684 1376 681 1377 c 1,194,195
 683 1374 683 1374 684 1371 c 1,196,-1
 688 1375 l 1,192,193
696 1373 m 1,197,-1
 688 1363 l 1,198,199
 694 1351 694 1351 703 1315 c 1,200,201
 723 1337 723 1337 740 1355 c 1,202,203
 719 1366 719 1366 696 1373 c 1,197,-1
853 1256 m 1,204,205
 834 1284 834 1284 810 1307 c 1,206,207
 765 1255 765 1255 756 1248 c 2,208,-1
 719 1214 l 1,209,210
 723 1175 723 1175 725 1129 c 1,211,-1
 766 1169 l 1,212,-1
 853 1256 l 1,204,205
725 1117 m 1,213,214
 726 1088 726 1088 727 1055 c 1,215,-1
 847 1144 l 1,216,-1
 892 1183 l 1,217,218
 882 1208 882 1208 872.5 1223.5 c 128,-1,219
 863 1239 863 1239 858 1249 c 1,220,-1
 772 1163 l 2,221,222
 748 1140 748 1140 725 1117 c 1,213,214
803 1313 m 1,223,224
 777 1336 777 1336 750 1350 c 1,225,-1
 706 1304 l 1,226,227
 714 1269 714 1269 718 1224 c 1,228,-1
 751 1254 l 1,229,-1
 803 1313 l 1,223,224
933 1041 m 1,230,231
 925 1081 925 1081 915 1117 c 1,232,-1
 756 988 l 1,233,-1
 728 969 l 1,234,235
 728 933 728 933 729 895 c 1,236,-1
 933 1041 l 1,230,231
729 886 m 1,237,238
 729 886 729 886 729 829 c 1,239,240
 835 910 835 910 941 993 c 1,241,242
 939 1009 939 1009 937 1018.5 c 128,-1,243
 935 1028 935 1028 935 1032 c 1,244,-1
 791 933 l 1,245,-1
 729 886 l 1,237,238
913 1126 m 1,246,247
 905 1152 905 1152 895 1175 c 1,248,249
 860 1145 860 1145 851 1138 c 2,250,-1
 727 1047 l 1,251,252
 727 1027 727 1027 727.5 1009.5 c 128,-1,253
 728 992 728 992 728 978 c 1,254,-1
 752 994 l 1,255,-1
 911 1124 l 1,256,-1
 913 1126 l 1,246,247
729 597 m 1,257,-1
 957 769 l 1,258,259
 957 789 957 789 956 808 c 1,260,-1
 730 639 l 1,261,262
 729 617 729 617 729 597 c 1,257,-1
728 538 m 1,263,-1
 957 709 l 1,264,265
 957 709 957 709 957 760 c 1,266,-1
 729 588 l 1,267,268
 728 562 728 562 728 538 c 1,263,-1
730 648 m 1,269,-1
 956 818 l 1,270,271
 955 834 955 834 955 849 c 1,272,-1
 821 743 l 2,273,274
 784 715 784 715 730 674 c 1,275,276
 730 674 730 674 730 648 c 1,269,-1
949 931 m 1,277,278
 946 958 946 958 943 983 c 1,279,-1
 729 820 l 1,280,281
 729 820 729 820 729 754 c 1,282,-1
 931 909 l 1,283,-1
 949 931 l 1,277,278
725 418 m 1,284,-1
 952 585 l 1,285,286
 954 617 954 617 955 650 c 1,287,-1
 790 516 l 1,288,-1
 727 463 l 1,289,290
 726 440 726 440 725 418 c 1,284,-1
943 481 m 1,291,292
 947 513 947 513 948.5 537 c 128,-1,293
 950 561 950 561 951 576 c 1,294,-1
 725 408 l 1,295,296
 723 362 723 362 721 323 c 1,297,-1
 832 399 l 1,298,-1
 943 481 l 1,291,292
956 660 m 1,299,300
 957 680 957 680 957 700 c 1,301,-1
 728 528 l 1,302,303
 727 500 727 500 727 474 c 1,304,-1
 784 522 l 1,305,-1
 956 660 l 1,299,300
708 202 m 1,306,-1
 921 359 l 1,307,308
 927 383 927 383 931 408 c 1,309,310
 811 321 811 321 715 252 c 1,311,312
 712 225 712 225 708 202 c 1,306,-1
716 261 m 1,313,314
 865 369 865 369 933 418 c 1,315,316
 938 444 938 444 941 471 c 1,317,318
 896 437 896 437 836 393 c 1,319,-1
 720 313 l 1,320,321
 719 286 719 286 716 261 c 1,313,314
668 37 m 1,322,323
 778 63 778 63 846 167 c 1,324,-1
 668 37 l 1,322,323
674 85 m 1,325,326
 659 53 659 53 638 31 c 1,327,328
 645 32 645 32 651 33 c 1,329,-1
 855 182 l 1,330,331
 875 217 875 217 883 240 c 1,332,-1
 674 85 l 1,325,326
331 118 m 1,333,334
 331 110 331 110 368 110 c 128,-1,335
 405 110 405 110 432 119 c 1,336,-1
 471 147 l 1,337,338
 494 170 494 170 495 239 c 1,339,-1
 331 118 l 1,333,334
327 124 m 1,340,-1
 495 248 l 1,341,342
 495 269 495 269 491 286 c 1,343,-1
 306 161 l 1,344,345
 314 142 314 142 327 124 c 1,340,-1
303 168 m 1,346,-1
 490 293 l 1,347,348
 483 318 483 318 472 337 c 1,349,-1
 294 204 l 1,350,351
 296 185 296 185 303 168 c 1,346,-1
292 212 m 1,352,-1
 468 343 l 1,353,354
 456 360 456 360 439 370 c 1,355,-1
 292 258 l 1,356,357
 291 248 291 248 291 236.5 c 128,-1,358
 291 225 291 225 292 212 c 1,352,-1
EndSplineSet
Validated: 3073
Layer: 3
SplineSet
608 678 m 4,0,1
 635 678 635 678 670 694 c 5,2,-1
 670 698 l 5,3,-1
 670 718 l 6,4,5
 670 880 670 880 669 1003 c 132,-1,6
 668 1126 668 1126 660 1209.5 c 132,-1,7
 652 1293 652 1293 635 1336 c 4,8,9
 616 1382 616 1382 584 1382 c 4,10,11
 566 1382 566 1382 547.5 1369 c 132,-1,12
 529 1356 529 1356 516 1318 c 4,13,14
 488 1233 488 1233 488 1058 c 4,15,16
 488 866 488 866 513 776 c 4,17,18
 527 729 527 729 550 703.5 c 132,-1,19
 573 678 573 678 608 678 c 4,0,1
232 242 m 4,20,21
 232 334 232 334 277 389 c 4,22,23
 318 440 318 440 390 440 c 4,24,25
 425 440 425 440 452 428.5 c 132,-1,26
 479 417 479 417 498 398 c 4,27,28
 526 370 526 370 541 326 c 4,29,30
 554 289 554 289 554 242 c 4,31,32
 554 164 554 164 523 118.5 c 132,-1,33
 492 73 492 73 434 58 c 6,34,-1
 413 52 l 5,35,-1
 434 46 l 6,36,37
 463 38 463 38 500 38 c 4,38,39
 554 38 554 38 587 64.5 c 132,-1,40
 620 91 620 91 639 159 c 4,41,42
 656 219 656 219 662 323.5 c 132,-1,43
 668 428 668 428 670 598 c 5,44,-1
 661 591 l 6,45,46
 608 553 608 553 567 535 c 4,47,48
 514 512 514 512 458 512 c 4,49,50
 398 512 398 512 348 543 c 4,51,52
 249 606 249 606 211 762 c 4,53,54
 192 839 192 839 192 932 c 4,55,56
 192 1065 192 1065 226 1174 c 4,57,58
 265 1301 265 1301 343 1370 c 4,59,60
 432 1448 432 1448 574 1448 c 4,61,62
 698 1448 698 1448 784 1399 c 132,-1,63
 870 1350 870 1350 921 1258 c 132,-1,64
 972 1166 972 1166 994 1036.5 c 132,-1,65
 1016 907 1016 907 1016 748 c 4,66,67
 1016 642 1016 642 1008 541 c 4,68,69
 992 339 992 339 929 196 c 4,70,71
 863 50 863 50 730 -5 c 4,72,73
 665 -32 665 -32 576 -32 c 4,74,75
 409 -32 409 -32 320 45 c 4,76,77
 232 120 232 120 232 242 c 4,20,21
EndSplineSet
EndChar

StartChar: less
Encoding: 60 60 28
Width: 582
GlyphClass: 2
Flags: W
LayerCount: 4
Back
SplineSet
-4 490 m 5,0,-1
 502 972 l 5,1,-1
 590 884 l 5,2,-1
 174 490 l 5,3,-1
 590 94 l 5,4,-1
 502 6 l 5,5,-1
 -4 490 l 5,0,-1
EndSplineSet
Fore
SplineSet
-4 490 m 1,0,-1
 502 972 l 1,1,-1
 590 884 l 1,2,-1
 174 490 l 1,3,-1
 590 94 l 1,4,-1
 502 6 l 1,5,-1
 -4 490 l 1,0,-1
EndSplineSet
Validated: 1
Layer: 3
SplineSet
581 884 m 5,0,-1
 165 490 l 5,1,-1
 581 94 l 5,2,-1
 502 14 l 5,3,-1
 5 490 l 5,4,-1
 502 964 l 5,5,-1
 581 884 l 5,0,-1
EndSplineSet
EndChar

StartChar: greater
Encoding: 62 62 30
Width: 582
GlyphClass: 2
Flags: W
LayerCount: 4
Back
SplineSet
594 490 m 5,0,-1
 88 6 l 5,1,-1
 0 94 l 5,2,-1
 416 490 l 5,3,-1
 0 884 l 5,4,-1
 88 972 l 5,5,-1
 594 490 l 5,0,-1
EndSplineSet
Fore
SplineSet
594 490 m 1,0,-1
 88 6 l 1,1,-1
 0 94 l 1,2,-1
 416 490 l 1,3,-1
 0 884 l 1,4,-1
 88 972 l 1,5,-1
 594 490 l 1,0,-1
EndSplineSet
Validated: 1
Layer: 3
SplineSet
9 94 m 5,0,-1
 425 490 l 5,1,-1
 9 884 l 5,2,-1
 88 964 l 5,3,-1
 585 490 l 5,4,-1
 88 14 l 5,5,-1
 9 94 l 5,0,-1
EndSplineSet
EndChar

StartChar: at
Encoding: 64 64 32
Width: 2080
GlyphClass: 2
Flags: W
LayerCount: 4
Back
SplineSet
1460 140 m 4,0,1
 1536 140 1536 140 1602 216 c 4,2,3
 1656 278 1656 278 1704 356 c 4,4,5
 1750 432 1750 432 1779 531 c 132,-1,6
 1808 630 1808 630 1808 736 c 4,7,8
 1808 884 1808 884 1750 1008 c 132,-1,9
 1692 1132 1692 1132 1578 1224 c 132,-1,10
 1464 1316 1464 1316 1343 1369 c 132,-1,11
 1222 1422 1222 1422 1088 1422 c 4,12,13
 950 1422 950 1422 844 1394 c 132,-1,14
 738 1366 738 1366 659 1314 c 132,-1,15
 580 1262 580 1262 501 1186 c 132,-1,16
 422 1110 422 1110 374 1013 c 132,-1,17
 326 916 326 916 291 800 c 132,-1,18
 256 684 256 684 256 550 c 4,19,20
 256 352 256 352 321 213 c 132,-1,21
 386 74 386 74 481 -15 c 132,-1,22
 576 -104 576 -104 708 -145 c 132,-1,23
 840 -186 840 -186 1044 -186 c 4,24,25
 1164 -186 1164 -186 1275 -162 c 132,-1,26
 1386 -138 1386 -138 1485 -99 c 132,-1,27
 1584 -60 1584 -60 1674 -10 c 132,-1,28
 1764 40 1764 40 1842 92 c 5,29,30
 1842 92 1842 92 1890 30 c 5,31,32
 1852 -6 1852 -6 1799 -52 c 132,-1,33
 1746 -98 1746 -98 1679 -145 c 132,-1,34
 1612 -192 1612 -192 1533 -237 c 132,-1,35
 1454 -282 1454 -282 1385 -316 c 132,-1,36
 1316 -350 1316 -350 1221 -371 c 132,-1,37
 1126 -392 1126 -392 1054 -392 c 4,38,39
 908 -392 908 -392 804 -368 c 132,-1,40
 700 -344 700 -344 602 -303 c 132,-1,41
 504 -262 504 -262 423 -193 c 132,-1,42
 342 -124 342 -124 273 -13 c 132,-1,43
 204 98 204 98 160 238 c 132,-1,44
 116 378 116 378 116 542 c 4,45,46
 116 674 116 674 143 810 c 132,-1,47
 170 946 170 946 233 1068 c 132,-1,48
 296 1190 296 1190 381 1288 c 132,-1,49
 466 1386 466 1386 575 1463 c 132,-1,50
 684 1540 684 1540 826 1584 c 132,-1,51
 968 1628 968 1628 1166 1628 c 4,52,53
 1210 1628 1210 1628 1288 1608 c 132,-1,54
 1366 1588 1366 1588 1455 1544 c 132,-1,55
 1544 1500 1544 1500 1637 1432 c 132,-1,56
 1730 1364 1730 1364 1800 1268 c 132,-1,57
 1870 1172 1870 1172 1911 1048 c 132,-1,58
 1952 924 1952 924 1952 768 c 4,59,60
 1952 672 1952 672 1930 579 c 4,61,62
 1907 480 1907 480 1860 386 c 4,63,64
 1817 299 1817 299 1774 248 c 4,65,66
 1671 125 1671 125 1596 74 c 28,67,68
 1548 42 1548 42 1446 12 c 4,69,70
 1380 -8 1380 -8 1320 -8 c 4,71,72
 1262 -8 1262 -8 1221 13 c 132,-1,73
 1180 34 1180 34 1153 69 c 132,-1,74
 1126 104 1126 104 1114 147 c 132,-1,75
 1102 190 1102 190 1100 232 c 5,76,77
 1084 180 1084 180 1060 136 c 132,-1,78
 1036 92 1036 92 1002 60 c 132,-1,79
 968 28 968 28 921 10 c 132,-1,80
 874 -8 874 -8 812 -8 c 4,81,82
 740 -8 740 -8 681 26 c 132,-1,83
 622 60 622 60 580 121 c 132,-1,84
 538 182 538 182 517 269 c 132,-1,85
 496 356 496 356 496 464 c 4,86,87
 496 648 496 648 531 784 c 132,-1,88
 566 920 566 920 627 1008 c 132,-1,89
 688 1096 688 1096 770 1139 c 132,-1,90
 852 1182 852 1182 942 1182 c 4,91,92
 1008 1182 1008 1182 1055 1157 c 132,-1,93
 1102 1132 1102 1132 1132 1090 c 132,-1,94
 1162 1048 1162 1048 1177 992 c 132,-1,95
 1192 936 1192 936 1194 868 c 5,96,97
 1194 868 1194 868 1228 1076 c 5,98,-1
 1540 1076 l 5,99,100
 1526 1026 1526 1026 1511 955 c 132,-1,101
 1496 884 1496 884 1481 804 c 132,-1,102
 1466 724 1466 724 1455 640 c 132,-1,103
 1444 556 1444 556 1435 477 c 132,-1,104
 1426 398 1426 398 1421 329 c 132,-1,105
 1416 260 1416 260 1416 212 c 4,106,107
 1416 172 1416 172 1429 156 c 132,-1,108
 1442 140 1442 140 1460 140 c 4,0,1
872 398 m 4,109,110
 872 316 872 316 879 264 c 132,-1,111
 886 212 886 212 898 183 c 132,-1,112
 910 154 910 154 925 143 c 132,-1,113
 940 132 940 132 958 132 c 4,114,115
 990 132 990 132 1024 178 c 132,-1,116
 1058 224 1058 224 1085 309 c 132,-1,117
 1112 394 1112 394 1130 513 c 132,-1,118
 1148 632 1148 632 1148 776 c 4,119,120
 1148 838 1148 838 1144 888 c 132,-1,121
 1140 938 1140 938 1131 975 c 132,-1,122
 1122 1012 1122 1012 1107 1031 c 132,-1,123
 1092 1050 1092 1050 1070 1050 c 4,124,125
 1034 1050 1034 1050 998 1004 c 132,-1,126
 962 958 962 958 934 873 c 132,-1,127
 906 788 906 788 889 667 c 132,-1,128
 872 546 872 546 872 398 c 4,109,110
EndSplineSet
Fore
SplineSet
496 446 m 2,0,1
 496 446 496 446 496 464 c 0,2,3
 496 850 496 850 645 1032 c 1,4,5
 762 1182 762 1182 942 1182 c 0,6,7
 1042 1182 1042 1182 1127 1097 c 0,8,9
 1130 1094 1130 1094 1134 1088 c 128,-1,10
 1138 1082 1138 1082 1150 1062 c 0,11,12
 1191 994 1191 994 1194 868 c 1,13,-1
 1228 1076 l 1,14,-1
 1540 1076 l 1,15,16
 1540 1076 1540 1076 1532 1049 c 0,17,18
 1452 760 1452 760 1421 329 c 0,19,20
 1417 276 1417 276 1417 223 c 0,21,22
 1417 212 1417 212 1417 202 c 0,23,24
 1418 140 1418 140 1460 140 c 0,25,26
 1536 140 1536 140 1602 216 c 1,27,28
 1602 216 1602 216 1630 250 c 0,29,30
 1731 368 1731 368 1779 531 c 0,31,32
 1808 630 1808 630 1808 757 c 128,-1,33
 1808 884 1808 884 1754 1000 c 0,34,35
 1691 1134 1691 1134 1589 1215.5 c 128,-1,36
 1487 1297 1487 1297 1363.5 1359.5 c 128,-1,37
 1240 1422 1240 1422 1092 1422 c 0,38,39
 823 1422 823 1422 659 1314 c 0,40,41
 580 1262 580 1262 533.5 1217 c 128,-1,42
 487 1172 487 1172 449 1130 c 0,43,44
 363 1037 363 1037 291 800 c 0,45,46
 257 687 257 687 257 518 c 128,-1,47
 257 349 257 349 321.5 211.5 c 128,-1,48
 386 74 386 74 481 -15 c 128,-1,49
 576 -104 576 -104 708 -145 c 128,-1,50
 840 -186 840 -186 1044 -186 c 0,51,52
 1417 -186 1417 -186 1842 92 c 1,53,-1
 1890 30 l 1,54,55
 1676 -172 1676 -172 1385 -316 c 0,56,57
 1316 -350 1316 -350 1221 -371 c 128,-1,58
 1126 -392 1126 -392 1085 -392 c 2,59,60
 1085 -392 1085 -392 996.5 -392 c 128,-1,61
 908 -392 908 -392 804 -368 c 128,-1,62
 700 -344 700 -344 602 -303 c 0,63,64
 401 -219 401 -219 273 -13 c 0,65,66
 271 -9 271 -9 268 -5 c 0,67,68
 116 246 116 246 116 542 c 0,69,70
 116 648 116 648 143 810 c 1,71,72
 170 946 170 946 233 1068 c 0,73,74
 238 1077 238 1077 242 1086 c 0,75,76
 268 1135 268 1135 368 1273 c 0,77,78
 376 1284 376 1284 424 1334 c 0,79,80
 471 1384 471 1384 513 1416 c 2,81,82
 513 1416 513 1416 598.5 1478 c 128,-1,83
 684 1540 684 1540 826 1584 c 128,-1,84
 968 1628 968 1628 1166 1628 c 0,85,86
 1285 1628 1285 1628 1428 1557.5 c 128,-1,87
 1571 1487 1571 1487 1651.5 1422 c 128,-1,88
 1732 1357 1732 1357 1790 1281 c 0,89,90
 1795 1274 1795 1274 1800 1268 c 0,91,92
 1952 1062 1952 1062 1952 768 c 0,93,94
 1952 570 1952 570 1860 386 c 0,95,96
 1817 299 1817 299 1744.5 212.5 c 128,-1,97
 1672 126 1672 126 1610 84 c 0,98,99
 1608 84 1608 84 1590 70 c 0,100,101
 1542 35 1542 35 1462 14 c 128,-1,102
 1382 -7 1382 -7 1355.5 -7.5 c 128,-1,103
 1329 -8 1329 -8 1295.5 -8 c 128,-1,104
 1262 -8 1262 -8 1221 13 c 128,-1,105
 1180 34 1180 34 1153 69 c 0,106,107
 1106 132 1106 132 1100 232 c 1,108,109
 1026 -8 1026 -8 812 -8 c 0,110,111
 666 -8 666 -8 581 118 c 128,-1,112
 496 244 496 244 496 446 c 2,0,1
1148 777 m 0,113,114
 1148 1050 1148 1050 1070 1050 c 0,115,116
 1034 1050 1034 1050 998 1004 c 0,117,118
 923 908 923 908 889 667 c 0,119,120
 872 549 872 549 872 404 c 0,121,122
 873 132 873 132 958 132 c 0,123,124
 990 132 990 132 1024 178 c 0,125,126
 1094 272 1094 272 1130 513 c 0,127,128
 1148 632 1148 632 1148 777 c 0,113,114
808 470 m 1,129,-1
 577 300 l 1,130,131
 580 281 580 281 595 235 c 1,132,-1
 622 254 l 1,133,-1
 807 382 l 1,134,135
 807 382 807 382 807 407 c 128,-1,136
 807 432 807 432 808 470 c 1,129,-1
811 533 m 1,137,-1
 790 516 l 1,138,-1
 694 436 l 1,139,-1
 597 357 l 1,140,-1
 570 339 l 1,141,142
 572 323 572 323 575 307 c 1,143,-1
 808 479 l 1,144,145
 809 507 809 507 811 533 c 1,137,-1
815 594 m 1,146,-1
 563 405 l 1,147,148
 565 374 565 374 568 346 c 1,149,-1
 593 363 l 1,150,-1
 784 522 l 1,151,-1
 812 544 l 1,152,153
 813 569 813 569 815 594 c 1,146,-1
822 658 m 1,154,-1
 561 462 l 1,155,156
 561 437 561 437 562 414 c 1,157,-1
 816 603 l 1,158,159
 819 631 819 631 822 658 c 1,154,-1
824 669 m 1,160,161
 826 676 826 676 830 714 c 1,162,-1
 562 513 l 1,163,164
 561 492 561 492 561 471 c 1,165,-1
 824 669 l 1,160,161
837 161 m 1,166,-1
 723 77 l 1,167,168
 746 66 746 66 770 61 c 1,169,-1
 856 124 l 1,170,171
 846 139 846 139 842 149.5 c 128,-1,172
 838 160 838 160 837 161 c 1,166,-1
691 97 m 1,173,174
 713 81 713 81 717 81 c 1,175,-1
 834 168 l 1,176,177
 829 181 829 181 825 197 c 1,178,-1
 691 97 l 1,173,174
813 270 m 1,179,-1
 643 145 l 1,180,181
 662 120 662 120 685 102 c 1,182,-1
 824 204 l 1,183,184
 817 233 817 233 813 270 c 1,179,-1
809 320 m 1,185,186
 702 242 702 242 619 182 c 1,187,188
 628 166 628 166 638 151 c 1,189,-1
 812 279 l 1,190,191
 810 299 810 299 809 320 c 1,185,186
807 373 m 1,192,-1
 626 248 l 1,193,-1
 598 228 l 1,194,195
 606 207 606 207 615 189 c 1,196,197
 729 271 729 271 808 328 c 1,198,199
 807 349 807 349 807 373 c 1,192,-1
891 87 m 1,200,201
 891 87 891 87 878 97 c 1,202,-1
 825 57 l 1,203,204
 843 58 843 58 859 61 c 1,205,-1
 891 87 l 1,200,201
860 118 m 1,206,-1
 779 59 l 1,207,208
 794 57 794 57 802 57 c 2,209,210
 802 57 802 57 812 57 c 1,211,-1
 873 102 l 1,212,213
 866 109 866 109 860 118 c 1,206,-1
898 83 m 1,214,-1
 874 63 l 1,215,216
 887 66 887 66 895.5 70 c 128,-1,217
 904 74 904 74 911 76 c 1,218,219
 904 79 904 79 898 83 c 1,214,-1
563 550 m 1,220,221
 562 537 562 537 562 523 c 1,222,-1
 832 725 l 1,223,224
 835 741 835 741 838 756 c 1,225,-1
 821 743 l 2,226,227
 744 685 744 685 596 573 c 1,228,-1
 563 550 l 1,220,221
568 621 m 1,229,230
 565 591 565 591 564 559 c 1,231,-1
 592 579 l 1,232,-1
 817 749 l 1,233,-1
 840 767 l 1,234,235
 848 807 848 807 857 842 c 1,236,-1
 571 623 l 1,237,-1
 568 621 l 1,229,230
581 709 m 1,238,239
 574 672 574 672 570 631 c 1,240,-1
 860 855 l 1,241,242
 874 904 874 904 890 944 c 1,243,-1
 581 709 l 1,238,239
583 719 m 1,244,245
 740 838 740 838 896 958 c 1,246,247
 917 1007 917 1007 944 1041 c 1,248,249
 944 1039 944 1039 791 933 c 1,250,-1
 606 793 l 2,251,252
 603 790 603 790 599 788 c 0,253,254
 591 758 591 758 583 719 c 1,244,245
603 800 m 1,255,-1
 787 939 l 1,256,257
 787 939 787 939 931 1039 c 1,258,-1
 1001 1109 l 1,259,260
 975 1117 975 1117 951.5 1117 c 128,-1,261
 928 1117 928 1117 914 1116 c 1,262,-1
 756 988 l 1,263,-1
 662 923 l 1,264,-1
 641 902 l 1,265,266
 620 857 620 857 603 800 c 1,255,-1
652 925 m 1,267,268
 656 929 656 929 657 929 c 2,269,-1
 752 994 l 1,270,-1
 899 1114 l 1,271,272
 743 1093 743 1093 652 925 c 1,267,268
994 1090 m 1,273,274
 1005 1098 1005 1098 1017 1103 c 1,275,276
 1014 1105 1014 1105 1012 1105.5 c 128,-1,277
 1010 1106 1010 1106 994 1090 c 1,273,274
1185 142 m 1,278,-1
 1352 259 l 1,279,280
 1353 293 1353 293 1356 332 c 1,281,282
 1297 296 1297 296 1226 256 c 1,283,-1
 1167 212 l 1,284,285
 1172 173 1172 173 1185 142 c 1,278,-1
1188 135 m 1,286,287
 1199 113 1199 113 1215 97 c 1,288,-1
 1351 198 l 1,289,290
 1351 198 1351 198 1351 213.5 c 128,-1,291
 1351 229 1351 229 1352 249 c 1,292,293
 1259 184 1259 184 1188 135 c 1,286,287
1221 91 m 1,294,295
 1221 91 1221 91 1254 69 c 1,296,-1
 1361 147 l 1,297,298
 1354 165 1354 165 1352 189 c 1,299,-1
 1221 91 l 1,294,295
1166 221 m 1,300,-1
 1222 262 l 1,301,-1
 1357 346 l 1,302,303
 1359 375 1359 375 1362 407 c 1,304,-1
 1251 333 l 1,305,-1
 1163 274 l 1,306,307
 1164 255 1164 255 1164.5 241.5 c 128,-1,308
 1165 228 1165 228 1166 221 c 1,300,-1
1249 804 m 1,309,-1
 1443 947 l 1,310,311
 1443 947 1443 947 1447 968.5 c 128,-1,312
 1451 990 1451 990 1456 1008 c 1,313,-1
 1261 875 l 1,314,-1
 1249 804 l 1,309,-1
1271 934 m 1,315,-1
 1263 885 l 1,316,-1
 1448 1011 l 1,317,-1
 1374 1011 l 1,318,-1
 1271 934 l 1,315,-1
1282 1006 m 1,319,-1
 1272 945 l 1,320,-1
 1361 1011 l 1,321,-1
 1290 1011 l 1,322,-1
 1282 1006 l 1,319,-1
1248 795 m 1,323,-1
 1232 700 l 1,324,-1
 1271 729 l 1,325,326
 1366 814 1366 814 1367 814 c 2,327,-1
 1425 859 l 1,328,329
 1432 897 1432 897 1441 938 c 1,330,-1
 1248 795 l 1,323,-1
1210 564 m 1,331,-1
 1197 481 l 1,332,-1
 1387 622 l 1,333,334
 1389 635 1389 635 1391.5 654.5 c 128,-1,335
 1394 674 1394 674 1398 702 c 1,336,-1
 1210 564 l 1,331,-1
1195 472 m 1,337,-1
 1188 426 l 1,338,-1
 1380 567 l 1,339,340
 1380 567 1380 567 1386 613 c 1,341,-1
 1195 472 l 1,337,-1
1219 619 m 1,342,-1
 1212 574 l 1,343,-1
 1400 713 l 1,344,345
 1403 733 1403 733 1406 754 c 1,346,-1
 1316 688 l 2,347,348
 1280 662 1280 662 1219 619 c 1,342,-1
1231 689 m 1,349,-1
 1221 629 l 1,350,-1
 1312 694 l 1,351,-1
 1408 765 l 1,352,353
 1415 805 1415 805 1423 849 c 1,354,355
 1397 829 1397 829 1337 776 c 128,-1,356
 1277 723 1277 723 1276 723 c 2,357,-1
 1231 689 l 1,349,-1
1175 349 m 1,358,-1
 1171 322 l 1,359,-1
 1369 468 l 1,360,361
 1370 476 1370 476 1370 482 c 128,-1,362
 1370 488 1370 488 1371 493 c 1,363,-1
 1175 349 l 1,358,-1
1164 283 m 1,364,-1
 1247 339 l 1,365,-1
 1363 417 l 1,366,367
 1365 437 1365 437 1368 459 c 1,368,-1
 1169 312 l 1,369,-1
 1164 283 l 1,364,-1
1186 417 m 1,370,-1
 1177 359 l 1,371,-1
 1373 503 l 1,372,373
 1376 530 1376 530 1379 558 c 1,374,-1
 1186 417 l 1,370,-1
1382 111 m 1,375,376
 1372 121 1372 121 1364 140 c 1,377,-1
 1262 66 l 1,378,379
 1282 59 1282 59 1309 57 c 1,380,-1
 1382 111 l 1,375,376
1433 79 m 1,381,-1
 1428 75 l 1,382,383
 1428 75 1428 75 1438 77 c 1,384,385
 1435 78 1435 78 1433 79 c 1,381,-1
1387 105 m 1,386,-1
 1322 57 l 1,387,388
 1322 57 1322 57 1342.5 57 c 128,-1,389
 1363 57 1363 57 1411 70 c 1,390,-1
 1417 74 l 1,391,-1
 1425 81 l 1,392,393
 1404 88 1404 88 1387 105 c 1,386,-1
1872 772 m 1,394,395
 1872 772 1872 772 1873 714 c 1,396,-1
 1886 723 l 1,397,398
 1887 745 1887 745 1887 758 c 2,399,400
 1887 758 1887 758 1887 782 c 1,401,402
 1887 811 1887 811 1885 840 c 1,403,404
 1868 827 1868 827 1868 827 c 1,405,406
 1871 800 1871 800 1872 772 c 1,394,395
1832 483 m 1,407,408
 1833 484 1833 484 1833 485 c 1,409,410
 1832 484 1832 484 1832 483 c 1,407,408
1836 496 m 1,411,-1
 1838 497 l 1,412,413
 1851 531 1851 531 1860 566 c 1,414,-1
 1854 561 l 1,415,416
 1846 528 1846 528 1836 496 c 1,411,-1
1856 572 m 1,417,-1
 1863 577 l 1,418,419
 1867 592 1867 592 1870 607 c 1,420,-1
 1861 601 l 1,421,422
 1859 586 1859 586 1856 572 c 1,417,-1
1872 704 m 1,423,424
 1870 657 1870 657 1863 610 c 1,425,426
 1867 613 1867 613 1872 616 c 1,427,428
 1882 664 1882 664 1885 713 c 1,429,-1
 1872 704 l 1,423,424
1816 1020 m 1,430,-1
 1845 1041 l 1,431,432
 1845 1041 1845 1041 1833 1073 c 1,433,-1
 1802 1051 l 1,434,435
 1806 1044 1806 1044 1809 1036 c 128,-1,436
 1812 1028 1812 1028 1816 1020 c 1,430,-1
1839 958 m 1,437,-1
 1864 976 l 1,438,439
 1854 1019 1854 1019 1847 1033 c 1,440,-1
 1819 1013 l 1,441,442
 1830 986 1830 986 1839 958 c 1,437,-1
1867 835 m 1,443,-1
 1884 848 l 1,444,445
 1883 858 1883 858 1882 869 c 1,446,-1
 1864 855 l 1,447,448
 1866 845 1866 845 1867 835 c 1,443,-1
1862 864 m 1,449,-1
 1881 878 l 1,450,451
 1879 900 1879 900 1875 921 c 1,452,-1
 1854 905 l 1,453,454
 1858 885 1858 885 1862 864 c 1,449,-1
1852 913 m 1,455,-1
 1874 929 l 1,456,457
 1874 929 1874 929 1866 969 c 1,458,-1
 1842 951 l 1,459,460
 1842 951 1842 951 1852 913 c 1,455,-1
1600 1290 m 1,461,462
 1600 1290 1600 1290 1622 1272 c 1,463,-1
 1677 1313 l 1,464,465
 1667 1323 1667 1323 1657 1332 c 1,466,-1
 1600 1290 l 1,461,462
1732 1161 m 1,467,-1
 1773 1191 l 1,468,469
 1757 1218 1757 1218 1741 1239 c 1,470,471
 1719 1222 1719 1222 1695 1203 c 1,472,473
 1715 1183 1715 1183 1732 1161 c 1,467,-1
1770 1107 m 1,474,-1
 1805 1134 l 1,475,476
 1792 1160 1792 1160 1777 1185 c 1,477,-1
 1736 1155 l 1,478,479
 1754 1132 1754 1132 1770 1107 c 1,474,-1
1774 1101 m 1,480,481
 1787 1080 1787 1080 1798 1057 c 1,482,-1
 1830 1080 l 1,483,484
 1820 1104 1820 1104 1809 1128 c 1,485,-1
 1774 1101 l 1,480,481
1691 1208 m 1,486,-1
 1737 1244 l 1,487,488
 1737 1244 1737 1244 1717 1268 c 1,489,-1
 1668 1231 l 1,490,491
 1680 1220 1680 1220 1691 1208 c 1,486,-1
1663 1236 m 1,492,-1
 1713 1274 l 1,493,494
 1698 1291 1698 1291 1682 1307 c 1,495,-1
 1628 1267 l 1,496,497
 1647 1252 1647 1252 1663 1236 c 1,492,-1
1308 1452 m 1,498,499
 1350 1438 1350 1438 1370 1428 c 1,500,-1
 1426 1486 l 1,501,502
 1395 1501 1395 1501 1366 1513 c 1,503,-1
 1337 1483 l 1,504,-1
 1308 1452 l 1,498,499
1502 1358 m 1,505,-1
 1558 1408 l 1,506,507
 1544 1417 1544 1417 1530 1427 c 1,508,509
 1506 1401 1506 1401 1474 1375 c 1,510,511
 1488 1367 1488 1367 1502 1358 c 1,505,-1
1605 1375 m 1,512,513
 1592 1385 1592 1385 1564 1404 c 1,514,-1
 1508 1354 l 1,515,516
 1529 1341 1529 1341 1550 1327 c 1,517,-1
 1591 1359 l 1,518,-1
 1605 1375 l 1,512,513
1431 1398 m 1,519,520
 1431 1398 1431 1398 1465 1380 c 1,521,-1
 1501 1409 l 1,522,523
 1501 1409 1501 1409 1523 1431 c 1,524,525
 1507 1441 1507 1441 1491 1450 c 1,526,527
 1491 1450 1491 1450 1481 1438 c 1,528,-1
 1431 1398 l 1,519,520
1378 1425 m 1,529,530
 1401 1415 1401 1415 1424 1403 c 1,531,-1
 1476 1444 l 1,532,-1
 1484 1455 l 1,533,534
 1459 1470 1459 1470 1434 1482 c 1,535,-1
 1378 1425 l 1,529,530
1594 1294 m 1,536,-1
 1650 1337 l 1,537,538
 1631 1354 1631 1354 1611 1370 c 1,539,-1
 1596 1353 l 1,540,-1
 1556 1322 l 1,541,542
 1556 1322 1556 1322 1594 1294 c 1,536,-1
1199 1479 m 1,543,-1
 1241 1519 l 1,544,-1
 1263 1547 l 1,545,546
 1200 1563 1200 1563 1180 1563 c 2,547,548
 1180 1563 1180 1563 1153 1563 c 1,549,-1
 1087 1503 l 1,550,-1
 1073 1487 l 1,551,552
 1073 1487 1073 1487 1109 1487 c 128,-1,553
 1145 1487 1145 1487 1199 1479 c 1,543,-1
1297 1456 m 1,554,555
 1327 1487 1327 1487 1356 1517 c 1,556,557
 1343 1522 1343 1522 1331 1527 c 1,558,-1
 1322 1518 l 1,559,-1
 1270 1463 l 1,560,561
 1284 1460 1284 1460 1297 1456 c 1,554,555
1210 1477 m 1,562,563
 1236 1473 1236 1473 1261 1466 c 1,564,-1
 1316 1524 l 1,565,-1
 1322 1530 l 1,566,567
 1296 1539 1296 1539 1272 1545 c 1,568,-1
 1247 1513 l 1,569,-1
 1210 1477 l 1,562,563
858 1464 m 1,570,571
 898 1473 898 1473 942 1478 c 1,572,-1
 971 1514 l 1,573,-1
 1015 1555 l 1,574,575
 985 1552 985 1552 957 1548 c 1,576,577
 946 1534 946 1534 946 1533 c 2,578,-1
 871 1478 l 1,579,-1
 858 1464 l 1,570,571
1062 1487 m 1,580,-1
 1081 1509 l 1,581,-1
 1141 1563 l 1,582,583
 1082 1562 1082 1562 1028 1557 c 1,584,-1
 977 1508 l 1,585,-1
 954 1480 l 1,586,587
 1006 1486 1006 1486 1062 1487 c 1,580,-1
747 1431 m 1,588,589
 776 1442 776 1442 840 1460 c 1,590,591
 858 1478 858 1478 867 1484 c 2,592,-1
 941 1539 l 1,593,594
 944 1543 944 1543 947 1546 c 1,595,596
 877 1534 877 1534 817 1513 c 1,597,-1
 747 1431 l 1,588,589
555 1319 m 1,598,599
 651 1393 651 1393 730 1425 c 1,600,-1
 803 1508 l 1,601,602
 729 1481 729 1481 665 1444 c 1,603,-1
 607 1371 l 1,604,605
 607 1371 607 1371 555 1319 c 1,598,599
454 1231 m 1,606,607
 454 1231 454 1231 374 1174 c 1,608,609
 307 1082 307 1082 267 988 c 1,610,611
 267 988 267 988 287 1002 c 1,612,-1
 304 1016 l 1,613,614
 362 1143 362 1143 454 1231 c 1,606,607
251 888 m 1,615,-1
 223 865 l 1,616,617
 204 802 204 802 202 770 c 1,618,-1
 218 780 l 1,619,620
 235 842 235 842 251 888 c 1,615,-1
296 1001 m 1,621,-1
 291 996 l 1,622,-1
 261 975 l 1,623,624
 241 928 241 928 226 877 c 1,625,-1
 256 901 l 1,626,627
 275 954 275 954 296 1001 c 1,621,-1
192 587 m 1,628,-1
 186 583 l 1,629,-1
 182 580 l 1,630,631
 181 561 181 561 181 541.5 c 128,-1,632
 181 522 181 522 182 503 c 1,633,-1
 192 510 l 1,634,635
 191 530 191 530 191 549.5 c 128,-1,636
 191 569 191 569 192 587 c 1,628,-1
203 704 m 1,637,-1
 191 697 l 1,638,639
 184 643 184 643 182 589 c 1,640,-1
 192 596 l 1,641,642
 195 651 195 651 203 704 c 1,637,-1
216 771 m 1,643,-1
 200 761 l 1,644,645
 195 734 195 734 192 706 c 1,646,-1
 204 714 l 1,647,648
 209 743 209 743 216 771 c 1,643,-1
246 224 m 1,649,-1
 236 216 l 1,650,651
 242 198 242 198 249 180 c 1,652,-1
 261 189 l 1,653,654
 253 206 253 206 246 224 c 1,649,-1
231 266 m 1,655,-1
 222 259 l 1,656,657
 222 254 222 254 233 223 c 1,658,-1
 243 231 l 1,659,660
 237 248 237 248 231 266 c 1,655,-1
219 308 m 1,661,-1
 209 302 l 1,662,663
 209 302 209 302 219 266 c 1,664,-1
 229 273 l 1,665,666
 224 290 224 290 219 308 c 1,661,-1
207 364 m 1,667,-1
 197 358 l 1,668,669
 201 334 201 334 207 310 c 1,670,-1
 217 316 l 1,671,672
 211 339 211 339 207 364 c 1,667,-1
197 433 m 1,673,-1
 187 427 l 1,674,675
 190 396 190 396 196 365 c 1,676,-1
 205 372 l 1,677,678
 200 402 200 402 197 433 c 1,673,-1
192 502 m 1,679,680
 187 499 187 499 182 495 c 1,681,682
 183 465 183 465 186 435 c 1,683,-1
 196 442 l 1,684,685
 193 471 193 471 192 502 c 1,679,680
405 -31 m 1,686,-1
 378 -51 l 1,687,688
 397 -76 397 -76 417 -97 c 1,689,-1
 449 -74 l 1,690,691
 435 -61 435 -61 424 -50 c 2,692,693
 424 -50 424 -50 405 -31 c 1,686,-1
373 6 m 1,694,695
 358 -5 358 -5 350 -12 c 1,696,697
 362 -30 362 -30 374 -45 c 1,698,-1
 400 -26 l 1,699,700
 386 -10 386 -10 373 6 c 1,694,695
323 30 m 1,701,702
 323 30 323 30 346 -6 c 1,703,-1
 369 11 l 1,704,705
 356 27 356 27 343 45 c 1,706,-1
 323 30 l 1,701,702
307 101 m 1,707,-1
 290 88 l 1,708,709
 304 61 304 61 319 36 c 1,710,-1
 339 51 l 1,711,712
 322 75 322 75 307 101 c 1,707,-1
282 145 m 1,713,-1
 268 135 l 1,714,715
 277 115 277 115 287 95 c 1,716,-1
 303 107 l 1,717,718
 292 126 292 126 282 145 c 1,713,-1
264 182 m 1,719,-1
 252 173 l 1,720,721
 258 157 258 157 265 142 c 1,722,723
 272 147 272 147 279 151 c 1,724,725
 271 166 271 166 264 182 c 1,719,-1
698 -210 m 1,726,727
 652 -195 652 -195 640 -190 c 1,728,-1
 593 -227 l 1,729,730
 619 -240 619 -240 639 -248 c 1,731,-1
 698 -210 l 1,726,727
587 -167 m 1,732,733
 587 -167 587 -167 543 -200 c 1,734,735
 564 -213 564 -213 586 -224 c 1,736,-1
 632 -187 l 1,737,738
 609 -178 609 -178 587 -167 c 1,732,733
550 -147 m 1,739,-1
 508 -177 l 1,740,741
 522 -187 522 -187 537 -196 c 1,742,-1
 580 -163 l 1,743,744
 565 -156 565 -156 550 -147 c 1,739,-1
523 -130 m 1,745,-1
 484 -159 l 1,746,747
 493 -166 493 -166 502 -172 c 1,748,-1
 542 -142 l 1,749,750
 533 -136 533 -136 523 -130 c 1,745,-1
446 -126 m 1,751,752
 459 -138 459 -138 478 -154 c 1,753,-1
 516 -126 l 1,754,755
 498 -113 498 -113 481 -100 c 1,756,-1
 446 -126 l 1,751,752
455 -79 m 1,757,-1
 422 -103 l 1,758,759
 422 -103 422 -103 440 -121 c 1,760,-1
 475 -95 l 1,761,762
 465 -88 465 -88 455 -79 c 1,757,-1
980 -250 m 1,763,-1
 892 -318 l 1,764,765
 952 -326 952 -326 1023 -327 c 1,766,-1
 1057 -301 l 1,767,768
 1093 -275 1093 -275 1129 -248 c 1,769,770
 1087 -251 1087 -251 1049 -251 c 128,-1,771
 1011 -251 1011 -251 980 -250 c 1,763,-1
909 -246 m 1,772,-1
 827 -306 l 1,773,774
 853 -312 853 -312 880 -316 c 1,775,-1
 968 -249 l 1,776,777
 938 -248 938 -248 909 -246 c 1,772,-1
847 -240 m 1,778,-1
 773 -293 l 1,779,780
 795 -299 795 -299 818 -304 c 1,781,-1
 899 -245 l 1,782,783
 872 -243 872 -243 847 -240 c 1,778,-1
787 -231 m 1,784,-1
 723 -278 l 1,785,786
 744 -285 744 -285 764 -291 c 1,787,-1
 836 -238 l 1,788,789
 811 -235 811 -235 787 -231 c 1,784,-1
709 -213 m 1,790,-1
 648 -252 l 1,791,792
 681 -265 681 -265 715 -276 c 1,793,-1
 778 -229 l 1,794,795
 742 -222 742 -222 709 -213 c 1,790,-1
1275 -228 m 1,796,797
 1211 -241 1211 -241 1144 -247 c 1,798,-1
 1061 -307 l 1,799,-1
 1034 -327 l 1,800,801
 1034 -327 1034 -327 1063.5 -327 c 128,-1,802
 1093 -327 1093 -327 1140 -320 c 1,803,-1
 1275 -228 l 1,796,797
1598 -122 m 1,804,805
 1525 -156 1525 -156 1432 -187 c 1,806,-1
 1427 -192 l 1,807,-1
 1343 -264 l 1,808,809
 1344 -264 1344 -264 1384 -244 c 0,810,811
 1480 -196 1480 -196 1598 -122 c 1,804,805
1295 -224 m 1,812,-1
 1159 -317 l 1,813,814
 1254 -300 1254 -300 1321 -273 c 1,815,-1
 1413 -193 l 1,816,817
 1356 -211 1356 -211 1295 -224 c 1,812,-1
388 1193 m 1,818,-1
 491 1267 l 1,819,-1
 601 1377 l 1,820,-1
 643 1431 l 1,821,822
 496 1339 496 1339 388 1193 c 1,818,-1
EndSplineSet
Validated: 3073
Layer: 3
SplineSet
866 398 m 4,0,1
 866 316 866 316 873 263 c 132,-1,2
 880 210 880 210 891 183.5 c 132,-1,3
 902 157 902 157 915 144 c 4,4,5
 933 126 933 126 958 126 c 4,6,7
 984 126 984 126 1010 152 c 4,8,9
 1057 198 1057 198 1091 307 c 4,10,11
 1118 393 1118 393 1136 512.5 c 132,-1,12
 1154 632 1154 632 1154 776 c 4,13,14
 1154 981 1154 981 1111 1035 c 4,15,16
 1095 1056 1095 1056 1070 1056 c 4,17,18
 1039 1056 1039 1056 1009 1026 c 4,19,20
 962 979 962 979 928 875 c 4,21,22
 900 789 900 789 883 667.5 c 132,-1,23
 866 546 866 546 866 398 c 4,0,1
1460 134 m 4,24,25
 1539 134 1539 134 1607 212 c 4,26,27
 1661 275 1661 275 1709 353 c 4,28,29
 1756 430 1756 430 1785 529.5 c 132,-1,30
 1814 629 1814 629 1814 736 c 4,31,32
 1814 885 1814 885 1755.5 1010.5 c 132,-1,33
 1697 1136 1697 1136 1582 1229 c 4,34,35
 1467 1321 1467 1321 1345 1374.5 c 132,-1,36
 1223 1428 1223 1428 1088 1428 c 4,37,38
 821 1428 821 1428 656 1319 c 4,39,40
 576 1267 576 1267 496.5 1190.5 c 132,-1,41
 417 1114 417 1114 367 1013 c 4,42,43
 320 918 320 918 285 801.5 c 132,-1,44
 250 685 250 685 250 550 c 4,45,46
 250 350 250 350 316 210 c 4,47,48
 376 81 376 81 463 -6 c 4,49,50
 563 -107 563 -107 706 -151 c 4,51,52
 839 -192 839 -192 1044 -192 c 4,53,54
 1165 -192 1165 -192 1276.5 -168 c 132,-1,55
 1388 -144 1388 -144 1487.5 -104.5 c 132,-1,56
 1587 -65 1587 -65 1676 -16 c 132,-1,57
 1765 33 1765 33 1841 84 c 5,58,-1
 1882 31 l 5,59,60
 1845 -3 1845 -3 1795 -47 c 4,61,62
 1683 -145 1683 -145 1530 -232 c 4,63,64
 1451 -277 1451 -277 1382.5 -310.5 c 132,-1,65
 1314 -344 1314 -344 1219.5 -365 c 132,-1,66
 1125 -386 1125 -386 1054 -386 c 4,67,68
 909 -386 909 -386 805.5 -362 c 132,-1,69
 702 -338 702 -338 604.5 -297.5 c 132,-1,70
 507 -257 507 -257 427 -188.5 c 132,-1,71
 347 -120 347 -120 278 -9.5 c 132,-1,72
 209 101 209 101 165.5 240 c 132,-1,73
 122 379 122 379 122 542 c 4,74,75
 122 673 122 673 149 808.5 c 132,-1,76
 176 944 176 944 238.5 1065.5 c 132,-1,77
 301 1187 301 1187 385.5 1284.5 c 132,-1,78
 470 1382 470 1382 578.5 1458.5 c 132,-1,79
 687 1535 687 1535 828 1578.5 c 132,-1,80
 969 1622 969 1622 1166 1622 c 4,81,82
 1209 1622 1209 1622 1286.5 1602 c 132,-1,83
 1364 1582 1364 1582 1452 1538.5 c 132,-1,84
 1540 1495 1540 1495 1633 1427 c 4,85,86
 1678 1394 1678 1394 1718 1354 c 4,87,88
 1845 1227 1845 1227 1905 1046 c 4,89,90
 1946 923 1946 923 1946 768 c 4,91,92
 1946 572 1946 572 1855 389 c 4,93,94
 1812 302 1812 302 1769 252 c 4,95,96
 1667 129 1667 129 1593 79 c 4,97,98
 1545 48 1545 48 1444 18 c 4,99,100
 1379 -2 1379 -2 1321.5 -2 c 132,-1,101
 1264 -2 1264 -2 1224 18 c 4,102,103
 1195 33 1195 33 1174 54 c 4,104,105
 1136 93 1136 93 1120 149 c 4,106,107
 1108 191 1108 191 1106 232 c 6,108,-1
 1104 267 l 5,109,-1
 1094 234 l 6,110,111
 1079 182 1079 182 1055 139 c 4,112,113
 978 -2 978 -2 812 -2 c 4,114,115
 704 -2 704 -2 624 78 c 4,116,117
 552 150 552 150 523 271 c 4,118,119
 502 357 502 357 502 464 c 4,120,121
 502 647 502 647 537 782 c 132,-1,122
 572 917 572 917 632 1004 c 132,-1,123
 692 1091 692 1091 772.5 1133.5 c 132,-1,124
 853 1176 853 1176 942 1176 c 4,125,126
 1006 1176 1006 1176 1052 1152 c 132,-1,127
 1098 1128 1098 1128 1127 1087 c 4,128,129
 1184 1007 1184 1007 1188 868 c 6,130,-1
 1190 808 l 5,131,-1
 1233 1070 l 5,132,-1
 1532 1070 l 5,133,134
 1519 1022 1519 1022 1505 956 c 4,135,136
 1466 773 1466 773 1449 641 c 4,137,138
 1438 557 1438 557 1429 478 c 132,-1,139
 1420 399 1420 399 1415 329.5 c 132,-1,140
 1410 260 1410 260 1410 215 c 132,-1,141
 1410 170 1410 170 1424.5 152 c 132,-1,142
 1439 134 1439 134 1460 134 c 4,24,25
EndSplineSet
EndChar

StartChar: A
Encoding: 65 65 33
Width: 1492
GlyphClass: 2
Flags: W
LayerCount: 4
Back
SplineSet
64 80 m 5,0,1
 122 80 122 80 152 90 c 132,-1,2
 182 100 182 100 192 130 c 6,3,-1
 558 1418 l 5,4,-1
 868 1418 l 5,5,-1
 1296 80 l 5,6,-1
 1422 80 l 5,7,-1
 1422 0 l 5,8,-1
 616 0 l 5,9,-1
 616 80 l 5,10,-1
 754 80 l 5,11,-1
 656 424 l 5,12,-1
 342 424 l 5,13,-1
 258 134 l 6,14,15
 258 132 258 132 258 124 c 4,16,17
 258 110 258 110 268 102 c 132,-1,18
 278 94 278 94 296 89 c 132,-1,19
 314 84 314 84 337 82 c 132,-1,20
 360 80 360 80 390 80 c 5,21,-1
 390 0 l 5,22,-1
 64 0 l 5,23,-1
 64 80 l 5,0,1
632 504 m 5,24,-1
 496 974 l 5,25,-1
 364 504 l 5,26,-1
 632 504 l 5,24,-1
EndSplineSet
Fore
SplineSet
64 0 m 1,0,-1
 64 80 l 1,1,2
 122 80 122 80 152 90 c 128,-1,3
 182 100 182 100 192 130 c 1,4,-1
 558 1418 l 1,5,-1
 868 1418 l 1,6,-1
 1296 80 l 1,7,-1
 1422 80 l 1,8,-1
 1422 0 l 1,9,-1
 616 0 l 1,10,-1
 616 80 l 1,11,-1
 754 80 l 1,12,-1
 656 424 l 1,13,-1
 342 424 l 1,14,-1
 258 134 l 1,15,-1
 258 124 l 2,16,17
 258 80 258 80 390 80 c 1,18,-1
 390 0 l 1,19,-1
 64 0 l 1,0,-1
364 504 m 1,20,-1
 632 504 l 1,21,-1
 496 974 l 1,22,-1
 364 504 l 1,20,-1
699 507 m 1,23,-1
 713 463 l 1,24,-1
 784 522 l 1,25,-1
 1025 715 l 1,26,-1
 1015 744 l 1,27,-1
 699 507 l 1,23,-1
566 966 m 1,28,-1
 582 910 l 1,29,30
 636 988 636 988 637 989 c 2,31,-1
 847 1144 l 1,32,-1
 879 1171 l 1,33,-1
 855 1246 l 1,34,-1
 772 1163 l 1,35,36
 598 991 598 991 566 966 c 1,28,-1
585 901 m 1,37,-1
 612 807 l 1,38,-1
 787 939 l 1,39,-1
 923 1033 l 1,40,-1
 900 1104 l 1,41,-1
 756 988 l 1,42,-1
 662 923 l 1,43,-1
 622 883 l 1,44,-1
 616 889 l 1,45,46
 654 927 654 927 657 929 c 2,47,-1
 752 994 l 1,48,-1
 897 1113 l 1,49,-1
 882 1162 l 1,50,51
 860 1143 860 1143 851 1138 c 1,52,-1
 642 983 l 1,53,54
 607 932 607 932 585 901 c 1,37,-1
614 799 m 1,55,-1
 628 753 l 1,56,57
 782 871 782 871 937 989 c 1,58,-1
 925 1026 l 1,59,-1
 791 933 l 1,60,-1
 614 799 l 1,55,-1
630 745 m 1,61,-1
 646 690 l 1,62,-1
 931 909 l 1,63,-1
 954 937 l 1,64,-1
 939 981 l 1,65,-1
 630 745 l 1,61,-1
648 682 m 1,66,-1
 663 632 l 1,67,-1
 817 749 l 1,68,-1
 974 874 l 1,69,-1
 957 928 l 1,70,-1
 936 903 l 1,71,-1
 648 682 l 1,66,-1
665 625 m 1,72,-1
 671 604 l 1,73,-1
 985 839 l 1,74,-1
 976 866 l 1,75,-1
 821 743 l 1,76,77
 763 700 763 700 665 625 c 1,72,-1
685 555 m 1,78,-1
 697 514 l 1,79,-1
 1013 751 l 1,80,-1
 1000 792 l 1,81,-1
 685 555 l 1,78,-1
673 596 m 1,82,-1
 683 563 l 1,83,-1
 997 800 l 1,84,-1
 987 832 l 1,85,-1
 673 596 l 1,82,-1
538 1062 m 17,86,87
 538 1062 538 1062 751 1254 c 1,88,-1
 825 1339 l 1,89,-1
 821 1353 l 1,90,-1
 752 1353 l 1,91,-1
 679 1276 l 1,92,93
 606 1204 606 1204 550 1150 c 1,94,-1
 531 1086 l 1,95,-1
 538 1062 l 17,86,87
564 974 m 1,96,-1
 576 984 l 1,97,-1
 766 1169 l 1,98,-1
 852 1255 l 1,99,-1
 828 1329 l 1,100,101
 766 1257 766 1257 756 1248 c 2,102,-1
 549 1060 l 1,103,-1
 541 1053 l 1,104,-1
 564 974 l 1,96,-1
581 1261 m 1,105,-1
 611 1287 l 1,106,-1
 668 1353 l 1,107,-1
 607 1353 l 1,108,-1
 581 1261 l 1,105,-1
577 1246 m 1,109,-1
 555 1169 l 1,110,-1
 673 1282 l 1,111,112
 709 1321 709 1321 738 1353 c 1,113,-1
 679 1353 l 1,114,-1
 617 1281 l 1,115,-1
 577 1246 l 1,109,-1
1071 569 m 1,116,-1
 1011 523 l 2,117,118
 951 478 951 478 836 393 c 1,119,-1
 750 333 l 1,120,-1
 761 293 l 1,121,122
 986 456 986 456 991 460 c 128,-1,123
 996 464 996 464 1014 477 c 2,124,-1
 1084 529 l 1,125,-1
 1071 569 l 1,116,-1
1097 489 m 1,126,-1
 1086 522 l 1,127,-1
 989 449 l 1,128,129
 864 359 864 359 763 286 c 1,130,-1
 773 249 l 1,131,-1
 1097 489 l 1,126,-1
1118 423 m 1,132,-1
 1099 481 l 1,133,-1
 775 242 l 1,134,-1
 793 182 l 1,135,-1
 1118 423 l 1,132,-1
1130 384 m 1,136,-1
 1120 416 l 1,137,-1
 795 175 l 1,138,-1
 803 144 l 1,139,-1
 1130 384 l 1,136,-1
1044 653 m 1,140,-1
 1027 708 l 1,141,-1
 790 516 l 1,142,-1
 715 454 l 1,143,-1
 725 418 l 1,144,-1
 1044 653 l 1,140,-1
1069 576 m 1,145,-1
 1047 646 l 1,146,-1
 727 410 l 1,147,-1
 747 341 l 1,148,-1
 832 399 l 1,149,-1
 1007 529 l 1,150,-1
 1069 576 l 1,145,-1
1154 310 m 1,151,-1
 1148 329 l 1,152,-1
 819 88 l 1,153,-1
 825 67 l 1,154,-1
 1154 310 l 1,151,-1
1157 302 m 1,155,-1
 835 65 l 1,156,-1
 864 65 l 1,157,-1
 967 149 l 1,158,-1
 1163 282 l 1,159,-1
 1157 302 l 1,155,-1
1165 275 m 1,160,-1
 971 143 l 1,161,-1
 875 65 l 1,162,-1
 964 65 l 1,163,-1
 1036 124 l 1,164,-1
 1179 231 l 1,165,-1
 1165 275 l 1,160,-1
1182 223 m 1,166,-1
 1040 118 l 1,167,-1
 976 65 l 1,168,-1
 1074 65 l 1,169,-1
 1204 155 l 1,170,-1
 1182 223 l 1,166,-1
1221 100 m 1,171,-1
 1206 148 l 1,172,173
 1136 100 1136 100 1086 65 c 1,174,-1
 1174 65 l 1,175,-1
 1221 100 l 1,171,-1
1224 93 m 1,176,-1
 1186 65 l 1,177,-1
 1233 65 l 1,178,-1
 1224 93 l 1,176,-1
1146 337 m 1,179,-1
 1133 377 l 1,180,-1
 805 137 l 1,181,-1
 817 96 l 1,182,-1
 1146 337 l 1,179,-1
EndSplineSet
Validated: 3073
Layer: 3
SplineSet
640 498 m 5,0,-1
 496 996 l 5,1,-1
 356 498 l 5,2,-1
 640 498 l 5,0,-1
252 134 m 21,3,4
 248 112 248 112 261 100 c 4,5,6
 288 75 288 75 384 74 c 5,7,-1
 384 6 l 5,8,-1
 70 6 l 5,9,-1
 70 74 l 5,10,11
 125 74 125 74 154 84 c 4,12,13
 170 90 170 90 181.5 101 c 132,-1,14
 193 112 193 112 198 128 c 6,15,-1
 563 1412 l 5,16,-1
 864 1412 l 5,17,-1
 1292 74 l 5,18,-1
 1416 74 l 5,19,-1
 1416 6 l 5,20,-1
 622 6 l 5,21,-1
 622 74 l 5,22,-1
 762 74 l 5,23,-1
 661 430 l 5,24,-1
 337 430 l 5,25,-1
 252 134 l 21,3,4
EndSplineSet
EndChar

